<svg xmlns="http://www.w3.org/2000/svg" xmlns:xlink="http://www.w3.org/1999/xlink" width="1920" zoomAndPan="magnify" viewBox="0 0 1440 809.999993" height="1080" preserveAspectRatio="xMidYMid meet" version="1.0"><defs><g/><clipPath id="1854e5fe69"><rect x="0" width="1305" y="0" height="421"/></clipPath><clipPath id="81ae0e904b"><rect x="0" width="1305" y="0" height="421"/></clipPath><clipPath id="2eb550522b"><rect x="0" width="1305" y="0" height="421"/></clipPath><clipPath id="f5f4362405"><rect x="0" width="1305" y="0" height="420"/></clipPath><clipPath id="a55360c4f1"><path d="M 210.996094 87.324219 L 235.746094 87.324219 L 235.746094 99.324219 L 210.996094 99.324219 Z M 210.996094 87.324219 " clip-rule="nonzero"/></clipPath></defs><rect x="-144" width="1728" fill="#ffffff" y="-80.999999" height="971.999992" fill-opacity="1"/><rect x="-144" width="1728" fill="#f6f6f6" y="-80.999999" height="971.999992" fill-opacity="1"/><g transform="matrix(1, 0, 0, 1, 63, 43)"><g clip-path="url(#1854e5fe69)"><g fill="#b6b5b5" fill-opacity="1"><g transform="translate(0.799288, 333.25473)"><g><path d="M 138.28125 -189.546875 C 155.257812 -189.546875 170.6875 -185.585938 184.5625 -177.671875 C 198.4375 -169.765625 209.441406 -158.53125 217.578125 -143.96875 C 225.722656 -129.40625 229.796875 -112.488281 229.796875 -93.21875 C 229.796875 -73.957031 225.722656 -57.046875 217.578125 -42.484375 C 209.441406 -27.921875 198.4375 -16.679688 184.5625 -8.765625 C 170.6875 -0.859375 155.257812 3.09375 138.28125 3.09375 C 116.5 3.09375 99.1875 -3.441406 86.34375 -16.515625 L 86.34375 66.734375 L 20.984375 66.734375 L 20.984375 -186.453125 L 83.25 -186.453125 L 83.25 -167.875 C 95.40625 -182.320312 113.75 -189.546875 138.28125 -189.546875 Z M 124.53125 -48.84375 C 136 -48.84375 145.398438 -52.796875 152.734375 -60.703125 C 160.078125 -68.617188 163.75 -79.457031 163.75 -93.21875 C 163.75 -106.976562 160.078125 -117.8125 152.734375 -125.71875 C 145.398438 -133.632812 136 -137.59375 124.53125 -137.59375 C 113.0625 -137.59375 103.65625 -133.632812 96.3125 -125.71875 C 88.976562 -117.8125 85.3125 -106.976562 85.3125 -93.21875 C 85.3125 -79.457031 88.976562 -68.617188 96.3125 -60.703125 C 103.65625 -52.796875 113.0625 -48.84375 124.53125 -48.84375 Z M 124.53125 -48.84375 "/></g></g></g><g fill="#b6b5b5" fill-opacity="1"><g transform="translate(205.482073, 333.25473)"><g><path d="M 114.546875 3.09375 C 94.597656 3.09375 76.597656 -1.03125 60.546875 -9.28125 C 44.492188 -17.539062 31.9375 -29.007812 22.875 -43.6875 C 13.8125 -58.363281 9.28125 -74.988281 9.28125 -93.5625 C 9.28125 -111.914062 13.8125 -128.429688 22.875 -143.109375 C 31.9375 -157.785156 44.4375 -169.191406 60.375 -177.328125 C 76.3125 -185.472656 94.367188 -189.546875 114.546875 -189.546875 C 134.734375 -189.546875 152.851562 -185.472656 168.90625 -177.328125 C 184.957031 -169.191406 197.453125 -157.84375 206.390625 -143.28125 C 215.335938 -128.71875 219.8125 -112.144531 219.8125 -93.5625 C 219.8125 -74.988281 215.335938 -58.363281 206.390625 -43.6875 C 197.453125 -29.007812 184.957031 -17.539062 168.90625 -9.28125 C 152.851562 -1.03125 134.734375 3.09375 114.546875 3.09375 Z M 114.546875 -48.84375 C 126.015625 -48.84375 135.414062 -52.796875 142.75 -60.703125 C 150.09375 -68.617188 153.765625 -79.570312 153.765625 -93.5625 C 153.765625 -107.320312 150.09375 -118.097656 142.75 -125.890625 C 135.414062 -133.691406 126.015625 -137.59375 114.546875 -137.59375 C 103.085938 -137.59375 93.6875 -133.691406 86.34375 -125.890625 C 79.007812 -118.097656 75.34375 -107.320312 75.34375 -93.5625 C 75.34375 -79.570312 79.007812 -68.617188 86.34375 -60.703125 C 93.6875 -52.796875 103.085938 -48.84375 114.546875 -48.84375 Z M 114.546875 -48.84375 "/></g></g></g><g fill="#b6b5b5" fill-opacity="1"><g transform="translate(400.188756, 333.25473)"><g><path d="M 83.25 -164.09375 C 89.894531 -172.570312 98.550781 -178.929688 109.21875 -183.171875 C 119.882812 -187.421875 132.097656 -189.546875 145.859375 -189.546875 L 145.859375 -130.71875 C 139.890625 -131.40625 134.957031 -131.75 131.0625 -131.75 C 117.070312 -131.75 106.117188 -127.960938 98.203125 -120.390625 C 90.296875 -112.828125 86.34375 -101.25 86.34375 -85.65625 L 86.34375 0 L 20.984375 0 L 20.984375 -186.453125 L 83.25 -186.453125 Z M 83.25 -164.09375 "/></g></g></g><g fill="#b6b5b5" fill-opacity="1"><g transform="translate(518.182074, 333.25473)"><g><path d="M 149.640625 -7.5625 C 144.140625 -4.125 137.429688 -1.488281 129.515625 0.34375 C 121.597656 2.175781 113.171875 3.09375 104.234375 3.09375 C 79.921875 3.09375 61.226562 -2.867188 48.15625 -14.796875 C 35.082031 -26.722656 28.546875 -44.492188 28.546875 -68.109375 L 28.546875 -130.71875 L 1.375 -130.71875 L 1.375 -179.5625 L 28.546875 -179.5625 L 28.546875 -228.078125 L 93.90625 -228.078125 L 93.90625 -179.5625 L 136.5625 -179.5625 L 136.5625 -130.71875 L 93.90625 -130.71875 L 93.90625 -68.796875 C 93.90625 -62.148438 95.679688 -56.929688 99.234375 -53.140625 C 102.796875 -49.359375 107.554688 -47.46875 113.515625 -47.46875 C 121.085938 -47.46875 127.738281 -49.414062 133.46875 -53.3125 Z M 149.640625 -7.5625 "/></g></g></g><g fill="#b6b5b5" fill-opacity="1"><g transform="translate(637.551405, 333.25473)"><g><path d="M 92.1875 -179.5625 L 136.5625 -179.5625 L 136.5625 -130.71875 L 93.90625 -130.71875 L 93.90625 0 L 28.546875 0 L 28.546875 -130.71875 L 1.375 -130.71875 L 1.375 -179.5625 L 28.546875 -179.5625 L 28.546875 -184.390625 C 28.546875 -207.085938 35.367188 -225.085938 49.015625 -238.390625 C 62.660156 -251.691406 81.753906 -258.34375 106.296875 -258.34375 C 114.554688 -258.34375 122.582031 -257.539062 130.375 -255.9375 C 138.175781 -254.332031 144.597656 -251.925781 149.640625 -248.71875 L 133.46875 -202.609375 C 127.050781 -206.285156 120.515625 -208.125 113.859375 -208.125 C 106.984375 -208.125 101.648438 -206.054688 97.859375 -201.921875 C 94.078125 -197.796875 92.1875 -191.722656 92.1875 -183.703125 Z M 92.1875 -179.5625 "/></g></g></g><g fill="#b6b5b5" fill-opacity="1"><g transform="translate(742.816484, 333.25473)"><g><path d="M 114.546875 3.09375 C 94.597656 3.09375 76.597656 -1.03125 60.546875 -9.28125 C 44.492188 -17.539062 31.9375 -29.007812 22.875 -43.6875 C 13.8125 -58.363281 9.28125 -74.988281 9.28125 -93.5625 C 9.28125 -111.914062 13.8125 -128.429688 22.875 -143.109375 C 31.9375 -157.785156 44.4375 -169.191406 60.375 -177.328125 C 76.3125 -185.472656 94.367188 -189.546875 114.546875 -189.546875 C 134.734375 -189.546875 152.851562 -185.472656 168.90625 -177.328125 C 184.957031 -169.191406 197.453125 -157.84375 206.390625 -143.28125 C 215.335938 -128.71875 219.8125 -112.144531 219.8125 -93.5625 C 219.8125 -74.988281 215.335938 -58.363281 206.390625 -43.6875 C 197.453125 -29.007812 184.957031 -17.539062 168.90625 -9.28125 C 152.851562 -1.03125 134.734375 3.09375 114.546875 3.09375 Z M 114.546875 -48.84375 C 126.015625 -48.84375 135.414062 -52.796875 142.75 -60.703125 C 150.09375 -68.617188 153.765625 -79.570312 153.765625 -93.5625 C 153.765625 -107.320312 150.09375 -118.097656 142.75 -125.890625 C 135.414062 -133.691406 126.015625 -137.59375 114.546875 -137.59375 C 103.085938 -137.59375 93.6875 -133.691406 86.34375 -125.890625 C 79.007812 -118.097656 75.34375 -107.320312 75.34375 -93.5625 C 75.34375 -79.570312 79.007812 -68.617188 86.34375 -60.703125 C 93.6875 -52.796875 103.085938 -48.84375 114.546875 -48.84375 Z M 114.546875 -48.84375 "/></g></g></g><g fill="#b6b5b5" fill-opacity="1"><g transform="translate(937.523218, 333.25473)"><g><path d="M 20.984375 -255.25 L 86.34375 -255.25 L 86.34375 0 L 20.984375 0 Z M 20.984375 -255.25 "/></g></g></g><g fill="#b6b5b5" fill-opacity="1"><g transform="translate(1010.795632, 333.25473)"><g><path d="M 20.984375 -186.453125 L 86.34375 -186.453125 L 86.34375 0 L 20.984375 0 Z M 53.65625 -207.09375 C 41.726562 -207.09375 32.09375 -210.414062 24.75 -217.0625 C 17.414062 -223.71875 13.75 -231.972656 13.75 -241.828125 C 13.75 -251.691406 17.414062 -259.945312 24.75 -266.59375 C 32.09375 -273.25 41.726562 -276.578125 53.65625 -276.578125 C 65.582031 -276.578125 75.210938 -273.421875 82.546875 -267.109375 C 89.890625 -260.804688 93.5625 -252.722656 93.5625 -242.859375 C 93.5625 -232.546875 89.890625 -224.003906 82.546875 -217.234375 C 75.210938 -210.472656 65.582031 -207.09375 53.65625 -207.09375 Z M 53.65625 -207.09375 "/></g></g></g><g fill="#b6b5b5" fill-opacity="1"><g transform="translate(1084.068149, 333.25473)"><g><path d="M 114.546875 3.09375 C 94.597656 3.09375 76.597656 -1.03125 60.546875 -9.28125 C 44.492188 -17.539062 31.9375 -29.007812 22.875 -43.6875 C 13.8125 -58.363281 9.28125 -74.988281 9.28125 -93.5625 C 9.28125 -111.914062 13.8125 -128.429688 22.875 -143.109375 C 31.9375 -157.785156 44.4375 -169.191406 60.375 -177.328125 C 76.3125 -185.472656 94.367188 -189.546875 114.546875 -189.546875 C 134.734375 -189.546875 152.851562 -185.472656 168.90625 -177.328125 C 184.957031 -169.191406 197.453125 -157.84375 206.390625 -143.28125 C 215.335938 -128.71875 219.8125 -112.144531 219.8125 -93.5625 C 219.8125 -74.988281 215.335938 -58.363281 206.390625 -43.6875 C 197.453125 -29.007812 184.957031 -17.539062 168.90625 -9.28125 C 152.851562 -1.03125 134.734375 3.09375 114.546875 3.09375 Z M 114.546875 -48.84375 C 126.015625 -48.84375 135.414062 -52.796875 142.75 -60.703125 C 150.09375 -68.617188 153.765625 -79.570312 153.765625 -93.5625 C 153.765625 -107.320312 150.09375 -118.097656 142.75 -125.890625 C 135.414062 -133.691406 126.015625 -137.59375 114.546875 -137.59375 C 103.085938 -137.59375 93.6875 -133.691406 86.34375 -125.890625 C 79.007812 -118.097656 75.34375 -107.320312 75.34375 -93.5625 C 75.34375 -79.570312 79.007812 -68.617188 86.34375 -60.703125 C 93.6875 -52.796875 103.085938 -48.84375 114.546875 -48.84375 Z M 114.546875 -48.84375 "/></g></g></g></g></g><g transform="matrix(1, 0, 0, 1, 63, 310)"><g clip-path="url(#81ae0e904b)"><g fill="#b6b5b5" fill-opacity="1"><g transform="translate(0.799288, 333.107322)"><g><path d="M 138.28125 -189.546875 C 155.257812 -189.546875 170.6875 -185.585938 184.5625 -177.671875 C 198.4375 -169.765625 209.441406 -158.53125 217.578125 -143.96875 C 225.722656 -129.40625 229.796875 -112.488281 229.796875 -93.21875 C 229.796875 -73.957031 225.722656 -57.046875 217.578125 -42.484375 C 209.441406 -27.921875 198.4375 -16.679688 184.5625 -8.765625 C 170.6875 -0.859375 155.257812 3.09375 138.28125 3.09375 C 116.5 3.09375 99.1875 -3.441406 86.34375 -16.515625 L 86.34375 66.734375 L 20.984375 66.734375 L 20.984375 -186.453125 L 83.25 -186.453125 L 83.25 -167.875 C 95.40625 -182.320312 113.75 -189.546875 138.28125 -189.546875 Z M 124.53125 -48.84375 C 136 -48.84375 145.398438 -52.796875 152.734375 -60.703125 C 160.078125 -68.617188 163.75 -79.457031 163.75 -93.21875 C 163.75 -106.976562 160.078125 -117.8125 152.734375 -125.71875 C 145.398438 -133.632812 136 -137.59375 124.53125 -137.59375 C 113.0625 -137.59375 103.65625 -133.632812 96.3125 -125.71875 C 88.976562 -117.8125 85.3125 -106.976562 85.3125 -93.21875 C 85.3125 -79.457031 88.976562 -68.617188 96.3125 -60.703125 C 103.65625 -52.796875 113.0625 -48.84375 124.53125 -48.84375 Z M 124.53125 -48.84375 "/></g></g></g><g fill="#b6b5b5" fill-opacity="1"><g transform="translate(205.482073, 333.107322)"><g><path d="M 114.546875 3.09375 C 94.597656 3.09375 76.597656 -1.03125 60.546875 -9.28125 C 44.492188 -17.539062 31.9375 -29.007812 22.875 -43.6875 C 13.8125 -58.363281 9.28125 -74.988281 9.28125 -93.5625 C 9.28125 -111.914062 13.8125 -128.429688 22.875 -143.109375 C 31.9375 -157.785156 44.4375 -169.191406 60.375 -177.328125 C 76.3125 -185.472656 94.367188 -189.546875 114.546875 -189.546875 C 134.734375 -189.546875 152.851562 -185.472656 168.90625 -177.328125 C 184.957031 -169.191406 197.453125 -157.84375 206.390625 -143.28125 C 215.335938 -128.71875 219.8125 -112.144531 219.8125 -93.5625 C 219.8125 -74.988281 215.335938 -58.363281 206.390625 -43.6875 C 197.453125 -29.007812 184.957031 -17.539062 168.90625 -9.28125 C 152.851562 -1.03125 134.734375 3.09375 114.546875 3.09375 Z M 114.546875 -48.84375 C 126.015625 -48.84375 135.414062 -52.796875 142.75 -60.703125 C 150.09375 -68.617188 153.765625 -79.570312 153.765625 -93.5625 C 153.765625 -107.320312 150.09375 -118.097656 142.75 -125.890625 C 135.414062 -133.691406 126.015625 -137.59375 114.546875 -137.59375 C 103.085938 -137.59375 93.6875 -133.691406 86.34375 -125.890625 C 79.007812 -118.097656 75.34375 -107.320312 75.34375 -93.5625 C 75.34375 -79.570312 79.007812 -68.617188 86.34375 -60.703125 C 93.6875 -52.796875 103.085938 -48.84375 114.546875 -48.84375 Z M 114.546875 -48.84375 "/></g></g></g><g fill="#b6b5b5" fill-opacity="1"><g transform="translate(400.188756, 333.107322)"><g><path d="M 83.25 -164.09375 C 89.894531 -172.570312 98.550781 -178.929688 109.21875 -183.171875 C 119.882812 -187.421875 132.097656 -189.546875 145.859375 -189.546875 L 145.859375 -130.71875 C 139.890625 -131.40625 134.957031 -131.75 131.0625 -131.75 C 117.070312 -131.75 106.117188 -127.960938 98.203125 -120.390625 C 90.296875 -112.828125 86.34375 -101.25 86.34375 -85.65625 L 86.34375 0 L 20.984375 0 L 20.984375 -186.453125 L 83.25 -186.453125 Z M 83.25 -164.09375 "/></g></g></g><g fill="#b6b5b5" fill-opacity="1"><g transform="translate(518.182074, 333.107322)"><g><path d="M 149.640625 -7.5625 C 144.140625 -4.125 137.429688 -1.488281 129.515625 0.34375 C 121.597656 2.175781 113.171875 3.09375 104.234375 3.09375 C 79.921875 3.09375 61.226562 -2.867188 48.15625 -14.796875 C 35.082031 -26.722656 28.546875 -44.492188 28.546875 -68.109375 L 28.546875 -130.71875 L 1.375 -130.71875 L 1.375 -179.5625 L 28.546875 -179.5625 L 28.546875 -228.078125 L 93.90625 -228.078125 L 93.90625 -179.5625 L 136.5625 -179.5625 L 136.5625 -130.71875 L 93.90625 -130.71875 L 93.90625 -68.796875 C 93.90625 -62.148438 95.679688 -56.929688 99.234375 -53.140625 C 102.796875 -49.359375 107.554688 -47.46875 113.515625 -47.46875 C 121.085938 -47.46875 127.738281 -49.414062 133.46875 -53.3125 Z M 149.640625 -7.5625 "/></g></g></g><g fill="#b6b5b5" fill-opacity="1"><g transform="translate(637.551405, 333.107322)"><g><path d="M 92.1875 -179.5625 L 136.5625 -179.5625 L 136.5625 -130.71875 L 93.90625 -130.71875 L 93.90625 0 L 28.546875 0 L 28.546875 -130.71875 L 1.375 -130.71875 L 1.375 -179.5625 L 28.546875 -179.5625 L 28.546875 -184.390625 C 28.546875 -207.085938 35.367188 -225.085938 49.015625 -238.390625 C 62.660156 -251.691406 81.753906 -258.34375 106.296875 -258.34375 C 114.554688 -258.34375 122.582031 -257.539062 130.375 -255.9375 C 138.175781 -254.332031 144.597656 -251.925781 149.640625 -248.71875 L 133.46875 -202.609375 C 127.050781 -206.285156 120.515625 -208.125 113.859375 -208.125 C 106.984375 -208.125 101.648438 -206.054688 97.859375 -201.921875 C 94.078125 -197.796875 92.1875 -191.722656 92.1875 -183.703125 Z M 92.1875 -179.5625 "/></g></g></g><g fill="#b6b5b5" fill-opacity="1"><g transform="translate(742.816484, 333.107322)"><g><path d="M 114.546875 3.09375 C 94.597656 3.09375 76.597656 -1.03125 60.546875 -9.28125 C 44.492188 -17.539062 31.9375 -29.007812 22.875 -43.6875 C 13.8125 -58.363281 9.28125 -74.988281 9.28125 -93.5625 C 9.28125 -111.914062 13.8125 -128.429688 22.875 -143.109375 C 31.9375 -157.785156 44.4375 -169.191406 60.375 -177.328125 C 76.3125 -185.472656 94.367188 -189.546875 114.546875 -189.546875 C 134.734375 -189.546875 152.851562 -185.472656 168.90625 -177.328125 C 184.957031 -169.191406 197.453125 -157.84375 206.390625 -143.28125 C 215.335938 -128.71875 219.8125 -112.144531 219.8125 -93.5625 C 219.8125 -74.988281 215.335938 -58.363281 206.390625 -43.6875 C 197.453125 -29.007812 184.957031 -17.539062 168.90625 -9.28125 C 152.851562 -1.03125 134.734375 3.09375 114.546875 3.09375 Z M 114.546875 -48.84375 C 126.015625 -48.84375 135.414062 -52.796875 142.75 -60.703125 C 150.09375 -68.617188 153.765625 -79.570312 153.765625 -93.5625 C 153.765625 -107.320312 150.09375 -118.097656 142.75 -125.890625 C 135.414062 -133.691406 126.015625 -137.59375 114.546875 -137.59375 C 103.085938 -137.59375 93.6875 -133.691406 86.34375 -125.890625 C 79.007812 -118.097656 75.34375 -107.320312 75.34375 -93.5625 C 75.34375 -79.570312 79.007812 -68.617188 86.34375 -60.703125 C 93.6875 -52.796875 103.085938 -48.84375 114.546875 -48.84375 Z M 114.546875 -48.84375 "/></g></g></g><g fill="#b6b5b5" fill-opacity="1"><g transform="translate(937.523218, 333.107322)"><g><path d="M 20.984375 -255.25 L 86.34375 -255.25 L 86.34375 0 L 20.984375 0 Z M 20.984375 -255.25 "/></g></g></g><g fill="#b6b5b5" fill-opacity="1"><g transform="translate(1010.795632, 333.107322)"><g><path d="M 20.984375 -186.453125 L 86.34375 -186.453125 L 86.34375 0 L 20.984375 0 Z M 53.65625 -207.09375 C 41.726562 -207.09375 32.09375 -210.414062 24.75 -217.0625 C 17.414062 -223.71875 13.75 -231.972656 13.75 -241.828125 C 13.75 -251.691406 17.414062 -259.945312 24.75 -266.59375 C 32.09375 -273.25 41.726562 -276.578125 53.65625 -276.578125 C 65.582031 -276.578125 75.210938 -273.421875 82.546875 -267.109375 C 89.890625 -260.804688 93.5625 -252.722656 93.5625 -242.859375 C 93.5625 -232.546875 89.890625 -224.003906 82.546875 -217.234375 C 75.210938 -210.472656 65.582031 -207.09375 53.65625 -207.09375 Z M 53.65625 -207.09375 "/></g></g></g><g fill="#b6b5b5" fill-opacity="1"><g transform="translate(1084.068149, 333.107322)"><g><path d="M 114.546875 3.09375 C 94.597656 3.09375 76.597656 -1.03125 60.546875 -9.28125 C 44.492188 -17.539062 31.9375 -29.007812 22.875 -43.6875 C 13.8125 -58.363281 9.28125 -74.988281 9.28125 -93.5625 C 9.28125 -111.914062 13.8125 -128.429688 22.875 -143.109375 C 31.9375 -157.785156 44.4375 -169.191406 60.375 -177.328125 C 76.3125 -185.472656 94.367188 -189.546875 114.546875 -189.546875 C 134.734375 -189.546875 152.851562 -185.472656 168.90625 -177.328125 C 184.957031 -169.191406 197.453125 -157.84375 206.390625 -143.28125 C 215.335938 -128.71875 219.8125 -112.144531 219.8125 -93.5625 C 219.8125 -74.988281 215.335938 -58.363281 206.390625 -43.6875 C 197.453125 -29.007812 184.957031 -17.539062 168.90625 -9.28125 C 152.851562 -1.03125 134.734375 3.09375 114.546875 3.09375 Z M 114.546875 -48.84375 C 126.015625 -48.84375 135.414062 -52.796875 142.75 -60.703125 C 150.09375 -68.617188 153.765625 -79.570312 153.765625 -93.5625 C 153.765625 -107.320312 150.09375 -118.097656 142.75 -125.890625 C 135.414062 -133.691406 126.015625 -137.59375 114.546875 -137.59375 C 103.085938 -137.59375 93.6875 -133.691406 86.34375 -125.890625 C 79.007812 -118.097656 75.34375 -107.320312 75.34375 -93.5625 C 75.34375 -79.570312 79.007812 -68.617188 86.34375 -60.703125 C 93.6875 -52.796875 103.085938 -48.84375 114.546875 -48.84375 Z M 114.546875 -48.84375 "/></g></g></g></g></g><g transform="matrix(1, 0, 0, 1, 63, 243)"><g clip-path="url(#2eb550522b)"><g fill="#838282" fill-opacity="1"><g transform="translate(0.799288, 333.394154)"><g><path d="M 138.28125 -189.546875 C 155.257812 -189.546875 170.6875 -185.585938 184.5625 -177.671875 C 198.4375 -169.765625 209.441406 -158.53125 217.578125 -143.96875 C 225.722656 -129.40625 229.796875 -112.488281 229.796875 -93.21875 C 229.796875 -73.957031 225.722656 -57.046875 217.578125 -42.484375 C 209.441406 -27.921875 198.4375 -16.679688 184.5625 -8.765625 C 170.6875 -0.859375 155.257812 3.09375 138.28125 3.09375 C 116.5 3.09375 99.1875 -3.441406 86.34375 -16.515625 L 86.34375 66.734375 L 20.984375 66.734375 L 20.984375 -186.453125 L 83.25 -186.453125 L 83.25 -167.875 C 95.40625 -182.320312 113.75 -189.546875 138.28125 -189.546875 Z M 124.53125 -48.84375 C 136 -48.84375 145.398438 -52.796875 152.734375 -60.703125 C 160.078125 -68.617188 163.75 -79.457031 163.75 -93.21875 C 163.75 -106.976562 160.078125 -117.8125 152.734375 -125.71875 C 145.398438 -133.632812 136 -137.59375 124.53125 -137.59375 C 113.0625 -137.59375 103.65625 -133.632812 96.3125 -125.71875 C 88.976562 -117.8125 85.3125 -106.976562 85.3125 -93.21875 C 85.3125 -79.457031 88.976562 -68.617188 96.3125 -60.703125 C 103.65625 -52.796875 113.0625 -48.84375 124.53125 -48.84375 Z M 124.53125 -48.84375 "/></g></g></g><g fill="#838282" fill-opacity="1"><g transform="translate(205.482073, 333.394154)"><g><path d="M 114.546875 3.09375 C 94.597656 3.09375 76.597656 -1.03125 60.546875 -9.28125 C 44.492188 -17.539062 31.9375 -29.007812 22.875 -43.6875 C 13.8125 -58.363281 9.28125 -74.988281 9.28125 -93.5625 C 9.28125 -111.914062 13.8125 -128.429688 22.875 -143.109375 C 31.9375 -157.785156 44.4375 -169.191406 60.375 -177.328125 C 76.3125 -185.472656 94.367188 -189.546875 114.546875 -189.546875 C 134.734375 -189.546875 152.851562 -185.472656 168.90625 -177.328125 C 184.957031 -169.191406 197.453125 -157.84375 206.390625 -143.28125 C 215.335938 -128.71875 219.8125 -112.144531 219.8125 -93.5625 C 219.8125 -74.988281 215.335938 -58.363281 206.390625 -43.6875 C 197.453125 -29.007812 184.957031 -17.539062 168.90625 -9.28125 C 152.851562 -1.03125 134.734375 3.09375 114.546875 3.09375 Z M 114.546875 -48.84375 C 126.015625 -48.84375 135.414062 -52.796875 142.75 -60.703125 C 150.09375 -68.617188 153.765625 -79.570312 153.765625 -93.5625 C 153.765625 -107.320312 150.09375 -118.097656 142.75 -125.890625 C 135.414062 -133.691406 126.015625 -137.59375 114.546875 -137.59375 C 103.085938 -137.59375 93.6875 -133.691406 86.34375 -125.890625 C 79.007812 -118.097656 75.34375 -107.320312 75.34375 -93.5625 C 75.34375 -79.570312 79.007812 -68.617188 86.34375 -60.703125 C 93.6875 -52.796875 103.085938 -48.84375 114.546875 -48.84375 Z M 114.546875 -48.84375 "/></g></g></g><g fill="#838282" fill-opacity="1"><g transform="translate(400.188756, 333.394154)"><g><path d="M 83.25 -164.09375 C 89.894531 -172.570312 98.550781 -178.929688 109.21875 -183.171875 C 119.882812 -187.421875 132.097656 -189.546875 145.859375 -189.546875 L 145.859375 -130.71875 C 139.890625 -131.40625 134.957031 -131.75 131.0625 -131.75 C 117.070312 -131.75 106.117188 -127.960938 98.203125 -120.390625 C 90.296875 -112.828125 86.34375 -101.25 86.34375 -85.65625 L 86.34375 0 L 20.984375 0 L 20.984375 -186.453125 L 83.25 -186.453125 Z M 83.25 -164.09375 "/></g></g></g><g fill="#838282" fill-opacity="1"><g transform="translate(518.182074, 333.394154)"><g><path d="M 149.640625 -7.5625 C 144.140625 -4.125 137.429688 -1.488281 129.515625 0.34375 C 121.597656 2.175781 113.171875 3.09375 104.234375 3.09375 C 79.921875 3.09375 61.226562 -2.867188 48.15625 -14.796875 C 35.082031 -26.722656 28.546875 -44.492188 28.546875 -68.109375 L 28.546875 -130.71875 L 1.375 -130.71875 L 1.375 -179.5625 L 28.546875 -179.5625 L 28.546875 -228.078125 L 93.90625 -228.078125 L 93.90625 -179.5625 L 136.5625 -179.5625 L 136.5625 -130.71875 L 93.90625 -130.71875 L 93.90625 -68.796875 C 93.90625 -62.148438 95.679688 -56.929688 99.234375 -53.140625 C 102.796875 -49.359375 107.554688 -47.46875 113.515625 -47.46875 C 121.085938 -47.46875 127.738281 -49.414062 133.46875 -53.3125 Z M 149.640625 -7.5625 "/></g></g></g><g fill="#838282" fill-opacity="1"><g transform="translate(637.551405, 333.394154)"><g><path d="M 92.1875 -179.5625 L 136.5625 -179.5625 L 136.5625 -130.71875 L 93.90625 -130.71875 L 93.90625 0 L 28.546875 0 L 28.546875 -130.71875 L 1.375 -130.71875 L 1.375 -179.5625 L 28.546875 -179.5625 L 28.546875 -184.390625 C 28.546875 -207.085938 35.367188 -225.085938 49.015625 -238.390625 C 62.660156 -251.691406 81.753906 -258.34375 106.296875 -258.34375 C 114.554688 -258.34375 122.582031 -257.539062 130.375 -255.9375 C 138.175781 -254.332031 144.597656 -251.925781 149.640625 -248.71875 L 133.46875 -202.609375 C 127.050781 -206.285156 120.515625 -208.125 113.859375 -208.125 C 106.984375 -208.125 101.648438 -206.054688 97.859375 -201.921875 C 94.078125 -197.796875 92.1875 -191.722656 92.1875 -183.703125 Z M 92.1875 -179.5625 "/></g></g></g><g fill="#838282" fill-opacity="1"><g transform="translate(742.816484, 333.394154)"><g><path d="M 114.546875 3.09375 C 94.597656 3.09375 76.597656 -1.03125 60.546875 -9.28125 C 44.492188 -17.539062 31.9375 -29.007812 22.875 -43.6875 C 13.8125 -58.363281 9.28125 -74.988281 9.28125 -93.5625 C 9.28125 -111.914062 13.8125 -128.429688 22.875 -143.109375 C 31.9375 -157.785156 44.4375 -169.191406 60.375 -177.328125 C 76.3125 -185.472656 94.367188 -189.546875 114.546875 -189.546875 C 134.734375 -189.546875 152.851562 -185.472656 168.90625 -177.328125 C 184.957031 -169.191406 197.453125 -157.84375 206.390625 -143.28125 C 215.335938 -128.71875 219.8125 -112.144531 219.8125 -93.5625 C 219.8125 -74.988281 215.335938 -58.363281 206.390625 -43.6875 C 197.453125 -29.007812 184.957031 -17.539062 168.90625 -9.28125 C 152.851562 -1.03125 134.734375 3.09375 114.546875 3.09375 Z M 114.546875 -48.84375 C 126.015625 -48.84375 135.414062 -52.796875 142.75 -60.703125 C 150.09375 -68.617188 153.765625 -79.570312 153.765625 -93.5625 C 153.765625 -107.320312 150.09375 -118.097656 142.75 -125.890625 C 135.414062 -133.691406 126.015625 -137.59375 114.546875 -137.59375 C 103.085938 -137.59375 93.6875 -133.691406 86.34375 -125.890625 C 79.007812 -118.097656 75.34375 -107.320312 75.34375 -93.5625 C 75.34375 -79.570312 79.007812 -68.617188 86.34375 -60.703125 C 93.6875 -52.796875 103.085938 -48.84375 114.546875 -48.84375 Z M 114.546875 -48.84375 "/></g></g></g><g fill="#838282" fill-opacity="1"><g transform="translate(937.523218, 333.394154)"><g><path d="M 20.984375 -255.25 L 86.34375 -255.25 L 86.34375 0 L 20.984375 0 Z M 20.984375 -255.25 "/></g></g></g><g fill="#838282" fill-opacity="1"><g transform="translate(1010.795632, 333.394154)"><g><path d="M 20.984375 -186.453125 L 86.34375 -186.453125 L 86.34375 0 L 20.984375 0 Z M 53.65625 -207.09375 C 41.726562 -207.09375 32.09375 -210.414062 24.75 -217.0625 C 17.414062 -223.71875 13.75 -231.972656 13.75 -241.828125 C 13.75 -251.691406 17.414062 -259.945312 24.75 -266.59375 C 32.09375 -273.25 41.726562 -276.578125 53.65625 -276.578125 C 65.582031 -276.578125 75.210938 -273.421875 82.546875 -267.109375 C 89.890625 -260.804688 93.5625 -252.722656 93.5625 -242.859375 C 93.5625 -232.546875 89.890625 -224.003906 82.546875 -217.234375 C 75.210938 -210.472656 65.582031 -207.09375 53.65625 -207.09375 Z M 53.65625 -207.09375 "/></g></g></g><g fill="#838282" fill-opacity="1"><g transform="translate(1084.068149, 333.394154)"><g><path d="M 114.546875 3.09375 C 94.597656 3.09375 76.597656 -1.03125 60.546875 -9.28125 C 44.492188 -17.539062 31.9375 -29.007812 22.875 -43.6875 C 13.8125 -58.363281 9.28125 -74.988281 9.28125 -93.5625 C 9.28125 -111.914062 13.8125 -128.429688 22.875 -143.109375 C 31.9375 -157.785156 44.4375 -169.191406 60.375 -177.328125 C 76.3125 -185.472656 94.367188 -189.546875 114.546875 -189.546875 C 134.734375 -189.546875 152.851562 -185.472656 168.90625 -177.328125 C 184.957031 -169.191406 197.453125 -157.84375 206.390625 -143.28125 C 215.335938 -128.71875 219.8125 -112.144531 219.8125 -93.5625 C 219.8125 -74.988281 215.335938 -58.363281 206.390625 -43.6875 C 197.453125 -29.007812 184.957031 -17.539062 168.90625 -9.28125 C 152.851562 -1.03125 134.734375 3.09375 114.546875 3.09375 Z M 114.546875 -48.84375 C 126.015625 -48.84375 135.414062 -52.796875 142.75 -60.703125 C 150.09375 -68.617188 153.765625 -79.570312 153.765625 -93.5625 C 153.765625 -107.320312 150.09375 -118.097656 142.75 -125.890625 C 135.414062 -133.691406 126.015625 -137.59375 114.546875 -137.59375 C 103.085938 -137.59375 93.6875 -133.691406 86.34375 -125.890625 C 79.007812 -118.097656 75.34375 -107.320312 75.34375 -93.5625 C 75.34375 -79.570312 79.007812 -68.617188 86.34375 -60.703125 C 93.6875 -52.796875 103.085938 -48.84375 114.546875 -48.84375 Z M 114.546875 -48.84375 "/></g></g></g></g></g><g transform="matrix(1, 0, 0, 1, 63, 110)"><g clip-path="url(#f5f4362405)"><g fill="#838282" fill-opacity="1"><g transform="translate(0.799288, 332.967869)"><g><path d="M 138.28125 -189.546875 C 155.257812 -189.546875 170.6875 -185.585938 184.5625 -177.671875 C 198.4375 -169.765625 209.441406 -158.53125 217.578125 -143.96875 C 225.722656 -129.40625 229.796875 -112.488281 229.796875 -93.21875 C 229.796875 -73.957031 225.722656 -57.046875 217.578125 -42.484375 C 209.441406 -27.921875 198.4375 -16.679688 184.5625 -8.765625 C 170.6875 -0.859375 155.257812 3.09375 138.28125 3.09375 C 116.5 3.09375 99.1875 -3.441406 86.34375 -16.515625 L 86.34375 66.734375 L 20.984375 66.734375 L 20.984375 -186.453125 L 83.25 -186.453125 L 83.25 -167.875 C 95.40625 -182.320312 113.75 -189.546875 138.28125 -189.546875 Z M 124.53125 -48.84375 C 136 -48.84375 145.398438 -52.796875 152.734375 -60.703125 C 160.078125 -68.617188 163.75 -79.457031 163.75 -93.21875 C 163.75 -106.976562 160.078125 -117.8125 152.734375 -125.71875 C 145.398438 -133.632812 136 -137.59375 124.53125 -137.59375 C 113.0625 -137.59375 103.65625 -133.632812 96.3125 -125.71875 C 88.976562 -117.8125 85.3125 -106.976562 85.3125 -93.21875 C 85.3125 -79.457031 88.976562 -68.617188 96.3125 -60.703125 C 103.65625 -52.796875 113.0625 -48.84375 124.53125 -48.84375 Z M 124.53125 -48.84375 "/></g></g></g><g fill="#838282" fill-opacity="1"><g transform="translate(205.482073, 332.967869)"><g><path d="M 114.546875 3.09375 C 94.597656 3.09375 76.597656 -1.03125 60.546875 -9.28125 C 44.492188 -17.539062 31.9375 -29.007812 22.875 -43.6875 C 13.8125 -58.363281 9.28125 -74.988281 9.28125 -93.5625 C 9.28125 -111.914062 13.8125 -128.429688 22.875 -143.109375 C 31.9375 -157.785156 44.4375 -169.191406 60.375 -177.328125 C 76.3125 -185.472656 94.367188 -189.546875 114.546875 -189.546875 C 134.734375 -189.546875 152.851562 -185.472656 168.90625 -177.328125 C 184.957031 -169.191406 197.453125 -157.84375 206.390625 -143.28125 C 215.335938 -128.71875 219.8125 -112.144531 219.8125 -93.5625 C 219.8125 -74.988281 215.335938 -58.363281 206.390625 -43.6875 C 197.453125 -29.007812 184.957031 -17.539062 168.90625 -9.28125 C 152.851562 -1.03125 134.734375 3.09375 114.546875 3.09375 Z M 114.546875 -48.84375 C 126.015625 -48.84375 135.414062 -52.796875 142.75 -60.703125 C 150.09375 -68.617188 153.765625 -79.570312 153.765625 -93.5625 C 153.765625 -107.320312 150.09375 -118.097656 142.75 -125.890625 C 135.414062 -133.691406 126.015625 -137.59375 114.546875 -137.59375 C 103.085938 -137.59375 93.6875 -133.691406 86.34375 -125.890625 C 79.007812 -118.097656 75.34375 -107.320312 75.34375 -93.5625 C 75.34375 -79.570312 79.007812 -68.617188 86.34375 -60.703125 C 93.6875 -52.796875 103.085938 -48.84375 114.546875 -48.84375 Z M 114.546875 -48.84375 "/></g></g></g><g fill="#838282" fill-opacity="1"><g transform="translate(400.188756, 332.967869)"><g><path d="M 83.25 -164.09375 C 89.894531 -172.570312 98.550781 -178.929688 109.21875 -183.171875 C 119.882812 -187.421875 132.097656 -189.546875 145.859375 -189.546875 L 145.859375 -130.71875 C 139.890625 -131.40625 134.957031 -131.75 131.0625 -131.75 C 117.070312 -131.75 106.117188 -127.960938 98.203125 -120.390625 C 90.296875 -112.828125 86.34375 -101.25 86.34375 -85.65625 L 86.34375 0 L 20.984375 0 L 20.984375 -186.453125 L 83.25 -186.453125 Z M 83.25 -164.09375 "/></g></g></g><g fill="#838282" fill-opacity="1"><g transform="translate(518.182074, 332.967869)"><g><path d="M 149.640625 -7.5625 C 144.140625 -4.125 137.429688 -1.488281 129.515625 0.34375 C 121.597656 2.175781 113.171875 3.09375 104.234375 3.09375 C 79.921875 3.09375 61.226562 -2.867188 48.15625 -14.796875 C 35.082031 -26.722656 28.546875 -44.492188 28.546875 -68.109375 L 28.546875 -130.71875 L 1.375 -130.71875 L 1.375 -179.5625 L 28.546875 -179.5625 L 28.546875 -228.078125 L 93.90625 -228.078125 L 93.90625 -179.5625 L 136.5625 -179.5625 L 136.5625 -130.71875 L 93.90625 -130.71875 L 93.90625 -68.796875 C 93.90625 -62.148438 95.679688 -56.929688 99.234375 -53.140625 C 102.796875 -49.359375 107.554688 -47.46875 113.515625 -47.46875 C 121.085938 -47.46875 127.738281 -49.414062 133.46875 -53.3125 Z M 149.640625 -7.5625 "/></g></g></g><g fill="#838282" fill-opacity="1"><g transform="translate(637.551405, 332.967869)"><g><path d="M 92.1875 -179.5625 L 136.5625 -179.5625 L 136.5625 -130.71875 L 93.90625 -130.71875 L 93.90625 0 L 28.546875 0 L 28.546875 -130.71875 L 1.375 -130.71875 L 1.375 -179.5625 L 28.546875 -179.5625 L 28.546875 -184.390625 C 28.546875 -207.085938 35.367188 -225.085938 49.015625 -238.390625 C 62.660156 -251.691406 81.753906 -258.34375 106.296875 -258.34375 C 114.554688 -258.34375 122.582031 -257.539062 130.375 -255.9375 C 138.175781 -254.332031 144.597656 -251.925781 149.640625 -248.71875 L 133.46875 -202.609375 C 127.050781 -206.285156 120.515625 -208.125 113.859375 -208.125 C 106.984375 -208.125 101.648438 -206.054688 97.859375 -201.921875 C 94.078125 -197.796875 92.1875 -191.722656 92.1875 -183.703125 Z M 92.1875 -179.5625 "/></g></g></g><g fill="#838282" fill-opacity="1"><g transform="translate(742.816484, 332.967869)"><g><path d="M 114.546875 3.09375 C 94.597656 3.09375 76.597656 -1.03125 60.546875 -9.28125 C 44.492188 -17.539062 31.9375 -29.007812 22.875 -43.6875 C 13.8125 -58.363281 9.28125 -74.988281 9.28125 -93.5625 C 9.28125 -111.914062 13.8125 -128.429688 22.875 -143.109375 C 31.9375 -157.785156 44.4375 -169.191406 60.375 -177.328125 C 76.3125 -185.472656 94.367188 -189.546875 114.546875 -189.546875 C 134.734375 -189.546875 152.851562 -185.472656 168.90625 -177.328125 C 184.957031 -169.191406 197.453125 -157.84375 206.390625 -143.28125 C 215.335938 -128.71875 219.8125 -112.144531 219.8125 -93.5625 C 219.8125 -74.988281 215.335938 -58.363281 206.390625 -43.6875 C 197.453125 -29.007812 184.957031 -17.539062 168.90625 -9.28125 C 152.851562 -1.03125 134.734375 3.09375 114.546875 3.09375 Z M 114.546875 -48.84375 C 126.015625 -48.84375 135.414062 -52.796875 142.75 -60.703125 C 150.09375 -68.617188 153.765625 -79.570312 153.765625 -93.5625 C 153.765625 -107.320312 150.09375 -118.097656 142.75 -125.890625 C 135.414062 -133.691406 126.015625 -137.59375 114.546875 -137.59375 C 103.085938 -137.59375 93.6875 -133.691406 86.34375 -125.890625 C 79.007812 -118.097656 75.34375 -107.320312 75.34375 -93.5625 C 75.34375 -79.570312 79.007812 -68.617188 86.34375 -60.703125 C 93.6875 -52.796875 103.085938 -48.84375 114.546875 -48.84375 Z M 114.546875 -48.84375 "/></g></g></g><g fill="#838282" fill-opacity="1"><g transform="translate(937.523218, 332.967869)"><g><path d="M 20.984375 -255.25 L 86.34375 -255.25 L 86.34375 0 L 20.984375 0 Z M 20.984375 -255.25 "/></g></g></g><g fill="#838282" fill-opacity="1"><g transform="translate(1010.795632, 332.967869)"><g><path d="M 20.984375 -186.453125 L 86.34375 -186.453125 L 86.34375 0 L 20.984375 0 Z M 53.65625 -207.09375 C 41.726562 -207.09375 32.09375 -210.414062 24.75 -217.0625 C 17.414062 -223.71875 13.75 -231.972656 13.75 -241.828125 C 13.75 -251.691406 17.414062 -259.945312 24.75 -266.59375 C 32.09375 -273.25 41.726562 -276.578125 53.65625 -276.578125 C 65.582031 -276.578125 75.210938 -273.421875 82.546875 -267.109375 C 89.890625 -260.804688 93.5625 -252.722656 93.5625 -242.859375 C 93.5625 -232.546875 89.890625 -224.003906 82.546875 -217.234375 C 75.210938 -210.472656 65.582031 -207.09375 53.65625 -207.09375 Z M 53.65625 -207.09375 "/></g></g></g><g fill="#838282" fill-opacity="1"><g transform="translate(1084.068149, 332.967869)"><g><path d="M 114.546875 3.09375 C 94.597656 3.09375 76.597656 -1.03125 60.546875 -9.28125 C 44.492188 -17.539062 31.9375 -29.007812 22.875 -43.6875 C 13.8125 -58.363281 9.28125 -74.988281 9.28125 -93.5625 C 9.28125 -111.914062 13.8125 -128.429688 22.875 -143.109375 C 31.9375 -157.785156 44.4375 -169.191406 60.375 -177.328125 C 76.3125 -185.472656 94.367188 -189.546875 114.546875 -189.546875 C 134.734375 -189.546875 152.851562 -185.472656 168.90625 -177.328125 C 184.957031 -169.191406 197.453125 -157.84375 206.390625 -143.28125 C 215.335938 -128.71875 219.8125 -112.144531 219.8125 -93.5625 C 219.8125 -74.988281 215.335938 -58.363281 206.390625 -43.6875 C 197.453125 -29.007812 184.957031 -17.539062 168.90625 -9.28125 C 152.851562 -1.03125 134.734375 3.09375 114.546875 3.09375 Z M 114.546875 -48.84375 C 126.015625 -48.84375 135.414062 -52.796875 142.75 -60.703125 C 150.09375 -68.617188 153.765625 -79.570312 153.765625 -93.5625 C 153.765625 -107.320312 150.09375 -118.097656 142.75 -125.890625 C 135.414062 -133.691406 126.015625 -137.59375 114.546875 -137.59375 C 103.085938 -137.59375 93.6875 -133.691406 86.34375 -125.890625 C 79.007812 -118.097656 75.34375 -107.320312 75.34375 -93.5625 C 75.34375 -79.570312 79.007812 -68.617188 86.34375 -60.703125 C 93.6875 -52.796875 103.085938 -48.84375 114.546875 -48.84375 Z M 114.546875 -48.84375 "/></g></g></g></g></g><g fill="#1e1e1e" fill-opacity="1"><g transform="translate(277.95212, 463.070241)"><g><path d="M 133.96875 -32.4375 L 133.96875 0 L 14.84375 0 L 14.84375 -148.375 L 131.203125 -148.375 L 131.203125 -115.953125 L 56.390625 -115.953125 L 56.390625 -90.9375 L 122.3125 -90.9375 L 122.3125 -59.5625 L 56.390625 -59.5625 L 56.390625 -32.4375 Z M 133.96875 -32.4375 "/></g></g></g><g fill="#1e1e1e" fill-opacity="1"><g transform="translate(399.200104, 463.070241)"><g><path d="M 165.328125 -148.375 L 101.75 0 L 60.40625 0 L -2.96875 -148.375 L 42.390625 -148.375 L 82.671875 -51.71875 L 123.796875 -148.375 Z M 165.328125 -148.375 "/></g></g></g><g fill="#1e1e1e" fill-opacity="1"><g transform="translate(540.373414, 463.070241)"><g><path d="M 133.96875 -32.4375 L 133.96875 0 L 14.84375 0 L 14.84375 -148.375 L 131.203125 -148.375 L 131.203125 -115.953125 L 56.390625 -115.953125 L 56.390625 -90.9375 L 122.3125 -90.9375 L 122.3125 -59.5625 L 56.390625 -59.5625 L 56.390625 -32.4375 Z M 133.96875 -32.4375 "/></g></g></g><g fill="#1e1e1e" fill-opacity="1"><g transform="translate(661.621409, 463.070241)"><g><path d="M 108.53125 0 L 77.796875 -46 L 47.484375 0 L -0.421875 0 L 53.625 -75.03125 L 1.90625 -148.375 L 49.171875 -148.375 L 78.859375 -105.5625 L 108.109375 -148.375 L 153.46875 -148.375 L 101.75 -76.734375 L 156.859375 0 Z M 108.53125 0 "/></g></g></g><g fill="#1e1e1e" fill-opacity="1"><g transform="translate(796.64754, 463.070241)"><g><path d="M 156.015625 -148.375 L 156.015625 0 L 114.046875 0 L 114.046875 -57.875 L 56.8125 -57.875 L 56.8125 0 L 14.84375 0 L 14.84375 -148.375 L 56.8125 -148.375 L 56.8125 -92.625 L 114.046875 -92.625 L 114.046875 -148.375 Z M 156.015625 -148.375 "/></g></g></g><g fill="#1e1e1e" fill-opacity="1"><g transform="translate(946.299772, 463.070241)"><g><path d="M 14.84375 -148.375 L 56.8125 -148.375 L 56.8125 0 L 14.84375 0 Z M 14.84375 -148.375 "/></g></g></g><g fill="#1e1e1e" fill-opacity="1"><g transform="translate(996.961025, 463.070241)"><g><path d="M 128.875 -77.375 C 137.351562 -74.40625 143.992188 -69.773438 148.796875 -63.484375 C 153.609375 -57.191406 156.015625 -49.597656 156.015625 -40.703125 C 156.015625 -27.703125 150.785156 -17.664062 140.328125 -10.59375 C 129.867188 -3.53125 114.75 0 94.96875 0 L 14.84375 0 L 14.84375 -148.375 L 90.71875 -148.375 C 109.65625 -148.375 124.066406 -144.875 133.953125 -137.875 C 143.847656 -130.882812 148.796875 -121.457031 148.796875 -109.59375 C 148.796875 -102.519531 147.066406 -96.191406 143.609375 -90.609375 C 140.148438 -85.035156 135.238281 -80.625 128.875 -77.375 Z M 56.390625 -118.0625 L 56.390625 -89.453125 L 85.21875 -89.453125 C 99.34375 -89.453125 106.40625 -94.253906 106.40625 -103.859375 C 106.40625 -113.328125 99.34375 -118.0625 85.21875 -118.0625 Z M 91.578125 -30.3125 C 106.265625 -30.3125 113.609375 -35.328125 113.609375 -45.359375 C 113.609375 -55.390625 106.265625 -60.40625 91.578125 -60.40625 L 56.390625 -60.40625 L 56.390625 -30.3125 Z M 91.578125 -30.3125 "/></g></g></g><g fill="#1e1e1e" fill-opacity="1"><g transform="translate(1138.770252, 463.070241)"><g><path d="M 14.84375 -148.375 L 56.8125 -148.375 L 56.8125 0 L 14.84375 0 Z M 14.84375 -148.375 "/></g></g></g><g fill="#1e1e1e" fill-opacity="1"><g transform="translate(1189.431505, 463.070241)"><g><path d="M 46.421875 -115.09375 L 0.84375 -115.09375 L 0.84375 -148.375 L 133.75 -148.375 L 133.75 -115.09375 L 88.390625 -115.09375 L 88.390625 0 L 46.421875 0 Z M 46.421875 -115.09375 "/></g></g></g><g fill="#1e1e1e" fill-opacity="1"><g transform="translate(81.000002, 99.600001)"><g><path d="M 8.109375 -14.703125 C 9.410156 -14.703125 10.539062 -14.484375 11.5 -14.046875 C 12.457031 -13.609375 13.191406 -12.988281 13.703125 -12.1875 C 14.222656 -11.394531 14.484375 -10.453125 14.484375 -9.359375 C 14.484375 -8.285156 14.222656 -7.34375 13.703125 -6.53125 C 13.191406 -5.726562 12.457031 -5.113281 11.5 -4.6875 C 10.539062 -4.257812 9.410156 -4.046875 8.109375 -4.046875 L 5.140625 -4.046875 L 5.140625 0 L 1.75 0 L 1.75 -14.703125 Z M 7.921875 -6.828125 C 8.941406 -6.828125 9.71875 -7.046875 10.25 -7.484375 C 10.78125 -7.921875 11.046875 -8.546875 11.046875 -9.359375 C 11.046875 -10.191406 10.78125 -10.828125 10.25 -11.265625 C 9.71875 -11.703125 8.941406 -11.921875 7.921875 -11.921875 L 5.140625 -11.921875 L 5.140625 -6.828125 Z M 7.921875 -6.828125 "/></g></g></g><g fill="#1e1e1e" fill-opacity="1"><g transform="translate(95.103448, 99.600001)"><g><path d="M 8.859375 0.25 C 7.335938 0.25 5.960938 -0.078125 4.734375 -0.734375 C 3.503906 -1.390625 2.539062 -2.296875 1.84375 -3.453125 C 1.15625 -4.609375 0.8125 -5.90625 0.8125 -7.34375 C 0.8125 -8.789062 1.15625 -10.09375 1.84375 -11.25 C 2.539062 -12.40625 3.503906 -13.3125 4.734375 -13.96875 C 5.960938 -14.625 7.335938 -14.953125 8.859375 -14.953125 C 10.390625 -14.953125 11.765625 -14.625 12.984375 -13.96875 C 14.203125 -13.3125 15.160156 -12.40625 15.859375 -11.25 C 16.554688 -10.09375 16.90625 -8.789062 16.90625 -7.34375 C 16.90625 -5.90625 16.554688 -4.609375 15.859375 -3.453125 C 15.160156 -2.296875 14.203125 -1.390625 12.984375 -0.734375 C 11.765625 -0.078125 10.390625 0.25 8.859375 0.25 Z M 8.859375 -2.640625 C 9.722656 -2.640625 10.503906 -2.835938 11.203125 -3.234375 C 11.910156 -3.640625 12.460938 -4.195312 12.859375 -4.90625 C 13.265625 -5.625 13.46875 -6.4375 13.46875 -7.34375 C 13.46875 -8.257812 13.265625 -9.070312 12.859375 -9.78125 C 12.460938 -10.5 11.910156 -11.054688 11.203125 -11.453125 C 10.503906 -11.847656 9.722656 -12.046875 8.859375 -12.046875 C 7.992188 -12.046875 7.207031 -11.847656 6.5 -11.453125 C 5.800781 -11.054688 5.253906 -10.5 4.859375 -9.78125 C 4.460938 -9.070312 4.265625 -8.257812 4.265625 -7.34375 C 4.265625 -6.4375 4.460938 -5.625 4.859375 -4.90625 C 5.253906 -4.195312 5.800781 -3.640625 6.5 -3.234375 C 7.207031 -2.835938 7.992188 -2.640625 8.859375 -2.640625 Z M 8.859375 -2.640625 "/></g></g></g><g fill="#1e1e1e" fill-opacity="1"><g transform="translate(111.55758, 99.600001)"><g><path d="M 11.109375 0 L 8.28125 -4.09375 L 5.140625 -4.09375 L 5.140625 0 L 1.75 0 L 1.75 -14.703125 L 8.109375 -14.703125 C 9.410156 -14.703125 10.539062 -14.484375 11.5 -14.046875 C 12.457031 -13.609375 13.191406 -12.988281 13.703125 -12.1875 C 14.222656 -11.394531 14.484375 -10.453125 14.484375 -9.359375 C 14.484375 -8.273438 14.222656 -7.335938 13.703125 -6.546875 C 13.179688 -5.753906 12.4375 -5.144531 11.46875 -4.71875 L 14.765625 0 Z M 11.046875 -9.359375 C 11.046875 -10.191406 10.78125 -10.828125 10.25 -11.265625 C 9.71875 -11.703125 8.941406 -11.921875 7.921875 -11.921875 L 5.140625 -11.921875 L 5.140625 -6.796875 L 7.921875 -6.796875 C 8.941406 -6.796875 9.71875 -7.019531 10.25 -7.46875 C 10.78125 -7.914062 11.046875 -8.546875 11.046875 -9.359375 Z M 11.046875 -9.359375 "/></g></g></g><g fill="#1e1e1e" fill-opacity="1"><g transform="translate(125.723992, 99.600001)"><g><path d="M 4.78125 -11.921875 L 0.078125 -11.921875 L 0.078125 -14.703125 L 12.890625 -14.703125 L 12.890625 -11.921875 L 8.1875 -11.921875 L 8.1875 0 L 4.78125 0 Z M 4.78125 -11.921875 "/></g></g></g><g fill="#1e1e1e" fill-opacity="1"><g transform="translate(137.434765, 99.600001)"><g><path d="M 5.140625 -11.96875 L 5.140625 -8.078125 L 11.953125 -8.078125 L 11.953125 -5.359375 L 5.140625 -5.359375 L 5.140625 0 L 1.75 0 L 1.75 -14.703125 L 12.859375 -14.703125 L 12.859375 -11.96875 Z M 5.140625 -11.96875 "/></g></g></g><g fill="#1e1e1e" fill-opacity="1"><g transform="translate(149.586295, 99.600001)"><g><path d="M 8.859375 0.25 C 7.335938 0.25 5.960938 -0.078125 4.734375 -0.734375 C 3.503906 -1.390625 2.539062 -2.296875 1.84375 -3.453125 C 1.15625 -4.609375 0.8125 -5.90625 0.8125 -7.34375 C 0.8125 -8.789062 1.15625 -10.09375 1.84375 -11.25 C 2.539062 -12.40625 3.503906 -13.3125 4.734375 -13.96875 C 5.960938 -14.625 7.335938 -14.953125 8.859375 -14.953125 C 10.390625 -14.953125 11.765625 -14.625 12.984375 -13.96875 C 14.203125 -13.3125 15.160156 -12.40625 15.859375 -11.25 C 16.554688 -10.09375 16.90625 -8.789062 16.90625 -7.34375 C 16.90625 -5.90625 16.554688 -4.609375 15.859375 -3.453125 C 15.160156 -2.296875 14.203125 -1.390625 12.984375 -0.734375 C 11.765625 -0.078125 10.390625 0.25 8.859375 0.25 Z M 8.859375 -2.640625 C 9.722656 -2.640625 10.503906 -2.835938 11.203125 -3.234375 C 11.910156 -3.640625 12.460938 -4.195312 12.859375 -4.90625 C 13.265625 -5.625 13.46875 -6.4375 13.46875 -7.34375 C 13.46875 -8.257812 13.265625 -9.070312 12.859375 -9.78125 C 12.460938 -10.5 11.910156 -11.054688 11.203125 -11.453125 C 10.503906 -11.847656 9.722656 -12.046875 8.859375 -12.046875 C 7.992188 -12.046875 7.207031 -11.847656 6.5 -11.453125 C 5.800781 -11.054688 5.253906 -10.5 4.859375 -9.78125 C 4.460938 -9.070312 4.265625 -8.257812 4.265625 -7.34375 C 4.265625 -6.4375 4.460938 -5.625 4.859375 -4.90625 C 5.253906 -4.195312 5.800781 -3.640625 6.5 -3.234375 C 7.207031 -2.835938 7.992188 -2.640625 8.859375 -2.640625 Z M 8.859375 -2.640625 "/></g></g></g><g fill="#1e1e1e" fill-opacity="1"><g transform="translate(166.040427, 99.600001)"><g><path d="M 1.75 -14.703125 L 5.140625 -14.703125 L 5.140625 -2.765625 L 12.515625 -2.765625 L 12.515625 0 L 1.75 0 Z M 1.75 -14.703125 "/></g></g></g><g fill="#1e1e1e" fill-opacity="1"><g transform="translate(177.457372, 99.600001)"><g><path d="M 1.75 -14.703125 L 5.140625 -14.703125 L 5.140625 0 L 1.75 0 Z M 1.75 -14.703125 "/></g></g></g><g fill="#1e1e1e" fill-opacity="1"><g transform="translate(183.081548, 99.600001)"><g><path d="M 8.859375 0.25 C 7.335938 0.25 5.960938 -0.078125 4.734375 -0.734375 C 3.503906 -1.390625 2.539062 -2.296875 1.84375 -3.453125 C 1.15625 -4.609375 0.8125 -5.90625 0.8125 -7.34375 C 0.8125 -8.789062 1.15625 -10.09375 1.84375 -11.25 C 2.539062 -12.40625 3.503906 -13.3125 4.734375 -13.96875 C 5.960938 -14.625 7.335938 -14.953125 8.859375 -14.953125 C 10.390625 -14.953125 11.765625 -14.625 12.984375 -13.96875 C 14.203125 -13.3125 15.160156 -12.40625 15.859375 -11.25 C 16.554688 -10.09375 16.90625 -8.789062 16.90625 -7.34375 C 16.90625 -5.90625 16.554688 -4.609375 15.859375 -3.453125 C 15.160156 -2.296875 14.203125 -1.390625 12.984375 -0.734375 C 11.765625 -0.078125 10.390625 0.25 8.859375 0.25 Z M 8.859375 -2.640625 C 9.722656 -2.640625 10.503906 -2.835938 11.203125 -3.234375 C 11.910156 -3.640625 12.460938 -4.195312 12.859375 -4.90625 C 13.265625 -5.625 13.46875 -6.4375 13.46875 -7.34375 C 13.46875 -8.257812 13.265625 -9.070312 12.859375 -9.78125 C 12.460938 -10.5 11.910156 -11.054688 11.203125 -11.453125 C 10.503906 -11.847656 9.722656 -12.046875 8.859375 -12.046875 C 7.992188 -12.046875 7.207031 -11.847656 6.5 -11.453125 C 5.800781 -11.054688 5.253906 -10.5 4.859375 -9.78125 C 4.460938 -9.070312 4.265625 -8.257812 4.265625 -7.34375 C 4.265625 -6.4375 4.460938 -5.625 4.859375 -4.90625 C 5.253906 -4.195312 5.800781 -3.640625 6.5 -3.234375 C 7.207031 -2.835938 7.992188 -2.640625 8.859375 -2.640625 Z M 8.859375 -2.640625 "/></g></g></g><g clip-path="url(#a55360c4f1)"><path fill="#1e1e1e" d="M 230.683594 98.78125 L 235.613281 93.851562 C 235.957031 93.511719 235.957031 92.949219 235.613281 92.605469 L 230.683594 87.664062 C 230.34375 87.324219 229.78125 87.324219 229.4375 87.664062 C 229.097656 88.007812 229.097656 88.570312 229.4375 88.910156 L 232.867188 92.34375 L 211.878906 92.34375 C 211.394531 92.34375 210.996094 92.738281 210.996094 93.222656 C 210.996094 93.710938 211.394531 94.105469 211.878906 94.105469 L 232.855469 94.105469 L 229.425781 97.535156 C 229.25 97.710938 229.171875 97.933594 229.171875 98.164062 C 229.171875 98.398438 229.261719 98.617188 229.425781 98.792969 C 229.78125 99.125 230.34375 99.125 230.683594 98.78125 Z M 230.683594 98.78125 " fill-opacity="1" fill-rule="nonzero"/></g><g fill="#1e1e1e" fill-opacity="1"><g transform="translate(252.61183, 98.100001)"><g><path d="M 5.65625 -3.875 L 5.65625 0 L 4.5 0 L 4.5 -3.875 L 0.015625 -11.203125 L 1.28125 -11.203125 L 5.125 -4.90625 L 8.953125 -11.203125 L 10.140625 -11.203125 Z M 5.65625 -3.875 "/></g></g></g><g fill="#1e1e1e" fill-opacity="1"><g transform="translate(261.809401, 98.100001)"><g><path d="M 11.140625 -11.203125 L 6.171875 0 L 5.015625 0 L 0.046875 -11.203125 L 1.328125 -11.203125 L 5.609375 -1.46875 L 9.9375 -11.203125 Z M 11.140625 -11.203125 "/></g></g></g><g fill="#1e1e1e" fill-opacity="1"><g transform="translate(272.014726, 98.100001)"><g><path d="M 9.75 -1.03125 L 9.75 0 L 1.828125 0 L 1.828125 -11.203125 L 9.5 -11.203125 L 9.5 -10.171875 L 3.015625 -10.171875 L 3.015625 -6.1875 L 8.796875 -6.1875 L 8.796875 -5.1875 L 3.015625 -5.1875 L 3.015625 -1.03125 Z M 9.75 -1.03125 "/></g></g></g><g fill="#1e1e1e" fill-opacity="1"><g transform="translate(281.756165, 98.100001)"><g><path d="M 4 -10.171875 L 0.0625 -10.171875 L 0.0625 -11.203125 L 9.125 -11.203125 L 9.125 -10.171875 L 5.1875 -10.171875 L 5.1875 0 L 4 0 Z M 4 -10.171875 "/></g></g></g><g fill="#1e1e1e" fill-opacity="1"><g transform="translate(289.977967, 98.100001)"><g><path d="M 4 -10.171875 L 0.0625 -10.171875 L 0.0625 -11.203125 L 9.125 -11.203125 L 9.125 -10.171875 L 5.1875 -10.171875 L 5.1875 0 L 4 0 Z M 4 -10.171875 "/></g></g></g><g fill="#1e1e1e" fill-opacity="1"><g transform="translate(298.199768, 98.100001)"><g><path d="M 9.75 -1.03125 L 9.75 0 L 1.828125 0 L 1.828125 -11.203125 L 9.5 -11.203125 L 9.5 -10.171875 L 3.015625 -10.171875 L 3.015625 -6.1875 L 8.796875 -6.1875 L 8.796875 -5.1875 L 3.015625 -5.1875 L 3.015625 -1.03125 Z M 9.75 -1.03125 "/></g></g></g><g fill="#1e1e1e" fill-opacity="1"><g transform="translate(307.941207, 98.100001)"><g/></g></g><g fill="#1e1e1e" fill-opacity="1"><g transform="translate(311.172218, 98.100001)"><g><path d="M 1.828125 -11.203125 L 3.015625 -11.203125 L 3.015625 -1.03125 L 9.28125 -1.03125 L 9.28125 0 L 1.828125 0 Z M 1.828125 -11.203125 "/></g></g></g><g fill="#1e1e1e" fill-opacity="1"><g transform="translate(319.633967, 98.100001)"><g><path d="M 8.84375 -2.984375 L 2.609375 -2.984375 L 1.265625 0 L 0.03125 0 L 5.15625 -11.203125 L 6.3125 -11.203125 L 11.4375 0 L 10.1875 0 Z M 8.421875 -3.953125 L 5.734375 -9.96875 L 3.046875 -3.953125 Z M 8.421875 -3.953125 "/></g></g></g><g fill="#1e1e1e" fill-opacity="1"><g transform="translate(330.143225, 98.100001)"><g><path d="M 4.90625 0.09375 C 4.070312 0.09375 3.273438 -0.0351562 2.515625 -0.296875 C 1.753906 -0.566406 1.164062 -0.921875 0.75 -1.359375 L 1.21875 -2.265625 C 1.625 -1.859375 2.160156 -1.53125 2.828125 -1.28125 C 3.503906 -1.03125 4.195312 -0.90625 4.90625 -0.90625 C 5.914062 -0.90625 6.671875 -1.085938 7.171875 -1.453125 C 7.671875 -1.828125 7.921875 -2.304688 7.921875 -2.890625 C 7.921875 -3.335938 7.785156 -3.695312 7.515625 -3.96875 C 7.242188 -4.238281 6.910156 -4.441406 6.515625 -4.578125 C 6.117188 -4.722656 5.566406 -4.882812 4.859375 -5.0625 C 4.015625 -5.269531 3.34375 -5.472656 2.84375 -5.671875 C 2.34375 -5.867188 1.914062 -6.171875 1.5625 -6.578125 C 1.207031 -6.984375 1.03125 -7.53125 1.03125 -8.21875 C 1.03125 -8.789062 1.175781 -9.304688 1.46875 -9.765625 C 1.769531 -10.234375 2.226562 -10.601562 2.84375 -10.875 C 3.46875 -11.15625 4.238281 -11.296875 5.15625 -11.296875 C 5.789062 -11.296875 6.414062 -11.207031 7.03125 -11.03125 C 7.644531 -10.851562 8.175781 -10.609375 8.625 -10.296875 L 8.21875 -9.359375 C 7.75 -9.671875 7.25 -9.898438 6.71875 -10.046875 C 6.1875 -10.203125 5.664062 -10.28125 5.15625 -10.28125 C 4.175781 -10.28125 3.4375 -10.09375 2.9375 -9.71875 C 2.4375 -9.34375 2.1875 -8.851562 2.1875 -8.25 C 2.1875 -7.800781 2.320312 -7.441406 2.59375 -7.171875 C 2.875 -6.898438 3.21875 -6.691406 3.625 -6.546875 C 4.03125 -6.410156 4.582031 -6.253906 5.28125 -6.078125 C 6.101562 -5.878906 6.765625 -5.679688 7.265625 -5.484375 C 7.773438 -5.285156 8.207031 -4.984375 8.5625 -4.578125 C 8.914062 -4.179688 9.09375 -3.640625 9.09375 -2.953125 C 9.09375 -2.390625 8.9375 -1.875 8.625 -1.40625 C 8.320312 -0.945312 7.851562 -0.582031 7.21875 -0.3125 C 6.59375 -0.0390625 5.820312 0.09375 4.90625 0.09375 Z M 4.90625 0.09375 "/></g></g></g><g fill="#1e1e1e" fill-opacity="1"><g transform="translate(339.020876, 98.100001)"><g><path d="M 4 -10.171875 L 0.0625 -10.171875 L 0.0625 -11.203125 L 9.125 -11.203125 L 9.125 -10.171875 L 5.1875 -10.171875 L 5.1875 0 L 4 0 Z M 4 -10.171875 "/></g></g></g><g fill="#1e1e1e" fill-opacity="1"><g transform="translate(347.242677, 98.100001)"><g><path d="M 1.828125 -11.203125 L 3.015625 -11.203125 L 3.015625 0 L 1.828125 0 Z M 1.828125 -11.203125 "/></g></g></g><g fill="#1e1e1e" fill-opacity="1"><g transform="translate(351.113527, 98.100001)"><g><path d="M 6.6875 0.09375 C 5.582031 0.09375 4.582031 -0.148438 3.6875 -0.640625 C 2.800781 -1.128906 2.101562 -1.804688 1.59375 -2.671875 C 1.082031 -3.546875 0.828125 -4.519531 0.828125 -5.59375 C 0.828125 -6.675781 1.082031 -7.648438 1.59375 -8.515625 C 2.101562 -9.390625 2.804688 -10.070312 3.703125 -10.5625 C 4.597656 -11.050781 5.597656 -11.296875 6.703125 -11.296875 C 7.535156 -11.296875 8.300781 -11.15625 9 -10.875 C 9.707031 -10.601562 10.304688 -10.195312 10.796875 -9.65625 L 10.046875 -8.90625 C 9.171875 -9.789062 8.066406 -10.234375 6.734375 -10.234375 C 5.847656 -10.234375 5.039062 -10.03125 4.3125 -9.625 C 3.59375 -9.226562 3.023438 -8.675781 2.609375 -7.96875 C 2.203125 -7.257812 2 -6.46875 2 -5.59375 C 2 -4.71875 2.203125 -3.925781 2.609375 -3.21875 C 3.023438 -2.519531 3.59375 -1.96875 4.3125 -1.5625 C 5.039062 -1.15625 5.847656 -0.953125 6.734375 -0.953125 C 8.078125 -0.953125 9.179688 -1.398438 10.046875 -2.296875 L 10.796875 -1.546875 C 10.304688 -1.015625 9.707031 -0.609375 9 -0.328125 C 8.289062 -0.046875 7.519531 0.09375 6.6875 0.09375 Z M 6.6875 0.09375 "/></g></g></g><g fill="#1e1e1e" fill-opacity="1"><g transform="translate(361.654771, 98.100001)"><g><path d="M 8.84375 -2.984375 L 2.609375 -2.984375 L 1.265625 0 L 0.03125 0 L 5.15625 -11.203125 L 6.3125 -11.203125 L 11.4375 0 L 10.1875 0 Z M 8.421875 -3.953125 L 5.734375 -9.96875 L 3.046875 -3.953125 Z M 8.421875 -3.953125 "/></g></g></g></svg>