<svg xmlns="http://www.w3.org/2000/svg" xmlns:xlink="http://www.w3.org/1999/xlink" width="1920" zoomAndPan="magnify" viewBox="0 0 1440 809.999993" height="1080" preserveAspectRatio="xMidYMid meet" version="1.0"><defs><g/><clipPath id="25ea2bab1f"><path d="M 0 105 L 75 105 L 75 337 L 0 337 Z M 0 105 " clip-rule="nonzero"/></clipPath><clipPath id="b95442cb79"><path d="M 1297 146 L 1440 146 L 1440 337 L 1297 337 Z M 1297 146 " clip-rule="nonzero"/></clipPath><clipPath id="d9f19665fa"><rect x="0" width="1440" y="0" height="421"/></clipPath><clipPath id="ad240b9cc0"><path d="M 0 105 L 75 105 L 75 337 L 0 337 Z M 0 105 " clip-rule="nonzero"/></clipPath><clipPath id="2cbedac6a7"><path d="M 1297 146 L 1440 146 L 1440 337 L 1297 337 Z M 1297 146 " clip-rule="nonzero"/></clipPath><clipPath id="df40a57644"><rect x="0" width="1440" y="0" height="421"/></clipPath><clipPath id="736df1e598"><path d="M 0 105 L 75 105 L 75 337 L 0 337 Z M 0 105 " clip-rule="nonzero"/></clipPath><clipPath id="c197c80ec3"><path d="M 1297 146 L 1440 146 L 1440 337 L 1297 337 Z M 1297 146 " clip-rule="nonzero"/></clipPath><clipPath id="7730364214"><rect x="0" width="1440" y="0" height="421"/></clipPath><clipPath id="ecffeae65d"><path d="M 0 104 L 75 104 L 75 337 L 0 337 Z M 0 104 " clip-rule="nonzero"/></clipPath><clipPath id="edfbdf7512"><path d="M 1297 146 L 1440 146 L 1440 337 L 1297 337 Z M 1297 146 " clip-rule="nonzero"/></clipPath><clipPath id="ef2749c850"><rect x="0" width="1440" y="0" height="420"/></clipPath><clipPath id="447b99c2de"><path d="M 0 104 L 75 104 L 75 336 L 0 336 Z M 0 104 " clip-rule="nonzero"/></clipPath><clipPath id="6e4d1b0d24"><path d="M 1297 146 L 1440 146 L 1440 336 L 1297 336 Z M 1297 146 " clip-rule="nonzero"/></clipPath><clipPath id="6ee49998f1"><rect x="0" width="1440" y="0" height="420"/></clipPath><clipPath id="fec4f78026"><path d="M 187.304688 75.097656 L 212.054688 75.097656 L 212.054688 87 L 187.304688 87 Z M 187.304688 75.097656 " clip-rule="nonzero"/></clipPath></defs><rect x="-144" width="1728" fill="#ffffff" y="-80.999999" height="971.999992" fill-opacity="1"/><rect x="-144" width="1728" fill="#f6f6f6" y="-80.999999" height="971.999992" fill-opacity="1"/><g transform="matrix(1, 0, 0, 1, 0, 43)"><g clip-path="url(#d9f19665fa)"><g clip-path="url(#25ea2bab1f)"><g fill="#b6b5b5" fill-opacity="1"><g transform="translate(-75.004628, 333.254758)"><g><path d="M 149.640625 -7.5625 C 144.140625 -4.125 137.429688 -1.488281 129.515625 0.34375 C 121.597656 2.175781 113.171875 3.09375 104.234375 3.09375 C 79.921875 3.09375 61.226562 -2.867188 48.15625 -14.796875 C 35.082031 -26.722656 28.546875 -44.492188 28.546875 -68.109375 L 28.546875 -130.71875 L 1.375 -130.71875 L 1.375 -179.5625 L 28.546875 -179.5625 L 28.546875 -228.078125 L 93.90625 -228.078125 L 93.90625 -179.5625 L 136.5625 -179.5625 L 136.5625 -130.71875 L 93.90625 -130.71875 L 93.90625 -68.796875 C 93.90625 -62.148438 95.679688 -56.929688 99.234375 -53.140625 C 102.796875 -49.359375 107.554688 -47.46875 113.515625 -47.46875 C 121.085938 -47.46875 127.738281 -49.414062 133.46875 -53.3125 Z M 149.640625 -7.5625 "/></g></g></g></g><g fill="#b6b5b5" fill-opacity="1"><g transform="translate(44.364703, 333.254758)"><g><path d="M 142.421875 -189.546875 C 165.578125 -189.546875 184.207031 -182.664062 198.3125 -168.90625 C 212.414062 -155.144531 219.46875 -134.390625 219.46875 -106.640625 L 219.46875 0 L 154.109375 0 L 154.109375 -95.96875 C 154.109375 -121.425781 143.90625 -134.15625 123.5 -134.15625 C 112.257812 -134.15625 103.253906 -130.484375 96.484375 -123.140625 C 89.722656 -115.804688 86.34375 -104.800781 86.34375 -90.125 L 86.34375 0 L 20.984375 0 L 20.984375 -255.25 L 86.34375 -255.25 L 86.34375 -169.25 C 93.457031 -175.894531 101.828125 -180.9375 111.453125 -184.375 C 121.085938 -187.820312 131.410156 -189.546875 142.421875 -189.546875 Z M 142.421875 -189.546875 "/></g></g></g><g fill="#b6b5b5" fill-opacity="1"><g transform="translate(249.391554, 333.254758)"><g><path d="M 100.453125 -189.546875 C 131.410156 -189.546875 155.03125 -182.492188 171.3125 -168.390625 C 187.59375 -154.285156 195.734375 -132.671875 195.734375 -103.546875 L 195.734375 0 L 134.84375 0 L 134.84375 -24.078125 C 125.445312 -5.960938 107.101562 3.09375 79.8125 3.09375 C 65.363281 3.09375 52.863281 0.570312 42.3125 -4.46875 C 31.757812 -9.519531 23.785156 -16.34375 18.390625 -24.9375 C 13.003906 -33.539062 10.3125 -43.347656 10.3125 -54.359375 C 10.3125 -72.015625 17.078125 -85.710938 30.609375 -95.453125 C 44.140625 -105.203125 65.007812 -110.078125 93.21875 -110.078125 L 130.375 -110.078125 C 129.226562 -129.796875 116.039062 -139.65625 90.8125 -139.65625 C 81.875 -139.65625 72.816406 -138.222656 63.640625 -135.359375 C 54.460938 -132.492188 46.664062 -128.539062 40.25 -123.5 L 18.234375 -167.875 C 28.554688 -174.75 41.113281 -180.078125 55.90625 -183.859375 C 70.695312 -187.648438 85.546875 -189.546875 100.453125 -189.546875 Z M 98.046875 -38.1875 C 105.609375 -38.1875 112.253906 -40.019531 117.984375 -43.6875 C 123.722656 -47.351562 127.851562 -52.742188 130.375 -59.859375 L 130.375 -76.03125 L 102.171875 -76.03125 C 83.128906 -76.03125 73.609375 -69.722656 73.609375 -57.109375 C 73.609375 -51.367188 75.785156 -46.78125 80.140625 -43.34375 C 84.503906 -39.90625 90.472656 -38.1875 98.046875 -38.1875 Z M 98.046875 -38.1875 "/></g></g></g><g fill="#b6b5b5" fill-opacity="1"><g transform="translate(431.025932, 333.254758)"><g><path d="M 142.421875 -189.546875 C 165.578125 -189.546875 184.207031 -182.664062 198.3125 -168.90625 C 212.414062 -155.144531 219.46875 -134.390625 219.46875 -106.640625 L 219.46875 0 L 154.109375 0 L 154.109375 -95.96875 C 154.109375 -121.425781 143.90625 -134.15625 123.5 -134.15625 C 112.257812 -134.15625 103.253906 -130.484375 96.484375 -123.140625 C 89.722656 -115.804688 86.34375 -104.800781 86.34375 -90.125 L 86.34375 0 L 20.984375 0 L 20.984375 -186.453125 L 83.25 -186.453125 L 83.25 -166.15625 C 90.582031 -173.71875 99.296875 -179.503906 109.390625 -183.515625 C 119.484375 -187.535156 130.492188 -189.546875 142.421875 -189.546875 Z M 142.421875 -189.546875 "/></g></g></g><g fill="#b6b5b5" fill-opacity="1"><g transform="translate(636.052809, 333.254758)"><g><path d="M 105.609375 -65.359375 L 86.34375 -45.75 L 86.34375 0 L 20.984375 0 L 20.984375 -255.25 L 86.34375 -255.25 L 86.34375 -121.4375 L 153.078125 -186.453125 L 230.484375 -186.453125 L 153.078125 -106.640625 L 237.015625 0 L 157.890625 0 Z M 105.609375 -65.359375 "/></g></g></g><g fill="#b6b5b5" fill-opacity="1"><g transform="translate(837.639533, 333.254758)"><g/></g></g><g fill="#b6b5b5" fill-opacity="1"><g transform="translate(903.343935, 333.254758)"><g><path d="M 217.40625 -186.453125 L 136.90625 7.5625 C 127.507812 30.5 116.046875 46.609375 102.515625 55.890625 C 88.984375 65.179688 72.46875 69.828125 52.96875 69.828125 C 43.113281 69.828125 33.195312 68.28125 23.21875 65.1875 C 13.238281 62.09375 5.15625 58.019531 -1.03125 52.96875 L 21.671875 7.21875 C 25.335938 10.664062 29.75 13.363281 34.90625 15.3125 C 40.070312 17.257812 45.289062 18.234375 50.5625 18.234375 C 56.757812 18.234375 61.863281 16.96875 65.875 14.4375 C 69.882812 11.914062 73.269531 7.90625 76.03125 2.40625 L -3.78125 -186.453125 L 63.296875 -186.453125 L 109.046875 -72.578125 L 155.140625 -186.453125 Z M 217.40625 -186.453125 "/></g></g></g><g fill="#b6b5b5" fill-opacity="1"><g transform="translate(1082.226208, 333.254758)"><g><path d="M 114.546875 3.09375 C 94.597656 3.09375 76.597656 -1.03125 60.546875 -9.28125 C 44.492188 -17.539062 31.9375 -29.007812 22.875 -43.6875 C 13.8125 -58.363281 9.28125 -74.988281 9.28125 -93.5625 C 9.28125 -111.914062 13.8125 -128.429688 22.875 -143.109375 C 31.9375 -157.785156 44.4375 -169.191406 60.375 -177.328125 C 76.3125 -185.472656 94.367188 -189.546875 114.546875 -189.546875 C 134.734375 -189.546875 152.851562 -185.472656 168.90625 -177.328125 C 184.957031 -169.191406 197.453125 -157.84375 206.390625 -143.28125 C 215.335938 -128.71875 219.8125 -112.144531 219.8125 -93.5625 C 219.8125 -74.988281 215.335938 -58.363281 206.390625 -43.6875 C 197.453125 -29.007812 184.957031 -17.539062 168.90625 -9.28125 C 152.851562 -1.03125 134.734375 3.09375 114.546875 3.09375 Z M 114.546875 -48.84375 C 126.015625 -48.84375 135.414062 -52.796875 142.75 -60.703125 C 150.09375 -68.617188 153.765625 -79.570312 153.765625 -93.5625 C 153.765625 -107.320312 150.09375 -118.097656 142.75 -125.890625 C 135.414062 -133.691406 126.015625 -137.59375 114.546875 -137.59375 C 103.085938 -137.59375 93.6875 -133.691406 86.34375 -125.890625 C 79.007812 -118.097656 75.34375 -107.320312 75.34375 -93.5625 C 75.34375 -79.570312 79.007812 -68.617188 86.34375 -60.703125 C 93.6875 -52.796875 103.085938 -48.84375 114.546875 -48.84375 Z M 114.546875 -48.84375 "/></g></g></g><g clip-path="url(#b95442cb79)"><g fill="#b6b5b5" fill-opacity="1"><g transform="translate(1276.932942, 333.254758)"><g><path d="M 217.0625 -186.453125 L 217.0625 0 L 154.796875 0 L 154.796875 -19.953125 C 147.921875 -12.378906 139.664062 -6.644531 130.03125 -2.75 C 120.394531 1.144531 110.191406 3.09375 99.421875 3.09375 C 75.335938 3.09375 56.128906 -4.015625 41.796875 -18.234375 C 27.460938 -32.453125 20.296875 -53.78125 20.296875 -82.21875 L 20.296875 -186.453125 L 85.65625 -186.453125 L 85.65625 -92.875 C 85.65625 -78.882812 88.289062 -68.675781 93.5625 -62.25 C 98.84375 -55.832031 106.523438 -52.625 116.609375 -52.625 C 126.929688 -52.625 135.359375 -56.234375 141.890625 -63.453125 C 148.429688 -70.679688 151.703125 -81.75 151.703125 -96.65625 L 151.703125 -186.453125 Z M 217.0625 -186.453125 "/></g></g></g></g></g></g><g transform="matrix(1, 0, 0, 1, 0, 310)"><g clip-path="url(#df40a57644)"><g clip-path="url(#ad240b9cc0)"><g fill="#b6b5b5" fill-opacity="1"><g transform="translate(-75.004628, 333.107322)"><g><path d="M 149.640625 -7.5625 C 144.140625 -4.125 137.429688 -1.488281 129.515625 0.34375 C 121.597656 2.175781 113.171875 3.09375 104.234375 3.09375 C 79.921875 3.09375 61.226562 -2.867188 48.15625 -14.796875 C 35.082031 -26.722656 28.546875 -44.492188 28.546875 -68.109375 L 28.546875 -130.71875 L 1.375 -130.71875 L 1.375 -179.5625 L 28.546875 -179.5625 L 28.546875 -228.078125 L 93.90625 -228.078125 L 93.90625 -179.5625 L 136.5625 -179.5625 L 136.5625 -130.71875 L 93.90625 -130.71875 L 93.90625 -68.796875 C 93.90625 -62.148438 95.679688 -56.929688 99.234375 -53.140625 C 102.796875 -49.359375 107.554688 -47.46875 113.515625 -47.46875 C 121.085938 -47.46875 127.738281 -49.414062 133.46875 -53.3125 Z M 149.640625 -7.5625 "/></g></g></g></g><g fill="#b6b5b5" fill-opacity="1"><g transform="translate(44.364703, 333.107322)"><g><path d="M 142.421875 -189.546875 C 165.578125 -189.546875 184.207031 -182.664062 198.3125 -168.90625 C 212.414062 -155.144531 219.46875 -134.390625 219.46875 -106.640625 L 219.46875 0 L 154.109375 0 L 154.109375 -95.96875 C 154.109375 -121.425781 143.90625 -134.15625 123.5 -134.15625 C 112.257812 -134.15625 103.253906 -130.484375 96.484375 -123.140625 C 89.722656 -115.804688 86.34375 -104.800781 86.34375 -90.125 L 86.34375 0 L 20.984375 0 L 20.984375 -255.25 L 86.34375 -255.25 L 86.34375 -169.25 C 93.457031 -175.894531 101.828125 -180.9375 111.453125 -184.375 C 121.085938 -187.820312 131.410156 -189.546875 142.421875 -189.546875 Z M 142.421875 -189.546875 "/></g></g></g><g fill="#b6b5b5" fill-opacity="1"><g transform="translate(249.391554, 333.107322)"><g><path d="M 100.453125 -189.546875 C 131.410156 -189.546875 155.03125 -182.492188 171.3125 -168.390625 C 187.59375 -154.285156 195.734375 -132.671875 195.734375 -103.546875 L 195.734375 0 L 134.84375 0 L 134.84375 -24.078125 C 125.445312 -5.960938 107.101562 3.09375 79.8125 3.09375 C 65.363281 3.09375 52.863281 0.570312 42.3125 -4.46875 C 31.757812 -9.519531 23.785156 -16.34375 18.390625 -24.9375 C 13.003906 -33.539062 10.3125 -43.347656 10.3125 -54.359375 C 10.3125 -72.015625 17.078125 -85.710938 30.609375 -95.453125 C 44.140625 -105.203125 65.007812 -110.078125 93.21875 -110.078125 L 130.375 -110.078125 C 129.226562 -129.796875 116.039062 -139.65625 90.8125 -139.65625 C 81.875 -139.65625 72.816406 -138.222656 63.640625 -135.359375 C 54.460938 -132.492188 46.664062 -128.539062 40.25 -123.5 L 18.234375 -167.875 C 28.554688 -174.75 41.113281 -180.078125 55.90625 -183.859375 C 70.695312 -187.648438 85.546875 -189.546875 100.453125 -189.546875 Z M 98.046875 -38.1875 C 105.609375 -38.1875 112.253906 -40.019531 117.984375 -43.6875 C 123.722656 -47.351562 127.851562 -52.742188 130.375 -59.859375 L 130.375 -76.03125 L 102.171875 -76.03125 C 83.128906 -76.03125 73.609375 -69.722656 73.609375 -57.109375 C 73.609375 -51.367188 75.785156 -46.78125 80.140625 -43.34375 C 84.503906 -39.90625 90.472656 -38.1875 98.046875 -38.1875 Z M 98.046875 -38.1875 "/></g></g></g><g fill="#b6b5b5" fill-opacity="1"><g transform="translate(431.025932, 333.107322)"><g><path d="M 142.421875 -189.546875 C 165.578125 -189.546875 184.207031 -182.664062 198.3125 -168.90625 C 212.414062 -155.144531 219.46875 -134.390625 219.46875 -106.640625 L 219.46875 0 L 154.109375 0 L 154.109375 -95.96875 C 154.109375 -121.425781 143.90625 -134.15625 123.5 -134.15625 C 112.257812 -134.15625 103.253906 -130.484375 96.484375 -123.140625 C 89.722656 -115.804688 86.34375 -104.800781 86.34375 -90.125 L 86.34375 0 L 20.984375 0 L 20.984375 -186.453125 L 83.25 -186.453125 L 83.25 -166.15625 C 90.582031 -173.71875 99.296875 -179.503906 109.390625 -183.515625 C 119.484375 -187.535156 130.492188 -189.546875 142.421875 -189.546875 Z M 142.421875 -189.546875 "/></g></g></g><g fill="#b6b5b5" fill-opacity="1"><g transform="translate(636.052809, 333.107322)"><g><path d="M 105.609375 -65.359375 L 86.34375 -45.75 L 86.34375 0 L 20.984375 0 L 20.984375 -255.25 L 86.34375 -255.25 L 86.34375 -121.4375 L 153.078125 -186.453125 L 230.484375 -186.453125 L 153.078125 -106.640625 L 237.015625 0 L 157.890625 0 Z M 105.609375 -65.359375 "/></g></g></g><g fill="#b6b5b5" fill-opacity="1"><g transform="translate(837.639533, 333.107322)"><g/></g></g><g fill="#b6b5b5" fill-opacity="1"><g transform="translate(903.343935, 333.107322)"><g><path d="M 217.40625 -186.453125 L 136.90625 7.5625 C 127.507812 30.5 116.046875 46.609375 102.515625 55.890625 C 88.984375 65.179688 72.46875 69.828125 52.96875 69.828125 C 43.113281 69.828125 33.195312 68.28125 23.21875 65.1875 C 13.238281 62.09375 5.15625 58.019531 -1.03125 52.96875 L 21.671875 7.21875 C 25.335938 10.664062 29.75 13.363281 34.90625 15.3125 C 40.070312 17.257812 45.289062 18.234375 50.5625 18.234375 C 56.757812 18.234375 61.863281 16.96875 65.875 14.4375 C 69.882812 11.914062 73.269531 7.90625 76.03125 2.40625 L -3.78125 -186.453125 L 63.296875 -186.453125 L 109.046875 -72.578125 L 155.140625 -186.453125 Z M 217.40625 -186.453125 "/></g></g></g><g fill="#b6b5b5" fill-opacity="1"><g transform="translate(1082.226208, 333.107322)"><g><path d="M 114.546875 3.09375 C 94.597656 3.09375 76.597656 -1.03125 60.546875 -9.28125 C 44.492188 -17.539062 31.9375 -29.007812 22.875 -43.6875 C 13.8125 -58.363281 9.28125 -74.988281 9.28125 -93.5625 C 9.28125 -111.914062 13.8125 -128.429688 22.875 -143.109375 C 31.9375 -157.785156 44.4375 -169.191406 60.375 -177.328125 C 76.3125 -185.472656 94.367188 -189.546875 114.546875 -189.546875 C 134.734375 -189.546875 152.851562 -185.472656 168.90625 -177.328125 C 184.957031 -169.191406 197.453125 -157.84375 206.390625 -143.28125 C 215.335938 -128.71875 219.8125 -112.144531 219.8125 -93.5625 C 219.8125 -74.988281 215.335938 -58.363281 206.390625 -43.6875 C 197.453125 -29.007812 184.957031 -17.539062 168.90625 -9.28125 C 152.851562 -1.03125 134.734375 3.09375 114.546875 3.09375 Z M 114.546875 -48.84375 C 126.015625 -48.84375 135.414062 -52.796875 142.75 -60.703125 C 150.09375 -68.617188 153.765625 -79.570312 153.765625 -93.5625 C 153.765625 -107.320312 150.09375 -118.097656 142.75 -125.890625 C 135.414062 -133.691406 126.015625 -137.59375 114.546875 -137.59375 C 103.085938 -137.59375 93.6875 -133.691406 86.34375 -125.890625 C 79.007812 -118.097656 75.34375 -107.320312 75.34375 -93.5625 C 75.34375 -79.570312 79.007812 -68.617188 86.34375 -60.703125 C 93.6875 -52.796875 103.085938 -48.84375 114.546875 -48.84375 Z M 114.546875 -48.84375 "/></g></g></g><g clip-path="url(#2cbedac6a7)"><g fill="#b6b5b5" fill-opacity="1"><g transform="translate(1276.932942, 333.107322)"><g><path d="M 217.0625 -186.453125 L 217.0625 0 L 154.796875 0 L 154.796875 -19.953125 C 147.921875 -12.378906 139.664062 -6.644531 130.03125 -2.75 C 120.394531 1.144531 110.191406 3.09375 99.421875 3.09375 C 75.335938 3.09375 56.128906 -4.015625 41.796875 -18.234375 C 27.460938 -32.453125 20.296875 -53.78125 20.296875 -82.21875 L 20.296875 -186.453125 L 85.65625 -186.453125 L 85.65625 -92.875 C 85.65625 -78.882812 88.289062 -68.675781 93.5625 -62.25 C 98.84375 -55.832031 106.523438 -52.625 116.609375 -52.625 C 126.929688 -52.625 135.359375 -56.234375 141.890625 -63.453125 C 148.429688 -70.679688 151.703125 -81.75 151.703125 -96.65625 L 151.703125 -186.453125 Z M 217.0625 -186.453125 "/></g></g></g></g></g></g><g transform="matrix(1, 0, 0, 1, 0, 243)"><g clip-path="url(#7730364214)"><g clip-path="url(#736df1e598)"><g fill="#838282" fill-opacity="1"><g transform="translate(-75.004628, 333.394123)"><g><path d="M 149.640625 -7.5625 C 144.140625 -4.125 137.429688 -1.488281 129.515625 0.34375 C 121.597656 2.175781 113.171875 3.09375 104.234375 3.09375 C 79.921875 3.09375 61.226562 -2.867188 48.15625 -14.796875 C 35.082031 -26.722656 28.546875 -44.492188 28.546875 -68.109375 L 28.546875 -130.71875 L 1.375 -130.71875 L 1.375 -179.5625 L 28.546875 -179.5625 L 28.546875 -228.078125 L 93.90625 -228.078125 L 93.90625 -179.5625 L 136.5625 -179.5625 L 136.5625 -130.71875 L 93.90625 -130.71875 L 93.90625 -68.796875 C 93.90625 -62.148438 95.679688 -56.929688 99.234375 -53.140625 C 102.796875 -49.359375 107.554688 -47.46875 113.515625 -47.46875 C 121.085938 -47.46875 127.738281 -49.414062 133.46875 -53.3125 Z M 149.640625 -7.5625 "/></g></g></g></g><g fill="#838282" fill-opacity="1"><g transform="translate(44.364703, 333.394123)"><g><path d="M 142.421875 -189.546875 C 165.578125 -189.546875 184.207031 -182.664062 198.3125 -168.90625 C 212.414062 -155.144531 219.46875 -134.390625 219.46875 -106.640625 L 219.46875 0 L 154.109375 0 L 154.109375 -95.96875 C 154.109375 -121.425781 143.90625 -134.15625 123.5 -134.15625 C 112.257812 -134.15625 103.253906 -130.484375 96.484375 -123.140625 C 89.722656 -115.804688 86.34375 -104.800781 86.34375 -90.125 L 86.34375 0 L 20.984375 0 L 20.984375 -255.25 L 86.34375 -255.25 L 86.34375 -169.25 C 93.457031 -175.894531 101.828125 -180.9375 111.453125 -184.375 C 121.085938 -187.820312 131.410156 -189.546875 142.421875 -189.546875 Z M 142.421875 -189.546875 "/></g></g></g><g fill="#838282" fill-opacity="1"><g transform="translate(249.391554, 333.394123)"><g><path d="M 100.453125 -189.546875 C 131.410156 -189.546875 155.03125 -182.492188 171.3125 -168.390625 C 187.59375 -154.285156 195.734375 -132.671875 195.734375 -103.546875 L 195.734375 0 L 134.84375 0 L 134.84375 -24.078125 C 125.445312 -5.960938 107.101562 3.09375 79.8125 3.09375 C 65.363281 3.09375 52.863281 0.570312 42.3125 -4.46875 C 31.757812 -9.519531 23.785156 -16.34375 18.390625 -24.9375 C 13.003906 -33.539062 10.3125 -43.347656 10.3125 -54.359375 C 10.3125 -72.015625 17.078125 -85.710938 30.609375 -95.453125 C 44.140625 -105.203125 65.007812 -110.078125 93.21875 -110.078125 L 130.375 -110.078125 C 129.226562 -129.796875 116.039062 -139.65625 90.8125 -139.65625 C 81.875 -139.65625 72.816406 -138.222656 63.640625 -135.359375 C 54.460938 -132.492188 46.664062 -128.539062 40.25 -123.5 L 18.234375 -167.875 C 28.554688 -174.75 41.113281 -180.078125 55.90625 -183.859375 C 70.695312 -187.648438 85.546875 -189.546875 100.453125 -189.546875 Z M 98.046875 -38.1875 C 105.609375 -38.1875 112.253906 -40.019531 117.984375 -43.6875 C 123.722656 -47.351562 127.851562 -52.742188 130.375 -59.859375 L 130.375 -76.03125 L 102.171875 -76.03125 C 83.128906 -76.03125 73.609375 -69.722656 73.609375 -57.109375 C 73.609375 -51.367188 75.785156 -46.78125 80.140625 -43.34375 C 84.503906 -39.90625 90.472656 -38.1875 98.046875 -38.1875 Z M 98.046875 -38.1875 "/></g></g></g><g fill="#838282" fill-opacity="1"><g transform="translate(431.025932, 333.394123)"><g><path d="M 142.421875 -189.546875 C 165.578125 -189.546875 184.207031 -182.664062 198.3125 -168.90625 C 212.414062 -155.144531 219.46875 -134.390625 219.46875 -106.640625 L 219.46875 0 L 154.109375 0 L 154.109375 -95.96875 C 154.109375 -121.425781 143.90625 -134.15625 123.5 -134.15625 C 112.257812 -134.15625 103.253906 -130.484375 96.484375 -123.140625 C 89.722656 -115.804688 86.34375 -104.800781 86.34375 -90.125 L 86.34375 0 L 20.984375 0 L 20.984375 -186.453125 L 83.25 -186.453125 L 83.25 -166.15625 C 90.582031 -173.71875 99.296875 -179.503906 109.390625 -183.515625 C 119.484375 -187.535156 130.492188 -189.546875 142.421875 -189.546875 Z M 142.421875 -189.546875 "/></g></g></g><g fill="#838282" fill-opacity="1"><g transform="translate(636.052809, 333.394123)"><g><path d="M 105.609375 -65.359375 L 86.34375 -45.75 L 86.34375 0 L 20.984375 0 L 20.984375 -255.25 L 86.34375 -255.25 L 86.34375 -121.4375 L 153.078125 -186.453125 L 230.484375 -186.453125 L 153.078125 -106.640625 L 237.015625 0 L 157.890625 0 Z M 105.609375 -65.359375 "/></g></g></g><g fill="#838282" fill-opacity="1"><g transform="translate(837.639533, 333.394123)"><g/></g></g><g fill="#838282" fill-opacity="1"><g transform="translate(903.343935, 333.394123)"><g><path d="M 217.40625 -186.453125 L 136.90625 7.5625 C 127.507812 30.5 116.046875 46.609375 102.515625 55.890625 C 88.984375 65.179688 72.46875 69.828125 52.96875 69.828125 C 43.113281 69.828125 33.195312 68.28125 23.21875 65.1875 C 13.238281 62.09375 5.15625 58.019531 -1.03125 52.96875 L 21.671875 7.21875 C 25.335938 10.664062 29.75 13.363281 34.90625 15.3125 C 40.070312 17.257812 45.289062 18.234375 50.5625 18.234375 C 56.757812 18.234375 61.863281 16.96875 65.875 14.4375 C 69.882812 11.914062 73.269531 7.90625 76.03125 2.40625 L -3.78125 -186.453125 L 63.296875 -186.453125 L 109.046875 -72.578125 L 155.140625 -186.453125 Z M 217.40625 -186.453125 "/></g></g></g><g fill="#838282" fill-opacity="1"><g transform="translate(1082.226208, 333.394123)"><g><path d="M 114.546875 3.09375 C 94.597656 3.09375 76.597656 -1.03125 60.546875 -9.28125 C 44.492188 -17.539062 31.9375 -29.007812 22.875 -43.6875 C 13.8125 -58.363281 9.28125 -74.988281 9.28125 -93.5625 C 9.28125 -111.914062 13.8125 -128.429688 22.875 -143.109375 C 31.9375 -157.785156 44.4375 -169.191406 60.375 -177.328125 C 76.3125 -185.472656 94.367188 -189.546875 114.546875 -189.546875 C 134.734375 -189.546875 152.851562 -185.472656 168.90625 -177.328125 C 184.957031 -169.191406 197.453125 -157.84375 206.390625 -143.28125 C 215.335938 -128.71875 219.8125 -112.144531 219.8125 -93.5625 C 219.8125 -74.988281 215.335938 -58.363281 206.390625 -43.6875 C 197.453125 -29.007812 184.957031 -17.539062 168.90625 -9.28125 C 152.851562 -1.03125 134.734375 3.09375 114.546875 3.09375 Z M 114.546875 -48.84375 C 126.015625 -48.84375 135.414062 -52.796875 142.75 -60.703125 C 150.09375 -68.617188 153.765625 -79.570312 153.765625 -93.5625 C 153.765625 -107.320312 150.09375 -118.097656 142.75 -125.890625 C 135.414062 -133.691406 126.015625 -137.59375 114.546875 -137.59375 C 103.085938 -137.59375 93.6875 -133.691406 86.34375 -125.890625 C 79.007812 -118.097656 75.34375 -107.320312 75.34375 -93.5625 C 75.34375 -79.570312 79.007812 -68.617188 86.34375 -60.703125 C 93.6875 -52.796875 103.085938 -48.84375 114.546875 -48.84375 Z M 114.546875 -48.84375 "/></g></g></g><g clip-path="url(#c197c80ec3)"><g fill="#838282" fill-opacity="1"><g transform="translate(1276.932942, 333.394123)"><g><path d="M 217.0625 -186.453125 L 217.0625 0 L 154.796875 0 L 154.796875 -19.953125 C 147.921875 -12.378906 139.664062 -6.644531 130.03125 -2.75 C 120.394531 1.144531 110.191406 3.09375 99.421875 3.09375 C 75.335938 3.09375 56.128906 -4.015625 41.796875 -18.234375 C 27.460938 -32.453125 20.296875 -53.78125 20.296875 -82.21875 L 20.296875 -186.453125 L 85.65625 -186.453125 L 85.65625 -92.875 C 85.65625 -78.882812 88.289062 -68.675781 93.5625 -62.25 C 98.84375 -55.832031 106.523438 -52.625 116.609375 -52.625 C 126.929688 -52.625 135.359375 -56.234375 141.890625 -63.453125 C 148.429688 -70.679688 151.703125 -81.75 151.703125 -96.65625 L 151.703125 -186.453125 Z M 217.0625 -186.453125 "/></g></g></g></g></g></g><g transform="matrix(1, 0, 0, 1, 0, 110)"><g clip-path="url(#ef2749c850)"><g clip-path="url(#ecffeae65d)"><g fill="#838282" fill-opacity="1"><g transform="translate(-75.004628, 332.967958)"><g><path d="M 149.640625 -7.5625 C 144.140625 -4.125 137.429688 -1.488281 129.515625 0.34375 C 121.597656 2.175781 113.171875 3.09375 104.234375 3.09375 C 79.921875 3.09375 61.226562 -2.867188 48.15625 -14.796875 C 35.082031 -26.722656 28.546875 -44.492188 28.546875 -68.109375 L 28.546875 -130.71875 L 1.375 -130.71875 L 1.375 -179.5625 L 28.546875 -179.5625 L 28.546875 -228.078125 L 93.90625 -228.078125 L 93.90625 -179.5625 L 136.5625 -179.5625 L 136.5625 -130.71875 L 93.90625 -130.71875 L 93.90625 -68.796875 C 93.90625 -62.148438 95.679688 -56.929688 99.234375 -53.140625 C 102.796875 -49.359375 107.554688 -47.46875 113.515625 -47.46875 C 121.085938 -47.46875 127.738281 -49.414062 133.46875 -53.3125 Z M 149.640625 -7.5625 "/></g></g></g></g><g fill="#838282" fill-opacity="1"><g transform="translate(44.364703, 332.967958)"><g><path d="M 142.421875 -189.546875 C 165.578125 -189.546875 184.207031 -182.664062 198.3125 -168.90625 C 212.414062 -155.144531 219.46875 -134.390625 219.46875 -106.640625 L 219.46875 0 L 154.109375 0 L 154.109375 -95.96875 C 154.109375 -121.425781 143.90625 -134.15625 123.5 -134.15625 C 112.257812 -134.15625 103.253906 -130.484375 96.484375 -123.140625 C 89.722656 -115.804688 86.34375 -104.800781 86.34375 -90.125 L 86.34375 0 L 20.984375 0 L 20.984375 -255.25 L 86.34375 -255.25 L 86.34375 -169.25 C 93.457031 -175.894531 101.828125 -180.9375 111.453125 -184.375 C 121.085938 -187.820312 131.410156 -189.546875 142.421875 -189.546875 Z M 142.421875 -189.546875 "/></g></g></g><g fill="#838282" fill-opacity="1"><g transform="translate(249.391554, 332.967958)"><g><path d="M 100.453125 -189.546875 C 131.410156 -189.546875 155.03125 -182.492188 171.3125 -168.390625 C 187.59375 -154.285156 195.734375 -132.671875 195.734375 -103.546875 L 195.734375 0 L 134.84375 0 L 134.84375 -24.078125 C 125.445312 -5.960938 107.101562 3.09375 79.8125 3.09375 C 65.363281 3.09375 52.863281 0.570312 42.3125 -4.46875 C 31.757812 -9.519531 23.785156 -16.34375 18.390625 -24.9375 C 13.003906 -33.539062 10.3125 -43.347656 10.3125 -54.359375 C 10.3125 -72.015625 17.078125 -85.710938 30.609375 -95.453125 C 44.140625 -105.203125 65.007812 -110.078125 93.21875 -110.078125 L 130.375 -110.078125 C 129.226562 -129.796875 116.039062 -139.65625 90.8125 -139.65625 C 81.875 -139.65625 72.816406 -138.222656 63.640625 -135.359375 C 54.460938 -132.492188 46.664062 -128.539062 40.25 -123.5 L 18.234375 -167.875 C 28.554688 -174.75 41.113281 -180.078125 55.90625 -183.859375 C 70.695312 -187.648438 85.546875 -189.546875 100.453125 -189.546875 Z M 98.046875 -38.1875 C 105.609375 -38.1875 112.253906 -40.019531 117.984375 -43.6875 C 123.722656 -47.351562 127.851562 -52.742188 130.375 -59.859375 L 130.375 -76.03125 L 102.171875 -76.03125 C 83.128906 -76.03125 73.609375 -69.722656 73.609375 -57.109375 C 73.609375 -51.367188 75.785156 -46.78125 80.140625 -43.34375 C 84.503906 -39.90625 90.472656 -38.1875 98.046875 -38.1875 Z M 98.046875 -38.1875 "/></g></g></g><g fill="#838282" fill-opacity="1"><g transform="translate(431.025932, 332.967958)"><g><path d="M 142.421875 -189.546875 C 165.578125 -189.546875 184.207031 -182.664062 198.3125 -168.90625 C 212.414062 -155.144531 219.46875 -134.390625 219.46875 -106.640625 L 219.46875 0 L 154.109375 0 L 154.109375 -95.96875 C 154.109375 -121.425781 143.90625 -134.15625 123.5 -134.15625 C 112.257812 -134.15625 103.253906 -130.484375 96.484375 -123.140625 C 89.722656 -115.804688 86.34375 -104.800781 86.34375 -90.125 L 86.34375 0 L 20.984375 0 L 20.984375 -186.453125 L 83.25 -186.453125 L 83.25 -166.15625 C 90.582031 -173.71875 99.296875 -179.503906 109.390625 -183.515625 C 119.484375 -187.535156 130.492188 -189.546875 142.421875 -189.546875 Z M 142.421875 -189.546875 "/></g></g></g><g fill="#838282" fill-opacity="1"><g transform="translate(636.052809, 332.967958)"><g><path d="M 105.609375 -65.359375 L 86.34375 -45.75 L 86.34375 0 L 20.984375 0 L 20.984375 -255.25 L 86.34375 -255.25 L 86.34375 -121.4375 L 153.078125 -186.453125 L 230.484375 -186.453125 L 153.078125 -106.640625 L 237.015625 0 L 157.890625 0 Z M 105.609375 -65.359375 "/></g></g></g><g fill="#838282" fill-opacity="1"><g transform="translate(837.639533, 332.967958)"><g/></g></g><g fill="#838282" fill-opacity="1"><g transform="translate(903.343935, 332.967958)"><g><path d="M 217.40625 -186.453125 L 136.90625 7.5625 C 127.507812 30.5 116.046875 46.609375 102.515625 55.890625 C 88.984375 65.179688 72.46875 69.828125 52.96875 69.828125 C 43.113281 69.828125 33.195312 68.28125 23.21875 65.1875 C 13.238281 62.09375 5.15625 58.019531 -1.03125 52.96875 L 21.671875 7.21875 C 25.335938 10.664062 29.75 13.363281 34.90625 15.3125 C 40.070312 17.257812 45.289062 18.234375 50.5625 18.234375 C 56.757812 18.234375 61.863281 16.96875 65.875 14.4375 C 69.882812 11.914062 73.269531 7.90625 76.03125 2.40625 L -3.78125 -186.453125 L 63.296875 -186.453125 L 109.046875 -72.578125 L 155.140625 -186.453125 Z M 217.40625 -186.453125 "/></g></g></g><g fill="#838282" fill-opacity="1"><g transform="translate(1082.226208, 332.967958)"><g><path d="M 114.546875 3.09375 C 94.597656 3.09375 76.597656 -1.03125 60.546875 -9.28125 C 44.492188 -17.539062 31.9375 -29.007812 22.875 -43.6875 C 13.8125 -58.363281 9.28125 -74.988281 9.28125 -93.5625 C 9.28125 -111.914062 13.8125 -128.429688 22.875 -143.109375 C 31.9375 -157.785156 44.4375 -169.191406 60.375 -177.328125 C 76.3125 -185.472656 94.367188 -189.546875 114.546875 -189.546875 C 134.734375 -189.546875 152.851562 -185.472656 168.90625 -177.328125 C 184.957031 -169.191406 197.453125 -157.84375 206.390625 -143.28125 C 215.335938 -128.71875 219.8125 -112.144531 219.8125 -93.5625 C 219.8125 -74.988281 215.335938 -58.363281 206.390625 -43.6875 C 197.453125 -29.007812 184.957031 -17.539062 168.90625 -9.28125 C 152.851562 -1.03125 134.734375 3.09375 114.546875 3.09375 Z M 114.546875 -48.84375 C 126.015625 -48.84375 135.414062 -52.796875 142.75 -60.703125 C 150.09375 -68.617188 153.765625 -79.570312 153.765625 -93.5625 C 153.765625 -107.320312 150.09375 -118.097656 142.75 -125.890625 C 135.414062 -133.691406 126.015625 -137.59375 114.546875 -137.59375 C 103.085938 -137.59375 93.6875 -133.691406 86.34375 -125.890625 C 79.007812 -118.097656 75.34375 -107.320312 75.34375 -93.5625 C 75.34375 -79.570312 79.007812 -68.617188 86.34375 -60.703125 C 93.6875 -52.796875 103.085938 -48.84375 114.546875 -48.84375 Z M 114.546875 -48.84375 "/></g></g></g><g clip-path="url(#edfbdf7512)"><g fill="#838282" fill-opacity="1"><g transform="translate(1276.932942, 332.967958)"><g><path d="M 217.0625 -186.453125 L 217.0625 0 L 154.796875 0 L 154.796875 -19.953125 C 147.921875 -12.378906 139.664062 -6.644531 130.03125 -2.75 C 120.394531 1.144531 110.191406 3.09375 99.421875 3.09375 C 75.335938 3.09375 56.128906 -4.015625 41.796875 -18.234375 C 27.460938 -32.453125 20.296875 -53.78125 20.296875 -82.21875 L 20.296875 -186.453125 L 85.65625 -186.453125 L 85.65625 -92.875 C 85.65625 -78.882812 88.289062 -68.675781 93.5625 -62.25 C 98.84375 -55.832031 106.523438 -52.625 116.609375 -52.625 C 126.929688 -52.625 135.359375 -56.234375 141.890625 -63.453125 C 148.429688 -70.679688 151.703125 -81.75 151.703125 -96.65625 L 151.703125 -186.453125 Z M 217.0625 -186.453125 "/></g></g></g></g></g></g><g transform="matrix(1, 0, 0, 1, 0, 177)"><g clip-path="url(#6ee49998f1)"><g clip-path="url(#447b99c2de)"><g fill="#1e1e1e" fill-opacity="1"><g transform="translate(-75.004628, 332.680923)"><g><path d="M 149.640625 -7.5625 C 144.140625 -4.125 137.429688 -1.488281 129.515625 0.34375 C 121.597656 2.175781 113.171875 3.09375 104.234375 3.09375 C 79.921875 3.09375 61.226562 -2.867188 48.15625 -14.796875 C 35.082031 -26.722656 28.546875 -44.492188 28.546875 -68.109375 L 28.546875 -130.71875 L 1.375 -130.71875 L 1.375 -179.5625 L 28.546875 -179.5625 L 28.546875 -228.078125 L 93.90625 -228.078125 L 93.90625 -179.5625 L 136.5625 -179.5625 L 136.5625 -130.71875 L 93.90625 -130.71875 L 93.90625 -68.796875 C 93.90625 -62.148438 95.679688 -56.929688 99.234375 -53.140625 C 102.796875 -49.359375 107.554688 -47.46875 113.515625 -47.46875 C 121.085938 -47.46875 127.738281 -49.414062 133.46875 -53.3125 Z M 149.640625 -7.5625 "/></g></g></g></g><g fill="#1e1e1e" fill-opacity="1"><g transform="translate(44.364703, 332.680923)"><g><path d="M 142.421875 -189.546875 C 165.578125 -189.546875 184.207031 -182.664062 198.3125 -168.90625 C 212.414062 -155.144531 219.46875 -134.390625 219.46875 -106.640625 L 219.46875 0 L 154.109375 0 L 154.109375 -95.96875 C 154.109375 -121.425781 143.90625 -134.15625 123.5 -134.15625 C 112.257812 -134.15625 103.253906 -130.484375 96.484375 -123.140625 C 89.722656 -115.804688 86.34375 -104.800781 86.34375 -90.125 L 86.34375 0 L 20.984375 0 L 20.984375 -255.25 L 86.34375 -255.25 L 86.34375 -169.25 C 93.457031 -175.894531 101.828125 -180.9375 111.453125 -184.375 C 121.085938 -187.820312 131.410156 -189.546875 142.421875 -189.546875 Z M 142.421875 -189.546875 "/></g></g></g><g fill="#1e1e1e" fill-opacity="1"><g transform="translate(249.391554, 332.680923)"><g><path d="M 100.453125 -189.546875 C 131.410156 -189.546875 155.03125 -182.492188 171.3125 -168.390625 C 187.59375 -154.285156 195.734375 -132.671875 195.734375 -103.546875 L 195.734375 0 L 134.84375 0 L 134.84375 -24.078125 C 125.445312 -5.960938 107.101562 3.09375 79.8125 3.09375 C 65.363281 3.09375 52.863281 0.570312 42.3125 -4.46875 C 31.757812 -9.519531 23.785156 -16.34375 18.390625 -24.9375 C 13.003906 -33.539062 10.3125 -43.347656 10.3125 -54.359375 C 10.3125 -72.015625 17.078125 -85.710938 30.609375 -95.453125 C 44.140625 -105.203125 65.007812 -110.078125 93.21875 -110.078125 L 130.375 -110.078125 C 129.226562 -129.796875 116.039062 -139.65625 90.8125 -139.65625 C 81.875 -139.65625 72.816406 -138.222656 63.640625 -135.359375 C 54.460938 -132.492188 46.664062 -128.539062 40.25 -123.5 L 18.234375 -167.875 C 28.554688 -174.75 41.113281 -180.078125 55.90625 -183.859375 C 70.695312 -187.648438 85.546875 -189.546875 100.453125 -189.546875 Z M 98.046875 -38.1875 C 105.609375 -38.1875 112.253906 -40.019531 117.984375 -43.6875 C 123.722656 -47.351562 127.851562 -52.742188 130.375 -59.859375 L 130.375 -76.03125 L 102.171875 -76.03125 C 83.128906 -76.03125 73.609375 -69.722656 73.609375 -57.109375 C 73.609375 -51.367188 75.785156 -46.78125 80.140625 -43.34375 C 84.503906 -39.90625 90.472656 -38.1875 98.046875 -38.1875 Z M 98.046875 -38.1875 "/></g></g></g><g fill="#1e1e1e" fill-opacity="1"><g transform="translate(431.025932, 332.680923)"><g><path d="M 142.421875 -189.546875 C 165.578125 -189.546875 184.207031 -182.664062 198.3125 -168.90625 C 212.414062 -155.144531 219.46875 -134.390625 219.46875 -106.640625 L 219.46875 0 L 154.109375 0 L 154.109375 -95.96875 C 154.109375 -121.425781 143.90625 -134.15625 123.5 -134.15625 C 112.257812 -134.15625 103.253906 -130.484375 96.484375 -123.140625 C 89.722656 -115.804688 86.34375 -104.800781 86.34375 -90.125 L 86.34375 0 L 20.984375 0 L 20.984375 -186.453125 L 83.25 -186.453125 L 83.25 -166.15625 C 90.582031 -173.71875 99.296875 -179.503906 109.390625 -183.515625 C 119.484375 -187.535156 130.492188 -189.546875 142.421875 -189.546875 Z M 142.421875 -189.546875 "/></g></g></g><g fill="#1e1e1e" fill-opacity="1"><g transform="translate(636.052809, 332.680923)"><g><path d="M 105.609375 -65.359375 L 86.34375 -45.75 L 86.34375 0 L 20.984375 0 L 20.984375 -255.25 L 86.34375 -255.25 L 86.34375 -121.4375 L 153.078125 -186.453125 L 230.484375 -186.453125 L 153.078125 -106.640625 L 237.015625 0 L 157.890625 0 Z M 105.609375 -65.359375 "/></g></g></g><g fill="#1e1e1e" fill-opacity="1"><g transform="translate(837.639533, 332.680923)"><g/></g></g><g fill="#1e1e1e" fill-opacity="1"><g transform="translate(903.343935, 332.680923)"><g><path d="M 217.40625 -186.453125 L 136.90625 7.5625 C 127.507812 30.5 116.046875 46.609375 102.515625 55.890625 C 88.984375 65.179688 72.46875 69.828125 52.96875 69.828125 C 43.113281 69.828125 33.195312 68.28125 23.21875 65.1875 C 13.238281 62.09375 5.15625 58.019531 -1.03125 52.96875 L 21.671875 7.21875 C 25.335938 10.664062 29.75 13.363281 34.90625 15.3125 C 40.070312 17.257812 45.289062 18.234375 50.5625 18.234375 C 56.757812 18.234375 61.863281 16.96875 65.875 14.4375 C 69.882812 11.914062 73.269531 7.90625 76.03125 2.40625 L -3.78125 -186.453125 L 63.296875 -186.453125 L 109.046875 -72.578125 L 155.140625 -186.453125 Z M 217.40625 -186.453125 "/></g></g></g><g fill="#1e1e1e" fill-opacity="1"><g transform="translate(1082.226208, 332.680923)"><g><path d="M 114.546875 3.09375 C 94.597656 3.09375 76.597656 -1.03125 60.546875 -9.28125 C 44.492188 -17.539062 31.9375 -29.007812 22.875 -43.6875 C 13.8125 -58.363281 9.28125 -74.988281 9.28125 -93.5625 C 9.28125 -111.914062 13.8125 -128.429688 22.875 -143.109375 C 31.9375 -157.785156 44.4375 -169.191406 60.375 -177.328125 C 76.3125 -185.472656 94.367188 -189.546875 114.546875 -189.546875 C 134.734375 -189.546875 152.851562 -185.472656 168.90625 -177.328125 C 184.957031 -169.191406 197.453125 -157.84375 206.390625 -143.28125 C 215.335938 -128.71875 219.8125 -112.144531 219.8125 -93.5625 C 219.8125 -74.988281 215.335938 -58.363281 206.390625 -43.6875 C 197.453125 -29.007812 184.957031 -17.539062 168.90625 -9.28125 C 152.851562 -1.03125 134.734375 3.09375 114.546875 3.09375 Z M 114.546875 -48.84375 C 126.015625 -48.84375 135.414062 -52.796875 142.75 -60.703125 C 150.09375 -68.617188 153.765625 -79.570312 153.765625 -93.5625 C 153.765625 -107.320312 150.09375 -118.097656 142.75 -125.890625 C 135.414062 -133.691406 126.015625 -137.59375 114.546875 -137.59375 C 103.085938 -137.59375 93.6875 -133.691406 86.34375 -125.890625 C 79.007812 -118.097656 75.34375 -107.320312 75.34375 -93.5625 C 75.34375 -79.570312 79.007812 -68.617188 86.34375 -60.703125 C 93.6875 -52.796875 103.085938 -48.84375 114.546875 -48.84375 Z M 114.546875 -48.84375 "/></g></g></g><g clip-path="url(#6e4d1b0d24)"><g fill="#1e1e1e" fill-opacity="1"><g transform="translate(1276.932942, 332.680923)"><g><path d="M 217.0625 -186.453125 L 217.0625 0 L 154.796875 0 L 154.796875 -19.953125 C 147.921875 -12.378906 139.664062 -6.644531 130.03125 -2.75 C 120.394531 1.144531 110.191406 3.09375 99.421875 3.09375 C 75.335938 3.09375 56.128906 -4.015625 41.796875 -18.234375 C 27.460938 -32.453125 20.296875 -53.78125 20.296875 -82.21875 L 20.296875 -186.453125 L 85.65625 -186.453125 L 85.65625 -92.875 C 85.65625 -78.882812 88.289062 -68.675781 93.5625 -62.25 C 98.84375 -55.832031 106.523438 -52.625 116.609375 -52.625 C 126.929688 -52.625 135.359375 -56.234375 141.890625 -63.453125 C 148.429688 -70.679688 151.703125 -81.75 151.703125 -96.65625 L 151.703125 -186.453125 Z M 217.0625 -186.453125 "/></g></g></g></g></g></g><g fill="#1e1e1e" fill-opacity="1"><g transform="translate(57.307014, 87.375016)"><g><path d="M 8.109375 -14.703125 C 9.410156 -14.703125 10.539062 -14.484375 11.5 -14.046875 C 12.457031 -13.609375 13.191406 -12.988281 13.703125 -12.1875 C 14.222656 -11.394531 14.484375 -10.453125 14.484375 -9.359375 C 14.484375 -8.285156 14.222656 -7.34375 13.703125 -6.53125 C 13.191406 -5.726562 12.457031 -5.113281 11.5 -4.6875 C 10.539062 -4.257812 9.410156 -4.046875 8.109375 -4.046875 L 5.140625 -4.046875 L 5.140625 0 L 1.75 0 L 1.75 -14.703125 Z M 7.921875 -6.828125 C 8.941406 -6.828125 9.71875 -7.046875 10.25 -7.484375 C 10.78125 -7.921875 11.046875 -8.546875 11.046875 -9.359375 C 11.046875 -10.191406 10.78125 -10.828125 10.25 -11.265625 C 9.71875 -11.703125 8.941406 -11.921875 7.921875 -11.921875 L 5.140625 -11.921875 L 5.140625 -6.828125 Z M 7.921875 -6.828125 "/></g></g></g><g fill="#1e1e1e" fill-opacity="1"><g transform="translate(71.41046, 87.375016)"><g><path d="M 8.859375 0.25 C 7.335938 0.25 5.960938 -0.078125 4.734375 -0.734375 C 3.503906 -1.390625 2.539062 -2.296875 1.84375 -3.453125 C 1.15625 -4.609375 0.8125 -5.90625 0.8125 -7.34375 C 0.8125 -8.789062 1.15625 -10.09375 1.84375 -11.25 C 2.539062 -12.40625 3.503906 -13.3125 4.734375 -13.96875 C 5.960938 -14.625 7.335938 -14.953125 8.859375 -14.953125 C 10.390625 -14.953125 11.765625 -14.625 12.984375 -13.96875 C 14.203125 -13.3125 15.160156 -12.40625 15.859375 -11.25 C 16.554688 -10.09375 16.90625 -8.789062 16.90625 -7.34375 C 16.90625 -5.90625 16.554688 -4.609375 15.859375 -3.453125 C 15.160156 -2.296875 14.203125 -1.390625 12.984375 -0.734375 C 11.765625 -0.078125 10.390625 0.25 8.859375 0.25 Z M 8.859375 -2.640625 C 9.722656 -2.640625 10.503906 -2.835938 11.203125 -3.234375 C 11.910156 -3.640625 12.460938 -4.195312 12.859375 -4.90625 C 13.265625 -5.625 13.46875 -6.4375 13.46875 -7.34375 C 13.46875 -8.257812 13.265625 -9.070312 12.859375 -9.78125 C 12.460938 -10.5 11.910156 -11.054688 11.203125 -11.453125 C 10.503906 -11.847656 9.722656 -12.046875 8.859375 -12.046875 C 7.992188 -12.046875 7.207031 -11.847656 6.5 -11.453125 C 5.800781 -11.054688 5.253906 -10.5 4.859375 -9.78125 C 4.460938 -9.070312 4.265625 -8.257812 4.265625 -7.34375 C 4.265625 -6.4375 4.460938 -5.625 4.859375 -4.90625 C 5.253906 -4.195312 5.800781 -3.640625 6.5 -3.234375 C 7.207031 -2.835938 7.992188 -2.640625 8.859375 -2.640625 Z M 8.859375 -2.640625 "/></g></g></g><g fill="#1e1e1e" fill-opacity="1"><g transform="translate(87.864591, 87.375016)"><g><path d="M 11.109375 0 L 8.28125 -4.09375 L 5.140625 -4.09375 L 5.140625 0 L 1.75 0 L 1.75 -14.703125 L 8.109375 -14.703125 C 9.410156 -14.703125 10.539062 -14.484375 11.5 -14.046875 C 12.457031 -13.609375 13.191406 -12.988281 13.703125 -12.1875 C 14.222656 -11.394531 14.484375 -10.453125 14.484375 -9.359375 C 14.484375 -8.273438 14.222656 -7.335938 13.703125 -6.546875 C 13.179688 -5.753906 12.4375 -5.144531 11.46875 -4.71875 L 14.765625 0 Z M 11.046875 -9.359375 C 11.046875 -10.191406 10.78125 -10.828125 10.25 -11.265625 C 9.71875 -11.703125 8.941406 -11.921875 7.921875 -11.921875 L 5.140625 -11.921875 L 5.140625 -6.796875 L 7.921875 -6.796875 C 8.941406 -6.796875 9.71875 -7.019531 10.25 -7.46875 C 10.78125 -7.914062 11.046875 -8.546875 11.046875 -9.359375 Z M 11.046875 -9.359375 "/></g></g></g><g fill="#1e1e1e" fill-opacity="1"><g transform="translate(102.031003, 87.375016)"><g><path d="M 4.78125 -11.921875 L 0.078125 -11.921875 L 0.078125 -14.703125 L 12.890625 -14.703125 L 12.890625 -11.921875 L 8.1875 -11.921875 L 8.1875 0 L 4.78125 0 Z M 4.78125 -11.921875 "/></g></g></g><g fill="#1e1e1e" fill-opacity="1"><g transform="translate(113.741776, 87.375016)"><g><path d="M 5.140625 -11.96875 L 5.140625 -8.078125 L 11.953125 -8.078125 L 11.953125 -5.359375 L 5.140625 -5.359375 L 5.140625 0 L 1.75 0 L 1.75 -14.703125 L 12.859375 -14.703125 L 12.859375 -11.96875 Z M 5.140625 -11.96875 "/></g></g></g><g fill="#1e1e1e" fill-opacity="1"><g transform="translate(125.893307, 87.375016)"><g><path d="M 8.859375 0.25 C 7.335938 0.25 5.960938 -0.078125 4.734375 -0.734375 C 3.503906 -1.390625 2.539062 -2.296875 1.84375 -3.453125 C 1.15625 -4.609375 0.8125 -5.90625 0.8125 -7.34375 C 0.8125 -8.789062 1.15625 -10.09375 1.84375 -11.25 C 2.539062 -12.40625 3.503906 -13.3125 4.734375 -13.96875 C 5.960938 -14.625 7.335938 -14.953125 8.859375 -14.953125 C 10.390625 -14.953125 11.765625 -14.625 12.984375 -13.96875 C 14.203125 -13.3125 15.160156 -12.40625 15.859375 -11.25 C 16.554688 -10.09375 16.90625 -8.789062 16.90625 -7.34375 C 16.90625 -5.90625 16.554688 -4.609375 15.859375 -3.453125 C 15.160156 -2.296875 14.203125 -1.390625 12.984375 -0.734375 C 11.765625 -0.078125 10.390625 0.25 8.859375 0.25 Z M 8.859375 -2.640625 C 9.722656 -2.640625 10.503906 -2.835938 11.203125 -3.234375 C 11.910156 -3.640625 12.460938 -4.195312 12.859375 -4.90625 C 13.265625 -5.625 13.46875 -6.4375 13.46875 -7.34375 C 13.46875 -8.257812 13.265625 -9.070312 12.859375 -9.78125 C 12.460938 -10.5 11.910156 -11.054688 11.203125 -11.453125 C 10.503906 -11.847656 9.722656 -12.046875 8.859375 -12.046875 C 7.992188 -12.046875 7.207031 -11.847656 6.5 -11.453125 C 5.800781 -11.054688 5.253906 -10.5 4.859375 -9.78125 C 4.460938 -9.070312 4.265625 -8.257812 4.265625 -7.34375 C 4.265625 -6.4375 4.460938 -5.625 4.859375 -4.90625 C 5.253906 -4.195312 5.800781 -3.640625 6.5 -3.234375 C 7.207031 -2.835938 7.992188 -2.640625 8.859375 -2.640625 Z M 8.859375 -2.640625 "/></g></g></g><g fill="#1e1e1e" fill-opacity="1"><g transform="translate(142.347438, 87.375016)"><g><path d="M 1.75 -14.703125 L 5.140625 -14.703125 L 5.140625 -2.765625 L 12.515625 -2.765625 L 12.515625 0 L 1.75 0 Z M 1.75 -14.703125 "/></g></g></g><g fill="#1e1e1e" fill-opacity="1"><g transform="translate(153.764384, 87.375016)"><g><path d="M 1.75 -14.703125 L 5.140625 -14.703125 L 5.140625 0 L 1.75 0 Z M 1.75 -14.703125 "/></g></g></g><g fill="#1e1e1e" fill-opacity="1"><g transform="translate(159.38856, 87.375016)"><g><path d="M 8.859375 0.25 C 7.335938 0.25 5.960938 -0.078125 4.734375 -0.734375 C 3.503906 -1.390625 2.539062 -2.296875 1.84375 -3.453125 C 1.15625 -4.609375 0.8125 -5.90625 0.8125 -7.34375 C 0.8125 -8.789062 1.15625 -10.09375 1.84375 -11.25 C 2.539062 -12.40625 3.503906 -13.3125 4.734375 -13.96875 C 5.960938 -14.625 7.335938 -14.953125 8.859375 -14.953125 C 10.390625 -14.953125 11.765625 -14.625 12.984375 -13.96875 C 14.203125 -13.3125 15.160156 -12.40625 15.859375 -11.25 C 16.554688 -10.09375 16.90625 -8.789062 16.90625 -7.34375 C 16.90625 -5.90625 16.554688 -4.609375 15.859375 -3.453125 C 15.160156 -2.296875 14.203125 -1.390625 12.984375 -0.734375 C 11.765625 -0.078125 10.390625 0.25 8.859375 0.25 Z M 8.859375 -2.640625 C 9.722656 -2.640625 10.503906 -2.835938 11.203125 -3.234375 C 11.910156 -3.640625 12.460938 -4.195312 12.859375 -4.90625 C 13.265625 -5.625 13.46875 -6.4375 13.46875 -7.34375 C 13.46875 -8.257812 13.265625 -9.070312 12.859375 -9.78125 C 12.460938 -10.5 11.910156 -11.054688 11.203125 -11.453125 C 10.503906 -11.847656 9.722656 -12.046875 8.859375 -12.046875 C 7.992188 -12.046875 7.207031 -11.847656 6.5 -11.453125 C 5.800781 -11.054688 5.253906 -10.5 4.859375 -9.78125 C 4.460938 -9.070312 4.265625 -8.257812 4.265625 -7.34375 C 4.265625 -6.4375 4.460938 -5.625 4.859375 -4.90625 C 5.253906 -4.195312 5.800781 -3.640625 6.5 -3.234375 C 7.207031 -2.835938 7.992188 -2.640625 8.859375 -2.640625 Z M 8.859375 -2.640625 "/></g></g></g><g clip-path="url(#fec4f78026)"><path fill="#1e1e1e" d="M 206.992188 86.558594 L 211.921875 81.628906 C 212.261719 81.285156 212.261719 80.722656 211.921875 80.382812 L 206.992188 75.441406 C 206.648438 75.097656 206.085938 75.097656 205.746094 75.441406 C 205.402344 75.78125 205.402344 76.34375 205.746094 76.6875 L 209.175781 80.117188 L 188.1875 80.117188 C 187.703125 80.117188 187.304688 80.515625 187.304688 81 C 187.304688 81.484375 187.703125 81.882812 188.1875 81.882812 L 209.164062 81.882812 L 205.734375 85.3125 C 205.558594 85.488281 205.480469 85.707031 205.480469 85.941406 C 205.480469 86.171875 205.570312 86.390625 205.734375 86.570312 C 206.085938 86.898438 206.648438 86.898438 206.992188 86.558594 Z M 206.992188 86.558594 " fill-opacity="1" fill-rule="nonzero"/></g><g fill="#1e1e1e" fill-opacity="1"><g transform="translate(228.918847, 85.875016)"><g><path d="M 5.65625 -3.875 L 5.65625 0 L 4.5 0 L 4.5 -3.875 L 0.015625 -11.203125 L 1.28125 -11.203125 L 5.125 -4.90625 L 8.953125 -11.203125 L 10.140625 -11.203125 Z M 5.65625 -3.875 "/></g></g></g><g fill="#1e1e1e" fill-opacity="1"><g transform="translate(238.116417, 85.875016)"><g><path d="M 11.140625 -11.203125 L 6.171875 0 L 5.015625 0 L 0.046875 -11.203125 L 1.328125 -11.203125 L 5.609375 -1.46875 L 9.9375 -11.203125 Z M 11.140625 -11.203125 "/></g></g></g><g fill="#1e1e1e" fill-opacity="1"><g transform="translate(248.321743, 85.875016)"><g><path d="M 9.75 -1.03125 L 9.75 0 L 1.828125 0 L 1.828125 -11.203125 L 9.5 -11.203125 L 9.5 -10.171875 L 3.015625 -10.171875 L 3.015625 -6.1875 L 8.796875 -6.1875 L 8.796875 -5.1875 L 3.015625 -5.1875 L 3.015625 -1.03125 Z M 9.75 -1.03125 "/></g></g></g><g fill="#1e1e1e" fill-opacity="1"><g transform="translate(258.063182, 85.875016)"><g><path d="M 4 -10.171875 L 0.0625 -10.171875 L 0.0625 -11.203125 L 9.125 -11.203125 L 9.125 -10.171875 L 5.1875 -10.171875 L 5.1875 0 L 4 0 Z M 4 -10.171875 "/></g></g></g><g fill="#1e1e1e" fill-opacity="1"><g transform="translate(266.284983, 85.875016)"><g><path d="M 4 -10.171875 L 0.0625 -10.171875 L 0.0625 -11.203125 L 9.125 -11.203125 L 9.125 -10.171875 L 5.1875 -10.171875 L 5.1875 0 L 4 0 Z M 4 -10.171875 "/></g></g></g><g fill="#1e1e1e" fill-opacity="1"><g transform="translate(274.506784, 85.875016)"><g><path d="M 9.75 -1.03125 L 9.75 0 L 1.828125 0 L 1.828125 -11.203125 L 9.5 -11.203125 L 9.5 -10.171875 L 3.015625 -10.171875 L 3.015625 -6.1875 L 8.796875 -6.1875 L 8.796875 -5.1875 L 3.015625 -5.1875 L 3.015625 -1.03125 Z M 9.75 -1.03125 "/></g></g></g><g fill="#1e1e1e" fill-opacity="1"><g transform="translate(284.248224, 85.875016)"><g/></g></g><g fill="#1e1e1e" fill-opacity="1"><g transform="translate(287.479234, 85.875016)"><g><path d="M 1.828125 -11.203125 L 3.015625 -11.203125 L 3.015625 -1.03125 L 9.28125 -1.03125 L 9.28125 0 L 1.828125 0 Z M 1.828125 -11.203125 "/></g></g></g><g fill="#1e1e1e" fill-opacity="1"><g transform="translate(295.940984, 85.875016)"><g><path d="M 8.84375 -2.984375 L 2.609375 -2.984375 L 1.265625 0 L 0.03125 0 L 5.15625 -11.203125 L 6.3125 -11.203125 L 11.4375 0 L 10.1875 0 Z M 8.421875 -3.953125 L 5.734375 -9.96875 L 3.046875 -3.953125 Z M 8.421875 -3.953125 "/></g></g></g><g fill="#1e1e1e" fill-opacity="1"><g transform="translate(306.450241, 85.875016)"><g><path d="M 4.90625 0.09375 C 4.070312 0.09375 3.273438 -0.0351562 2.515625 -0.296875 C 1.753906 -0.566406 1.164062 -0.921875 0.75 -1.359375 L 1.21875 -2.265625 C 1.625 -1.859375 2.160156 -1.53125 2.828125 -1.28125 C 3.503906 -1.03125 4.195312 -0.90625 4.90625 -0.90625 C 5.914062 -0.90625 6.671875 -1.085938 7.171875 -1.453125 C 7.671875 -1.828125 7.921875 -2.304688 7.921875 -2.890625 C 7.921875 -3.335938 7.785156 -3.695312 7.515625 -3.96875 C 7.242188 -4.238281 6.910156 -4.441406 6.515625 -4.578125 C 6.117188 -4.722656 5.566406 -4.882812 4.859375 -5.0625 C 4.015625 -5.269531 3.34375 -5.472656 2.84375 -5.671875 C 2.34375 -5.867188 1.914062 -6.171875 1.5625 -6.578125 C 1.207031 -6.984375 1.03125 -7.53125 1.03125 -8.21875 C 1.03125 -8.789062 1.175781 -9.304688 1.46875 -9.765625 C 1.769531 -10.234375 2.226562 -10.601562 2.84375 -10.875 C 3.46875 -11.15625 4.238281 -11.296875 5.15625 -11.296875 C 5.789062 -11.296875 6.414062 -11.207031 7.03125 -11.03125 C 7.644531 -10.851562 8.175781 -10.609375 8.625 -10.296875 L 8.21875 -9.359375 C 7.75 -9.671875 7.25 -9.898438 6.71875 -10.046875 C 6.1875 -10.203125 5.664062 -10.28125 5.15625 -10.28125 C 4.175781 -10.28125 3.4375 -10.09375 2.9375 -9.71875 C 2.4375 -9.34375 2.1875 -8.851562 2.1875 -8.25 C 2.1875 -7.800781 2.320312 -7.441406 2.59375 -7.171875 C 2.875 -6.898438 3.21875 -6.691406 3.625 -6.546875 C 4.03125 -6.410156 4.582031 -6.253906 5.28125 -6.078125 C 6.101562 -5.878906 6.765625 -5.679688 7.265625 -5.484375 C 7.773438 -5.285156 8.207031 -4.984375 8.5625 -4.578125 C 8.914062 -4.179688 9.09375 -3.640625 9.09375 -2.953125 C 9.09375 -2.390625 8.9375 -1.875 8.625 -1.40625 C 8.320312 -0.945312 7.851562 -0.582031 7.21875 -0.3125 C 6.59375 -0.0390625 5.820312 0.09375 4.90625 0.09375 Z M 4.90625 0.09375 "/></g></g></g><g fill="#1e1e1e" fill-opacity="1"><g transform="translate(315.327892, 85.875016)"><g><path d="M 4 -10.171875 L 0.0625 -10.171875 L 0.0625 -11.203125 L 9.125 -11.203125 L 9.125 -10.171875 L 5.1875 -10.171875 L 5.1875 0 L 4 0 Z M 4 -10.171875 "/></g></g></g><g fill="#1e1e1e" fill-opacity="1"><g transform="translate(323.549694, 85.875016)"><g><path d="M 1.828125 -11.203125 L 3.015625 -11.203125 L 3.015625 0 L 1.828125 0 Z M 1.828125 -11.203125 "/></g></g></g><g fill="#1e1e1e" fill-opacity="1"><g transform="translate(327.420543, 85.875016)"><g><path d="M 6.6875 0.09375 C 5.582031 0.09375 4.582031 -0.148438 3.6875 -0.640625 C 2.800781 -1.128906 2.101562 -1.804688 1.59375 -2.671875 C 1.082031 -3.546875 0.828125 -4.519531 0.828125 -5.59375 C 0.828125 -6.675781 1.082031 -7.648438 1.59375 -8.515625 C 2.101562 -9.390625 2.804688 -10.070312 3.703125 -10.5625 C 4.597656 -11.050781 5.597656 -11.296875 6.703125 -11.296875 C 7.535156 -11.296875 8.300781 -11.15625 9 -10.875 C 9.707031 -10.601562 10.304688 -10.195312 10.796875 -9.65625 L 10.046875 -8.90625 C 9.171875 -9.789062 8.066406 -10.234375 6.734375 -10.234375 C 5.847656 -10.234375 5.039062 -10.03125 4.3125 -9.625 C 3.59375 -9.226562 3.023438 -8.675781 2.609375 -7.96875 C 2.203125 -7.257812 2 -6.46875 2 -5.59375 C 2 -4.71875 2.203125 -3.925781 2.609375 -3.21875 C 3.023438 -2.519531 3.59375 -1.96875 4.3125 -1.5625 C 5.039062 -1.15625 5.847656 -0.953125 6.734375 -0.953125 C 8.078125 -0.953125 9.179688 -1.398438 10.046875 -2.296875 L 10.796875 -1.546875 C 10.304688 -1.015625 9.707031 -0.609375 9 -0.328125 C 8.289062 -0.046875 7.519531 0.09375 6.6875 0.09375 Z M 6.6875 0.09375 "/></g></g></g><g fill="#1e1e1e" fill-opacity="1"><g transform="translate(337.961787, 85.875016)"><g><path d="M 8.84375 -2.984375 L 2.609375 -2.984375 L 1.265625 0 L 0.03125 0 L 5.15625 -11.203125 L 6.3125 -11.203125 L 11.4375 0 L 10.1875 0 Z M 8.421875 -3.953125 L 5.734375 -9.96875 L 3.046875 -3.953125 Z M 8.421875 -3.953125 "/></g></g></g><g fill="#1e1e1e" fill-opacity="1"><g transform="translate(44.660654, 733.874983)"><g><path d="M 8.296875 -11.296875 C 9.734375 -11.296875 11.015625 -11 12.140625 -10.40625 C 13.265625 -9.8125 14.140625 -8.976562 14.765625 -7.90625 C 15.398438 -6.832031 15.71875 -5.609375 15.71875 -4.234375 C 15.71875 -2.878906 15.476562 -1.820312 15 -1.0625 C 14.53125 -0.300781 13.882812 0.078125 13.0625 0.078125 C 12.53125 0.078125 12.101562 -0.0703125 11.78125 -0.375 C 11.457031 -0.6875 11.28125 -1.113281 11.25 -1.65625 C 10.925781 -1.101562 10.488281 -0.675781 9.9375 -0.375 C 9.382812 -0.0703125 8.753906 0.078125 8.046875 0.078125 C 7.296875 0.078125 6.617188 -0.0976562 6.015625 -0.453125 C 5.421875 -0.804688 4.945312 -1.296875 4.59375 -1.921875 C 4.25 -2.554688 4.078125 -3.269531 4.078125 -4.0625 C 4.078125 -4.851562 4.25 -5.5625 4.59375 -6.1875 C 4.945312 -6.8125 5.421875 -7.296875 6.015625 -7.640625 C 6.617188 -7.992188 7.296875 -8.171875 8.046875 -8.171875 C 8.734375 -8.171875 9.347656 -8.023438 9.890625 -7.734375 C 10.441406 -7.441406 10.882812 -7.03125 11.21875 -6.5 L 11.21875 -8.109375 L 12.25 -8.109375 L 12.25 -2.046875 C 12.25 -1.617188 12.335938 -1.304688 12.515625 -1.109375 C 12.703125 -0.921875 12.945312 -0.828125 13.25 -0.828125 C 13.75 -0.828125 14.144531 -1.125 14.4375 -1.71875 C 14.726562 -2.320312 14.875 -3.15625 14.875 -4.21875 C 14.875 -5.457031 14.597656 -6.546875 14.046875 -7.484375 C 13.492188 -8.429688 12.71875 -9.164062 11.71875 -9.6875 C 10.71875 -10.21875 9.578125 -10.484375 8.296875 -10.484375 C 7.015625 -10.484375 5.875 -10.210938 4.875 -9.671875 C 3.875 -9.128906 3.097656 -8.367188 2.546875 -7.390625 C 1.992188 -6.421875 1.71875 -5.3125 1.71875 -4.0625 C 1.71875 -2.8125 1.988281 -1.695312 2.53125 -0.71875 C 3.082031 0.257812 3.847656 1.019531 4.828125 1.5625 C 5.816406 2.113281 6.953125 2.390625 8.234375 2.390625 C 8.734375 2.390625 9.257812 2.328125 9.8125 2.203125 C 10.363281 2.085938 10.863281 1.914062 11.3125 1.6875 L 11.578125 2.46875 C 11.117188 2.695312 10.585938 2.875 9.984375 3 C 9.390625 3.132812 8.804688 3.203125 8.234375 3.203125 C 6.785156 3.203125 5.5 2.890625 4.375 2.265625 C 3.257812 1.648438 2.390625 0.789062 1.765625 -0.3125 C 1.140625 -1.414062 0.828125 -2.664062 0.828125 -4.0625 C 0.828125 -5.46875 1.140625 -6.71875 1.765625 -7.8125 C 2.398438 -8.90625 3.285156 -9.757812 4.421875 -10.375 C 5.554688 -10.988281 6.847656 -11.296875 8.296875 -11.296875 Z M 8.1875 -0.84375 C 8.769531 -0.84375 9.289062 -0.972656 9.75 -1.234375 C 10.207031 -1.503906 10.566406 -1.882812 10.828125 -2.375 C 11.097656 -2.863281 11.234375 -3.425781 11.234375 -4.0625 C 11.234375 -4.695312 11.097656 -5.253906 10.828125 -5.734375 C 10.566406 -6.222656 10.207031 -6.597656 9.75 -6.859375 C 9.289062 -7.117188 8.769531 -7.25 8.1875 -7.25 C 7.601562 -7.25 7.078125 -7.113281 6.609375 -6.84375 C 6.148438 -6.582031 5.789062 -6.210938 5.53125 -5.734375 C 5.269531 -5.253906 5.140625 -4.695312 5.140625 -4.0625 C 5.140625 -3.4375 5.269531 -2.878906 5.53125 -2.390625 C 5.789062 -1.898438 6.148438 -1.519531 6.609375 -1.25 C 7.078125 -0.976562 7.601562 -0.84375 8.1875 -0.84375 Z M 8.1875 -0.84375 "/></g></g></g><g fill="#1e1e1e" fill-opacity="1"><g transform="translate(60.864697, 733.874983)"><g><path d="M 5.65625 -3.875 L 5.65625 0 L 4.5 0 L 4.5 -3.875 L 0.015625 -11.203125 L 1.28125 -11.203125 L 5.125 -4.90625 L 8.953125 -11.203125 L 10.140625 -11.203125 Z M 5.65625 -3.875 "/></g></g></g><g fill="#1e1e1e" fill-opacity="1"><g transform="translate(70.702267, 733.874983)"><g><path d="M 8.65625 -8.421875 L 4.90625 0 L 3.75 0 L 0.015625 -8.421875 L 1.203125 -8.421875 L 4.359375 -1.25 L 7.53125 -8.421875 Z M 8.65625 -8.421875 "/></g></g></g><g fill="#1e1e1e" fill-opacity="1"><g transform="translate(79.052196, 733.874983)"><g><path d="M 3.84375 0.078125 C 3.15625 0.078125 2.5 -0.0195312 1.875 -0.21875 C 1.25 -0.414062 0.765625 -0.660156 0.421875 -0.953125 L 0.921875 -1.859375 C 1.273438 -1.578125 1.71875 -1.347656 2.25 -1.171875 C 2.789062 -0.992188 3.347656 -0.90625 3.921875 -0.90625 C 4.691406 -0.90625 5.257812 -1.023438 5.625 -1.265625 C 5.988281 -1.503906 6.171875 -1.84375 6.171875 -2.28125 C 6.171875 -2.59375 6.066406 -2.835938 5.859375 -3.015625 C 5.660156 -3.191406 5.40625 -3.320312 5.09375 -3.40625 C 4.789062 -3.5 4.382812 -3.59375 3.875 -3.6875 C 3.1875 -3.8125 2.632812 -3.9375 2.21875 -4.0625 C 1.800781 -4.195312 1.445312 -4.425781 1.15625 -4.75 C 0.863281 -5.070312 0.71875 -5.515625 0.71875 -6.078125 C 0.71875 -6.785156 1.007812 -7.363281 1.59375 -7.8125 C 2.1875 -8.257812 3.003906 -8.484375 4.046875 -8.484375 C 4.585938 -8.484375 5.128906 -8.410156 5.671875 -8.265625 C 6.222656 -8.117188 6.675781 -7.929688 7.03125 -7.703125 L 6.53125 -6.78125 C 5.832031 -7.257812 5.003906 -7.5 4.046875 -7.5 C 3.316406 -7.5 2.769531 -7.367188 2.40625 -7.109375 C 2.039062 -6.859375 1.859375 -6.523438 1.859375 -6.109375 C 1.859375 -5.785156 1.960938 -5.53125 2.171875 -5.34375 C 2.378906 -5.15625 2.632812 -5.015625 2.9375 -4.921875 C 3.25 -4.828125 3.675781 -4.734375 4.21875 -4.640625 C 4.894531 -4.515625 5.4375 -4.382812 5.84375 -4.25 C 6.25 -4.125 6.59375 -3.90625 6.875 -3.59375 C 7.164062 -3.289062 7.3125 -2.863281 7.3125 -2.3125 C 7.3125 -1.582031 7.003906 -1 6.390625 -0.5625 C 5.773438 -0.132812 4.925781 0.078125 3.84375 0.078125 Z M 3.84375 0.078125 "/></g></g></g><g fill="#1e1e1e" fill-opacity="1"><g transform="translate(86.554324, 733.874983)"><g><path d="M 10.359375 -2.9375 L 8.109375 -2.9375 L 8.109375 0 L 6.953125 0 L 6.953125 -2.9375 L 0.640625 -2.9375 L 0.640625 -3.78125 L 6.578125 -11.203125 L 7.859375 -11.203125 L 2.125 -3.96875 L 6.984375 -3.96875 L 6.984375 -6.5625 L 8.109375 -6.5625 L 8.109375 -3.96875 L 10.359375 -3.96875 Z M 10.359375 -2.9375 "/></g></g></g><g fill="#1e1e1e" fill-opacity="1"><g transform="translate(96.807795, 733.874983)"><g><path d="M 8.84375 -2.984375 L 2.609375 -2.984375 L 1.265625 0 L 0.03125 0 L 5.15625 -11.203125 L 6.3125 -11.203125 L 11.4375 0 L 10.1875 0 Z M 8.421875 -3.953125 L 5.734375 -9.96875 L 3.046875 -3.953125 Z M 8.421875 -3.953125 "/></g></g></g><g fill="#1e1e1e" fill-opacity="1"><g transform="translate(107.957052, 733.874983)"><g><path d="M 2.671875 -6.765625 C 2.941406 -7.328125 3.335938 -7.753906 3.859375 -8.046875 C 4.390625 -8.335938 5.046875 -8.484375 5.828125 -8.484375 L 5.828125 -7.375 L 5.546875 -7.390625 C 4.660156 -7.390625 3.96875 -7.117188 3.46875 -6.578125 C 2.96875 -6.035156 2.71875 -5.269531 2.71875 -4.28125 L 2.71875 0 L 1.578125 0 L 1.578125 -8.421875 L 2.671875 -8.421875 Z M 2.671875 -6.765625 "/></g></g></g><g fill="#1e1e1e" fill-opacity="1"><g transform="translate(114.051523, 733.874983)"><g><path d="M 6.015625 -0.515625 C 5.804688 -0.316406 5.539062 -0.164062 5.21875 -0.0625 C 4.90625 0.03125 4.578125 0.078125 4.234375 0.078125 C 3.453125 0.078125 2.847656 -0.132812 2.421875 -0.5625 C 1.992188 -0.988281 1.78125 -1.59375 1.78125 -2.375 L 1.78125 -7.453125 L 0.265625 -7.453125 L 0.265625 -8.421875 L 1.78125 -8.421875 L 1.78125 -10.25 L 2.90625 -10.25 L 2.90625 -8.421875 L 5.46875 -8.421875 L 5.46875 -7.453125 L 2.90625 -7.453125 L 2.90625 -2.4375 C 2.90625 -1.9375 3.03125 -1.550781 3.28125 -1.28125 C 3.53125 -1.019531 3.894531 -0.890625 4.375 -0.890625 C 4.601562 -0.890625 4.828125 -0.925781 5.046875 -1 C 5.265625 -1.082031 5.453125 -1.191406 5.609375 -1.328125 Z M 6.015625 -0.515625 "/></g></g></g><g fill="#1e1e1e" fill-opacity="1"><g transform="translate(120.225976, 733.874983)"><g/></g></g><g fill="#1e1e1e" fill-opacity="1"><g transform="translate(124.096986, 733.874983)"><g><path d="M 5.03125 0.078125 C 4.21875 0.078125 3.484375 -0.101562 2.828125 -0.46875 C 2.179688 -0.84375 1.671875 -1.351562 1.296875 -2 C 0.921875 -2.644531 0.734375 -3.378906 0.734375 -4.203125 C 0.734375 -5.023438 0.921875 -5.757812 1.296875 -6.40625 C 1.671875 -7.0625 2.179688 -7.570312 2.828125 -7.9375 C 3.484375 -8.300781 4.21875 -8.484375 5.03125 -8.484375 C 5.832031 -8.484375 6.554688 -8.300781 7.203125 -7.9375 C 7.859375 -7.570312 8.367188 -7.0625 8.734375 -6.40625 C 9.109375 -5.757812 9.296875 -5.023438 9.296875 -4.203125 C 9.296875 -3.378906 9.109375 -2.644531 8.734375 -2 C 8.367188 -1.351562 7.859375 -0.84375 7.203125 -0.46875 C 6.554688 -0.101562 5.832031 0.078125 5.03125 0.078125 Z M 5.03125 -0.921875 C 5.625 -0.921875 6.15625 -1.054688 6.625 -1.328125 C 7.101562 -1.609375 7.472656 -2 7.734375 -2.5 C 8.003906 -3 8.140625 -3.566406 8.140625 -4.203125 C 8.140625 -4.847656 8.003906 -5.421875 7.734375 -5.921875 C 7.472656 -6.421875 7.101562 -6.804688 6.625 -7.078125 C 6.15625 -7.347656 5.625 -7.484375 5.03125 -7.484375 C 4.425781 -7.484375 3.882812 -7.347656 3.40625 -7.078125 C 2.9375 -6.804688 2.566406 -6.421875 2.296875 -5.921875 C 2.023438 -5.421875 1.890625 -4.847656 1.890625 -4.203125 C 1.890625 -3.566406 2.023438 -3 2.296875 -2.5 C 2.566406 -2 2.9375 -1.609375 3.40625 -1.328125 C 3.882812 -1.054688 4.425781 -0.921875 5.03125 -0.921875 Z M 5.03125 -0.921875 "/></g></g></g><g fill="#1e1e1e" fill-opacity="1"><g transform="translate(133.806588, 733.874983)"><g><path d="M 5.875 -8.484375 C 6.925781 -8.484375 7.765625 -8.175781 8.390625 -7.5625 C 9.015625 -6.945312 9.328125 -6.050781 9.328125 -4.875 L 9.328125 0 L 8.1875 0 L 8.1875 -4.765625 C 8.1875 -5.640625 7.96875 -6.304688 7.53125 -6.765625 C 7.09375 -7.222656 6.46875 -7.453125 5.65625 -7.453125 C 4.75 -7.453125 4.03125 -7.179688 3.5 -6.640625 C 2.976562 -6.109375 2.71875 -5.367188 2.71875 -4.421875 L 2.71875 0 L 1.578125 0 L 1.578125 -8.421875 L 2.671875 -8.421875 L 2.671875 -6.859375 C 2.984375 -7.367188 3.410156 -7.765625 3.953125 -8.046875 C 4.503906 -8.335938 5.144531 -8.484375 5.875 -8.484375 Z M 5.875 -8.484375 "/></g></g></g><g fill="#1e1e1e" fill-opacity="1"><g transform="translate(144.315994, 733.874983)"><g/></g></g><g fill="#1e1e1e" fill-opacity="1"><g transform="translate(148.187004, 733.874983)"><g><path d="M 1.578125 -8.421875 L 2.71875 -8.421875 L 2.71875 0 L 1.578125 0 Z M 2.15625 -10.25 C 1.914062 -10.25 1.71875 -10.328125 1.5625 -10.484375 C 1.40625 -10.648438 1.328125 -10.847656 1.328125 -11.078125 C 1.328125 -11.285156 1.40625 -11.46875 1.5625 -11.625 C 1.71875 -11.789062 1.914062 -11.875 2.15625 -11.875 C 2.382812 -11.875 2.578125 -11.796875 2.734375 -11.640625 C 2.898438 -11.484375 2.984375 -11.300781 2.984375 -11.09375 C 2.984375 -10.851562 2.898438 -10.648438 2.734375 -10.484375 C 2.578125 -10.328125 2.382812 -10.25 2.15625 -10.25 Z M 2.15625 -10.25 "/></g></g></g><g fill="#1e1e1e" fill-opacity="1"><g transform="translate(152.169982, 733.874983)"><g><path d="M 5.875 -8.484375 C 6.925781 -8.484375 7.765625 -8.175781 8.390625 -7.5625 C 9.015625 -6.945312 9.328125 -6.050781 9.328125 -4.875 L 9.328125 0 L 8.1875 0 L 8.1875 -4.765625 C 8.1875 -5.640625 7.96875 -6.304688 7.53125 -6.765625 C 7.09375 -7.222656 6.46875 -7.453125 5.65625 -7.453125 C 4.75 -7.453125 4.03125 -7.179688 3.5 -6.640625 C 2.976562 -6.109375 2.71875 -5.367188 2.71875 -4.421875 L 2.71875 0 L 1.578125 0 L 1.578125 -8.421875 L 2.671875 -8.421875 L 2.671875 -6.859375 C 2.984375 -7.367188 3.410156 -7.765625 3.953125 -8.046875 C 4.503906 -8.335938 5.144531 -8.484375 5.875 -8.484375 Z M 5.875 -8.484375 "/></g></g></g><g fill="#1e1e1e" fill-opacity="1"><g transform="translate(162.679389, 733.874983)"><g><path d="M 3.84375 0.078125 C 3.15625 0.078125 2.5 -0.0195312 1.875 -0.21875 C 1.25 -0.414062 0.765625 -0.660156 0.421875 -0.953125 L 0.921875 -1.859375 C 1.273438 -1.578125 1.71875 -1.347656 2.25 -1.171875 C 2.789062 -0.992188 3.347656 -0.90625 3.921875 -0.90625 C 4.691406 -0.90625 5.257812 -1.023438 5.625 -1.265625 C 5.988281 -1.503906 6.171875 -1.84375 6.171875 -2.28125 C 6.171875 -2.59375 6.066406 -2.835938 5.859375 -3.015625 C 5.660156 -3.191406 5.40625 -3.320312 5.09375 -3.40625 C 4.789062 -3.5 4.382812 -3.59375 3.875 -3.6875 C 3.1875 -3.8125 2.632812 -3.9375 2.21875 -4.0625 C 1.800781 -4.195312 1.445312 -4.425781 1.15625 -4.75 C 0.863281 -5.070312 0.71875 -5.515625 0.71875 -6.078125 C 0.71875 -6.785156 1.007812 -7.363281 1.59375 -7.8125 C 2.1875 -8.257812 3.003906 -8.484375 4.046875 -8.484375 C 4.585938 -8.484375 5.128906 -8.410156 5.671875 -8.265625 C 6.222656 -8.117188 6.675781 -7.929688 7.03125 -7.703125 L 6.53125 -6.78125 C 5.832031 -7.257812 5.003906 -7.5 4.046875 -7.5 C 3.316406 -7.5 2.769531 -7.367188 2.40625 -7.109375 C 2.039062 -6.859375 1.859375 -6.523438 1.859375 -6.109375 C 1.859375 -5.785156 1.960938 -5.53125 2.171875 -5.34375 C 2.378906 -5.15625 2.632812 -5.015625 2.9375 -4.921875 C 3.25 -4.828125 3.675781 -4.734375 4.21875 -4.640625 C 4.894531 -4.515625 5.4375 -4.382812 5.84375 -4.25 C 6.25 -4.125 6.59375 -3.90625 6.875 -3.59375 C 7.164062 -3.289062 7.3125 -2.863281 7.3125 -2.3125 C 7.3125 -1.582031 7.003906 -1 6.390625 -0.5625 C 5.773438 -0.132812 4.925781 0.078125 3.84375 0.078125 Z M 3.84375 0.078125 "/></g></g></g><g fill="#1e1e1e" fill-opacity="1"><g transform="translate(170.181517, 733.874983)"><g><path d="M 6.015625 -0.515625 C 5.804688 -0.316406 5.539062 -0.164062 5.21875 -0.0625 C 4.90625 0.03125 4.578125 0.078125 4.234375 0.078125 C 3.453125 0.078125 2.847656 -0.132812 2.421875 -0.5625 C 1.992188 -0.988281 1.78125 -1.59375 1.78125 -2.375 L 1.78125 -7.453125 L 0.265625 -7.453125 L 0.265625 -8.421875 L 1.78125 -8.421875 L 1.78125 -10.25 L 2.90625 -10.25 L 2.90625 -8.421875 L 5.46875 -8.421875 L 5.46875 -7.453125 L 2.90625 -7.453125 L 2.90625 -2.4375 C 2.90625 -1.9375 3.03125 -1.550781 3.28125 -1.28125 C 3.53125 -1.019531 3.894531 -0.890625 4.375 -0.890625 C 4.601562 -0.890625 4.828125 -0.925781 5.046875 -1 C 5.265625 -1.082031 5.453125 -1.191406 5.609375 -1.328125 Z M 6.015625 -0.515625 "/></g></g></g><g fill="#1e1e1e" fill-opacity="1"><g transform="translate(176.355971, 733.874983)"><g><path d="M 4.53125 -8.484375 C 5.625 -8.484375 6.460938 -8.207031 7.046875 -7.65625 C 7.640625 -7.101562 7.9375 -6.289062 7.9375 -5.21875 L 7.9375 0 L 6.84375 0 L 6.84375 -1.3125 C 6.59375 -0.875 6.21875 -0.53125 5.71875 -0.28125 C 5.21875 -0.0390625 4.628906 0.078125 3.953125 0.078125 C 3.015625 0.078125 2.265625 -0.144531 1.703125 -0.59375 C 1.148438 -1.039062 0.875 -1.632812 0.875 -2.375 C 0.875 -3.082031 1.132812 -3.65625 1.65625 -4.09375 C 2.175781 -4.53125 3 -4.75 4.125 -4.75 L 6.796875 -4.75 L 6.796875 -5.265625 C 6.796875 -5.992188 6.59375 -6.546875 6.1875 -6.921875 C 5.78125 -7.296875 5.191406 -7.484375 4.421875 -7.484375 C 3.878906 -7.484375 3.363281 -7.394531 2.875 -7.21875 C 2.382812 -7.039062 1.960938 -6.800781 1.609375 -6.5 L 1.109375 -7.34375 C 1.535156 -7.707031 2.046875 -7.988281 2.640625 -8.1875 C 3.234375 -8.382812 3.863281 -8.484375 4.53125 -8.484375 Z M 4.125 -0.8125 C 4.769531 -0.8125 5.320312 -0.957031 5.78125 -1.25 C 6.238281 -1.550781 6.578125 -1.976562 6.796875 -2.53125 L 6.796875 -3.90625 L 4.15625 -3.90625 C 2.71875 -3.90625 2 -3.40625 2 -2.40625 C 2 -1.90625 2.1875 -1.515625 2.5625 -1.234375 C 2.9375 -0.953125 3.457031 -0.8125 4.125 -0.8125 Z M 4.125 -0.8125 "/></g></g></g><g fill="#1e1e1e" fill-opacity="1"><g transform="translate(320.353935, 733.874983)"><g><path d="M 8.65625 -8.421875 L 4.453125 1.015625 C 4.109375 1.796875 3.710938 2.351562 3.265625 2.6875 C 2.816406 3.019531 2.273438 3.1875 1.640625 3.1875 C 1.242188 3.1875 0.867188 3.117188 0.515625 2.984375 C 0.160156 2.859375 -0.144531 2.671875 -0.40625 2.421875 L 0.125 1.5625 C 0.550781 1.988281 1.0625 2.203125 1.65625 2.203125 C 2.039062 2.203125 2.367188 2.09375 2.640625 1.875 C 2.921875 1.664062 3.175781 1.304688 3.40625 0.796875 L 3.78125 -0.015625 L 0.015625 -8.421875 L 1.203125 -8.421875 L 4.375 -1.265625 L 7.53125 -8.421875 Z M 8.65625 -8.421875 "/></g></g></g><g fill="#1e1e1e" fill-opacity="1"><g transform="translate(328.703864, 733.874983)"><g><path d="M 8.65625 -8.421875 L 4.90625 0 L 3.75 0 L 0.015625 -8.421875 L 1.203125 -8.421875 L 4.359375 -1.25 L 7.53125 -8.421875 Z M 8.65625 -8.421875 "/></g></g></g><g fill="#1e1e1e" fill-opacity="1"><g transform="translate(337.053793, 733.874983)"><g><path d="M 8.90625 -3.859375 L 1.875 -3.859375 C 1.9375 -2.984375 2.269531 -2.273438 2.875 -1.734375 C 3.488281 -1.191406 4.257812 -0.921875 5.1875 -0.921875 C 5.707031 -0.921875 6.1875 -1.015625 6.625 -1.203125 C 7.0625 -1.390625 7.441406 -1.664062 7.765625 -2.03125 L 8.40625 -1.296875 C 8.03125 -0.847656 7.5625 -0.503906 7 -0.265625 C 6.4375 -0.0351562 5.820312 0.078125 5.15625 0.078125 C 4.289062 0.078125 3.523438 -0.101562 2.859375 -0.46875 C 2.191406 -0.84375 1.671875 -1.351562 1.296875 -2 C 0.921875 -2.644531 0.734375 -3.378906 0.734375 -4.203125 C 0.734375 -5.023438 0.910156 -5.757812 1.265625 -6.40625 C 1.628906 -7.0625 2.125 -7.570312 2.75 -7.9375 C 3.375 -8.300781 4.070312 -8.484375 4.84375 -8.484375 C 5.625 -8.484375 6.320312 -8.300781 6.9375 -7.9375 C 7.5625 -7.570312 8.046875 -7.066406 8.390625 -6.421875 C 8.742188 -5.773438 8.921875 -5.035156 8.921875 -4.203125 Z M 4.84375 -7.5 C 4.03125 -7.5 3.347656 -7.238281 2.796875 -6.71875 C 2.253906 -6.207031 1.945312 -5.535156 1.875 -4.703125 L 7.84375 -4.703125 C 7.769531 -5.535156 7.457031 -6.207031 6.90625 -6.71875 C 6.351562 -7.238281 5.664062 -7.5 4.84375 -7.5 Z M 4.84375 -7.5 "/></g></g></g><g fill="#1e1e1e" fill-opacity="1"><g transform="translate(346.395479, 733.874983)"><g><path d="M 6.015625 -0.515625 C 5.804688 -0.316406 5.539062 -0.164062 5.21875 -0.0625 C 4.90625 0.03125 4.578125 0.078125 4.234375 0.078125 C 3.453125 0.078125 2.847656 -0.132812 2.421875 -0.5625 C 1.992188 -0.988281 1.78125 -1.59375 1.78125 -2.375 L 1.78125 -7.453125 L 0.265625 -7.453125 L 0.265625 -8.421875 L 1.78125 -8.421875 L 1.78125 -10.25 L 2.90625 -10.25 L 2.90625 -8.421875 L 5.46875 -8.421875 L 5.46875 -7.453125 L 2.90625 -7.453125 L 2.90625 -2.4375 C 2.90625 -1.9375 3.03125 -1.550781 3.28125 -1.28125 C 3.53125 -1.019531 3.894531 -0.890625 4.375 -0.890625 C 4.601562 -0.890625 4.828125 -0.925781 5.046875 -1 C 5.265625 -1.082031 5.453125 -1.191406 5.609375 -1.328125 Z M 6.015625 -0.515625 "/></g></g></g><g fill="#1e1e1e" fill-opacity="1"><g transform="translate(352.569933, 733.874983)"><g><path d="M 6.015625 -0.515625 C 5.804688 -0.316406 5.539062 -0.164062 5.21875 -0.0625 C 4.90625 0.03125 4.578125 0.078125 4.234375 0.078125 C 3.453125 0.078125 2.847656 -0.132812 2.421875 -0.5625 C 1.992188 -0.988281 1.78125 -1.59375 1.78125 -2.375 L 1.78125 -7.453125 L 0.265625 -7.453125 L 0.265625 -8.421875 L 1.78125 -8.421875 L 1.78125 -10.25 L 2.90625 -10.25 L 2.90625 -8.421875 L 5.46875 -8.421875 L 5.46875 -7.453125 L 2.90625 -7.453125 L 2.90625 -2.4375 C 2.90625 -1.9375 3.03125 -1.550781 3.28125 -1.28125 C 3.53125 -1.019531 3.894531 -0.890625 4.375 -0.890625 C 4.601562 -0.890625 4.828125 -0.925781 5.046875 -1 C 5.265625 -1.082031 5.453125 -1.191406 5.609375 -1.328125 Z M 6.015625 -0.515625 "/></g></g></g><g fill="#1e1e1e" fill-opacity="1"><g transform="translate(358.744386, 733.874983)"><g><path d="M 8.90625 -3.859375 L 1.875 -3.859375 C 1.9375 -2.984375 2.269531 -2.273438 2.875 -1.734375 C 3.488281 -1.191406 4.257812 -0.921875 5.1875 -0.921875 C 5.707031 -0.921875 6.1875 -1.015625 6.625 -1.203125 C 7.0625 -1.390625 7.441406 -1.664062 7.765625 -2.03125 L 8.40625 -1.296875 C 8.03125 -0.847656 7.5625 -0.503906 7 -0.265625 C 6.4375 -0.0351562 5.820312 0.078125 5.15625 0.078125 C 4.289062 0.078125 3.523438 -0.101562 2.859375 -0.46875 C 2.191406 -0.84375 1.671875 -1.351562 1.296875 -2 C 0.921875 -2.644531 0.734375 -3.378906 0.734375 -4.203125 C 0.734375 -5.023438 0.910156 -5.757812 1.265625 -6.40625 C 1.628906 -7.0625 2.125 -7.570312 2.75 -7.9375 C 3.375 -8.300781 4.070312 -8.484375 4.84375 -8.484375 C 5.625 -8.484375 6.320312 -8.300781 6.9375 -7.9375 C 7.5625 -7.570312 8.046875 -7.066406 8.390625 -6.421875 C 8.742188 -5.773438 8.921875 -5.035156 8.921875 -4.203125 Z M 4.84375 -7.5 C 4.03125 -7.5 3.347656 -7.238281 2.796875 -6.71875 C 2.253906 -6.207031 1.945312 -5.535156 1.875 -4.703125 L 7.84375 -4.703125 C 7.769531 -5.535156 7.457031 -6.207031 6.90625 -6.71875 C 6.351562 -7.238281 5.664062 -7.5 4.84375 -7.5 Z M 4.84375 -7.5 "/></g></g></g><g fill="#1e1e1e" fill-opacity="1"><g transform="translate(368.086072, 733.874983)"><g><path d="M 1.578125 -11.875 L 2.71875 -11.875 L 2.71875 0 L 1.578125 0 Z M 1.578125 -11.875 "/></g></g></g><g fill="#1e1e1e" fill-opacity="1"><g transform="translate(372.069051, 733.874983)"><g><path d="M 4.53125 -8.484375 C 5.625 -8.484375 6.460938 -8.207031 7.046875 -7.65625 C 7.640625 -7.101562 7.9375 -6.289062 7.9375 -5.21875 L 7.9375 0 L 6.84375 0 L 6.84375 -1.3125 C 6.59375 -0.875 6.21875 -0.53125 5.71875 -0.28125 C 5.21875 -0.0390625 4.628906 0.078125 3.953125 0.078125 C 3.015625 0.078125 2.265625 -0.144531 1.703125 -0.59375 C 1.148438 -1.039062 0.875 -1.632812 0.875 -2.375 C 0.875 -3.082031 1.132812 -3.65625 1.65625 -4.09375 C 2.175781 -4.53125 3 -4.75 4.125 -4.75 L 6.796875 -4.75 L 6.796875 -5.265625 C 6.796875 -5.992188 6.59375 -6.546875 6.1875 -6.921875 C 5.78125 -7.296875 5.191406 -7.484375 4.421875 -7.484375 C 3.878906 -7.484375 3.363281 -7.394531 2.875 -7.21875 C 2.382812 -7.039062 1.960938 -6.800781 1.609375 -6.5 L 1.109375 -7.34375 C 1.535156 -7.707031 2.046875 -7.988281 2.640625 -8.1875 C 3.234375 -8.382812 3.863281 -8.484375 4.53125 -8.484375 Z M 4.125 -0.8125 C 4.769531 -0.8125 5.320312 -0.957031 5.78125 -1.25 C 6.238281 -1.550781 6.578125 -1.976562 6.796875 -2.53125 L 6.796875 -3.90625 L 4.15625 -3.90625 C 2.71875 -3.90625 2 -3.40625 2 -2.40625 C 2 -1.90625 2.1875 -1.515625 2.5625 -1.234375 C 2.9375 -0.953125 3.457031 -0.8125 4.125 -0.8125 Z M 4.125 -0.8125 "/></g></g></g><g fill="#1e1e1e" fill-opacity="1"><g transform="translate(381.186798, 733.874983)"><g><path d="M 3.84375 0.078125 C 3.15625 0.078125 2.5 -0.0195312 1.875 -0.21875 C 1.25 -0.414062 0.765625 -0.660156 0.421875 -0.953125 L 0.921875 -1.859375 C 1.273438 -1.578125 1.71875 -1.347656 2.25 -1.171875 C 2.789062 -0.992188 3.347656 -0.90625 3.921875 -0.90625 C 4.691406 -0.90625 5.257812 -1.023438 5.625 -1.265625 C 5.988281 -1.503906 6.171875 -1.84375 6.171875 -2.28125 C 6.171875 -2.59375 6.066406 -2.835938 5.859375 -3.015625 C 5.660156 -3.191406 5.40625 -3.320312 5.09375 -3.40625 C 4.789062 -3.5 4.382812 -3.59375 3.875 -3.6875 C 3.1875 -3.8125 2.632812 -3.9375 2.21875 -4.0625 C 1.800781 -4.195312 1.445312 -4.425781 1.15625 -4.75 C 0.863281 -5.070312 0.71875 -5.515625 0.71875 -6.078125 C 0.71875 -6.785156 1.007812 -7.363281 1.59375 -7.8125 C 2.1875 -8.257812 3.003906 -8.484375 4.046875 -8.484375 C 4.585938 -8.484375 5.128906 -8.410156 5.671875 -8.265625 C 6.222656 -8.117188 6.675781 -7.929688 7.03125 -7.703125 L 6.53125 -6.78125 C 5.832031 -7.257812 5.003906 -7.5 4.046875 -7.5 C 3.316406 -7.5 2.769531 -7.367188 2.40625 -7.109375 C 2.039062 -6.859375 1.859375 -6.523438 1.859375 -6.109375 C 1.859375 -5.785156 1.960938 -5.53125 2.171875 -5.34375 C 2.378906 -5.15625 2.632812 -5.015625 2.9375 -4.921875 C 3.25 -4.828125 3.675781 -4.734375 4.21875 -4.640625 C 4.894531 -4.515625 5.4375 -4.382812 5.84375 -4.25 C 6.25 -4.125 6.59375 -3.90625 6.875 -3.59375 C 7.164062 -3.289062 7.3125 -2.863281 7.3125 -2.3125 C 7.3125 -1.582031 7.003906 -1 6.390625 -0.5625 C 5.773438 -0.132812 4.925781 0.078125 3.84375 0.078125 Z M 3.84375 0.078125 "/></g></g></g><g fill="#1e1e1e" fill-opacity="1"><g transform="translate(388.688927, 733.874983)"><g><path d="M 6.015625 -0.515625 C 5.804688 -0.316406 5.539062 -0.164062 5.21875 -0.0625 C 4.90625 0.03125 4.578125 0.078125 4.234375 0.078125 C 3.453125 0.078125 2.847656 -0.132812 2.421875 -0.5625 C 1.992188 -0.988281 1.78125 -1.59375 1.78125 -2.375 L 1.78125 -7.453125 L 0.265625 -7.453125 L 0.265625 -8.421875 L 1.78125 -8.421875 L 1.78125 -10.25 L 2.90625 -10.25 L 2.90625 -8.421875 L 5.46875 -8.421875 L 5.46875 -7.453125 L 2.90625 -7.453125 L 2.90625 -2.4375 C 2.90625 -1.9375 3.03125 -1.550781 3.28125 -1.28125 C 3.53125 -1.019531 3.894531 -0.890625 4.375 -0.890625 C 4.601562 -0.890625 4.828125 -0.925781 5.046875 -1 C 5.265625 -1.082031 5.453125 -1.191406 5.609375 -1.328125 Z M 6.015625 -0.515625 "/></g></g></g><g fill="#1e1e1e" fill-opacity="1"><g transform="translate(394.86338, 733.874983)"><g><path d="M 1.578125 -8.421875 L 2.71875 -8.421875 L 2.71875 0 L 1.578125 0 Z M 2.15625 -10.25 C 1.914062 -10.25 1.71875 -10.328125 1.5625 -10.484375 C 1.40625 -10.648438 1.328125 -10.847656 1.328125 -11.078125 C 1.328125 -11.285156 1.40625 -11.46875 1.5625 -11.625 C 1.71875 -11.789062 1.914062 -11.875 2.15625 -11.875 C 2.382812 -11.875 2.578125 -11.796875 2.734375 -11.640625 C 2.898438 -11.484375 2.984375 -11.300781 2.984375 -11.09375 C 2.984375 -10.851562 2.898438 -10.648438 2.734375 -10.484375 C 2.578125 -10.328125 2.382812 -10.25 2.15625 -10.25 Z M 2.15625 -10.25 "/></g></g></g><g fill="#1e1e1e" fill-opacity="1"><g transform="translate(398.846359, 733.874983)"><g><path d="M 5.078125 0.078125 C 4.242188 0.078125 3.5 -0.101562 2.84375 -0.46875 C 2.1875 -0.832031 1.671875 -1.335938 1.296875 -1.984375 C 0.921875 -2.640625 0.734375 -3.378906 0.734375 -4.203125 C 0.734375 -5.023438 0.921875 -5.757812 1.296875 -6.40625 C 1.671875 -7.0625 2.1875 -7.570312 2.84375 -7.9375 C 3.5 -8.300781 4.242188 -8.484375 5.078125 -8.484375 C 5.796875 -8.484375 6.441406 -8.335938 7.015625 -8.046875 C 7.585938 -7.765625 8.039062 -7.351562 8.375 -6.8125 L 7.515625 -6.234375 C 7.242188 -6.648438 6.894531 -6.960938 6.46875 -7.171875 C 6.039062 -7.378906 5.578125 -7.484375 5.078125 -7.484375 C 4.460938 -7.484375 3.910156 -7.347656 3.421875 -7.078125 C 2.941406 -6.804688 2.566406 -6.421875 2.296875 -5.921875 C 2.023438 -5.421875 1.890625 -4.847656 1.890625 -4.203125 C 1.890625 -3.554688 2.023438 -2.984375 2.296875 -2.484375 C 2.566406 -1.992188 2.941406 -1.609375 3.421875 -1.328125 C 3.910156 -1.054688 4.460938 -0.921875 5.078125 -0.921875 C 5.578125 -0.921875 6.039062 -1.019531 6.46875 -1.21875 C 6.894531 -1.425781 7.242188 -1.738281 7.515625 -2.15625 L 8.375 -1.578125 C 8.039062 -1.035156 7.582031 -0.625 7 -0.34375 C 6.425781 -0.0625 5.785156 0.078125 5.078125 0.078125 Z M 5.078125 0.078125 "/></g></g></g><g fill="#1e1e1e" fill-opacity="1"><g transform="translate(407.532206, 733.874983)"><g><path d="M 4.53125 -8.484375 C 5.625 -8.484375 6.460938 -8.207031 7.046875 -7.65625 C 7.640625 -7.101562 7.9375 -6.289062 7.9375 -5.21875 L 7.9375 0 L 6.84375 0 L 6.84375 -1.3125 C 6.59375 -0.875 6.21875 -0.53125 5.71875 -0.28125 C 5.21875 -0.0390625 4.628906 0.078125 3.953125 0.078125 C 3.015625 0.078125 2.265625 -0.144531 1.703125 -0.59375 C 1.148438 -1.039062 0.875 -1.632812 0.875 -2.375 C 0.875 -3.082031 1.132812 -3.65625 1.65625 -4.09375 C 2.175781 -4.53125 3 -4.75 4.125 -4.75 L 6.796875 -4.75 L 6.796875 -5.265625 C 6.796875 -5.992188 6.59375 -6.546875 6.1875 -6.921875 C 5.78125 -7.296875 5.191406 -7.484375 4.421875 -7.484375 C 3.878906 -7.484375 3.363281 -7.394531 2.875 -7.21875 C 2.382812 -7.039062 1.960938 -6.800781 1.609375 -6.5 L 1.109375 -7.34375 C 1.535156 -7.707031 2.046875 -7.988281 2.640625 -8.1875 C 3.234375 -8.382812 3.863281 -8.484375 4.53125 -8.484375 Z M 4.125 -0.8125 C 4.769531 -0.8125 5.320312 -0.957031 5.78125 -1.25 C 6.238281 -1.550781 6.578125 -1.976562 6.796875 -2.53125 L 6.796875 -3.90625 L 4.15625 -3.90625 C 2.71875 -3.90625 2 -3.40625 2 -2.40625 C 2 -1.90625 2.1875 -1.515625 2.5625 -1.234375 C 2.9375 -0.953125 3.457031 -0.8125 4.125 -0.8125 Z M 4.125 -0.8125 "/></g></g></g><g fill="#1e1e1e" fill-opacity="1"><g transform="translate(416.649954, 733.874983)"><g><path d="M 8.296875 -11.296875 C 9.734375 -11.296875 11.015625 -11 12.140625 -10.40625 C 13.265625 -9.8125 14.140625 -8.976562 14.765625 -7.90625 C 15.398438 -6.832031 15.71875 -5.609375 15.71875 -4.234375 C 15.71875 -2.878906 15.476562 -1.820312 15 -1.0625 C 14.53125 -0.300781 13.882812 0.078125 13.0625 0.078125 C 12.53125 0.078125 12.101562 -0.0703125 11.78125 -0.375 C 11.457031 -0.6875 11.28125 -1.113281 11.25 -1.65625 C 10.925781 -1.101562 10.488281 -0.675781 9.9375 -0.375 C 9.382812 -0.0703125 8.753906 0.078125 8.046875 0.078125 C 7.296875 0.078125 6.617188 -0.0976562 6.015625 -0.453125 C 5.421875 -0.804688 4.945312 -1.296875 4.59375 -1.921875 C 4.25 -2.554688 4.078125 -3.269531 4.078125 -4.0625 C 4.078125 -4.851562 4.25 -5.5625 4.59375 -6.1875 C 4.945312 -6.8125 5.421875 -7.296875 6.015625 -7.640625 C 6.617188 -7.992188 7.296875 -8.171875 8.046875 -8.171875 C 8.734375 -8.171875 9.347656 -8.023438 9.890625 -7.734375 C 10.441406 -7.441406 10.882812 -7.03125 11.21875 -6.5 L 11.21875 -8.109375 L 12.25 -8.109375 L 12.25 -2.046875 C 12.25 -1.617188 12.335938 -1.304688 12.515625 -1.109375 C 12.703125 -0.921875 12.945312 -0.828125 13.25 -0.828125 C 13.75 -0.828125 14.144531 -1.125 14.4375 -1.71875 C 14.726562 -2.320312 14.875 -3.15625 14.875 -4.21875 C 14.875 -5.457031 14.597656 -6.546875 14.046875 -7.484375 C 13.492188 -8.429688 12.71875 -9.164062 11.71875 -9.6875 C 10.71875 -10.21875 9.578125 -10.484375 8.296875 -10.484375 C 7.015625 -10.484375 5.875 -10.210938 4.875 -9.671875 C 3.875 -9.128906 3.097656 -8.367188 2.546875 -7.390625 C 1.992188 -6.421875 1.71875 -5.3125 1.71875 -4.0625 C 1.71875 -2.8125 1.988281 -1.695312 2.53125 -0.71875 C 3.082031 0.257812 3.847656 1.019531 4.828125 1.5625 C 5.816406 2.113281 6.953125 2.390625 8.234375 2.390625 C 8.734375 2.390625 9.257812 2.328125 9.8125 2.203125 C 10.363281 2.085938 10.863281 1.914062 11.3125 1.6875 L 11.578125 2.46875 C 11.117188 2.695312 10.585938 2.875 9.984375 3 C 9.390625 3.132812 8.804688 3.203125 8.234375 3.203125 C 6.785156 3.203125 5.5 2.890625 4.375 2.265625 C 3.257812 1.648438 2.390625 0.789062 1.765625 -0.3125 C 1.140625 -1.414062 0.828125 -2.664062 0.828125 -4.0625 C 0.828125 -5.46875 1.140625 -6.71875 1.765625 -7.8125 C 2.398438 -8.90625 3.285156 -9.757812 4.421875 -10.375 C 5.554688 -10.988281 6.847656 -11.296875 8.296875 -11.296875 Z M 8.1875 -0.84375 C 8.769531 -0.84375 9.289062 -0.972656 9.75 -1.234375 C 10.207031 -1.503906 10.566406 -1.882812 10.828125 -2.375 C 11.097656 -2.863281 11.234375 -3.425781 11.234375 -4.0625 C 11.234375 -4.695312 11.097656 -5.253906 10.828125 -5.734375 C 10.566406 -6.222656 10.207031 -6.597656 9.75 -6.859375 C 9.289062 -7.117188 8.769531 -7.25 8.1875 -7.25 C 7.601562 -7.25 7.078125 -7.113281 6.609375 -6.84375 C 6.148438 -6.582031 5.789062 -6.210938 5.53125 -5.734375 C 5.269531 -5.253906 5.140625 -4.695312 5.140625 -4.0625 C 5.140625 -3.4375 5.269531 -2.878906 5.53125 -2.390625 C 5.789062 -1.898438 6.148438 -1.519531 6.609375 -1.25 C 7.078125 -0.976562 7.601562 -0.84375 8.1875 -0.84375 Z M 8.1875 -0.84375 "/></g></g></g><g fill="#1e1e1e" fill-opacity="1"><g transform="translate(432.853997, 733.874983)"><g><path d="M 9.375 -8.421875 L 9.375 -1.03125 C 9.375 0.40625 9.023438 1.46875 8.328125 2.15625 C 7.628906 2.84375 6.578125 3.1875 5.171875 3.1875 C 4.390625 3.1875 3.648438 3.070312 2.953125 2.84375 C 2.253906 2.613281 1.6875 2.296875 1.25 1.890625 L 1.828125 1.03125 C 2.234375 1.382812 2.722656 1.660156 3.296875 1.859375 C 3.878906 2.066406 4.492188 2.171875 5.140625 2.171875 C 6.203125 2.171875 6.984375 1.921875 7.484375 1.421875 C 7.984375 0.929688 8.234375 0.164062 8.234375 -0.875 L 8.234375 -1.953125 C 7.890625 -1.421875 7.429688 -1.015625 6.859375 -0.734375 C 6.285156 -0.453125 5.648438 -0.3125 4.953125 -0.3125 C 4.171875 -0.3125 3.457031 -0.484375 2.8125 -0.828125 C 2.164062 -1.179688 1.65625 -1.671875 1.28125 -2.296875 C 0.914062 -2.921875 0.734375 -3.628906 0.734375 -4.421875 C 0.734375 -5.203125 0.914062 -5.898438 1.28125 -6.515625 C 1.65625 -7.140625 2.160156 -7.625 2.796875 -7.96875 C 3.441406 -8.3125 4.160156 -8.484375 4.953125 -8.484375 C 5.671875 -8.484375 6.316406 -8.335938 6.890625 -8.046875 C 7.472656 -7.753906 7.9375 -7.335938 8.28125 -6.796875 L 8.28125 -8.421875 Z M 5.078125 -1.328125 C 5.679688 -1.328125 6.226562 -1.457031 6.71875 -1.71875 C 7.207031 -1.976562 7.585938 -2.34375 7.859375 -2.8125 C 8.128906 -3.28125 8.265625 -3.816406 8.265625 -4.421875 C 8.265625 -5.015625 8.128906 -5.539062 7.859375 -6 C 7.585938 -6.46875 7.207031 -6.832031 6.71875 -7.09375 C 6.238281 -7.351562 5.691406 -7.484375 5.078125 -7.484375 C 4.460938 -7.484375 3.910156 -7.351562 3.421875 -7.09375 C 2.941406 -6.84375 2.566406 -6.484375 2.296875 -6.015625 C 2.023438 -5.546875 1.890625 -5.015625 1.890625 -4.421875 C 1.890625 -3.816406 2.023438 -3.28125 2.296875 -2.8125 C 2.566406 -2.34375 2.941406 -1.976562 3.421875 -1.71875 C 3.910156 -1.457031 4.460938 -1.328125 5.078125 -1.328125 Z M 5.078125 -1.328125 "/></g></g></g><g fill="#1e1e1e" fill-opacity="1"><g transform="translate(443.507371, 733.874983)"><g><path d="M 12.078125 -8.484375 C 13.128906 -8.484375 13.957031 -8.175781 14.5625 -7.5625 C 15.164062 -6.957031 15.46875 -6.0625 15.46875 -4.875 L 15.46875 0 L 14.34375 0 L 14.34375 -4.765625 C 14.34375 -5.640625 14.128906 -6.304688 13.703125 -6.765625 C 13.285156 -7.222656 12.691406 -7.453125 11.921875 -7.453125 C 11.046875 -7.453125 10.359375 -7.179688 9.859375 -6.640625 C 9.359375 -6.109375 9.109375 -5.367188 9.109375 -4.421875 L 9.109375 0 L 7.96875 0 L 7.96875 -4.765625 C 7.96875 -5.640625 7.753906 -6.304688 7.328125 -6.765625 C 6.910156 -7.222656 6.3125 -7.453125 5.53125 -7.453125 C 4.664062 -7.453125 3.976562 -7.179688 3.46875 -6.640625 C 2.96875 -6.109375 2.71875 -5.367188 2.71875 -4.421875 L 2.71875 0 L 1.578125 0 L 1.578125 -8.421875 L 2.671875 -8.421875 L 2.671875 -6.875 C 2.972656 -7.382812 3.390625 -7.78125 3.921875 -8.0625 C 4.453125 -8.34375 5.066406 -8.484375 5.765625 -8.484375 C 6.460938 -8.484375 7.070312 -8.332031 7.59375 -8.03125 C 8.113281 -7.726562 8.5 -7.285156 8.75 -6.703125 C 9.0625 -7.253906 9.503906 -7.6875 10.078125 -8 C 10.660156 -8.320312 11.328125 -8.484375 12.078125 -8.484375 Z M 12.078125 -8.484375 "/></g></g></g><g fill="#1e1e1e" fill-opacity="1"><g transform="translate(460.159302, 733.874983)"><g><path d="M 4.53125 -8.484375 C 5.625 -8.484375 6.460938 -8.207031 7.046875 -7.65625 C 7.640625 -7.101562 7.9375 -6.289062 7.9375 -5.21875 L 7.9375 0 L 6.84375 0 L 6.84375 -1.3125 C 6.59375 -0.875 6.21875 -0.53125 5.71875 -0.28125 C 5.21875 -0.0390625 4.628906 0.078125 3.953125 0.078125 C 3.015625 0.078125 2.265625 -0.144531 1.703125 -0.59375 C 1.148438 -1.039062 0.875 -1.632812 0.875 -2.375 C 0.875 -3.082031 1.132812 -3.65625 1.65625 -4.09375 C 2.175781 -4.53125 3 -4.75 4.125 -4.75 L 6.796875 -4.75 L 6.796875 -5.265625 C 6.796875 -5.992188 6.59375 -6.546875 6.1875 -6.921875 C 5.78125 -7.296875 5.191406 -7.484375 4.421875 -7.484375 C 3.878906 -7.484375 3.363281 -7.394531 2.875 -7.21875 C 2.382812 -7.039062 1.960938 -6.800781 1.609375 -6.5 L 1.109375 -7.34375 C 1.535156 -7.707031 2.046875 -7.988281 2.640625 -8.1875 C 3.234375 -8.382812 3.863281 -8.484375 4.53125 -8.484375 Z M 4.125 -0.8125 C 4.769531 -0.8125 5.320312 -0.957031 5.78125 -1.25 C 6.238281 -1.550781 6.578125 -1.976562 6.796875 -2.53125 L 6.796875 -3.90625 L 4.15625 -3.90625 C 2.71875 -3.90625 2 -3.40625 2 -2.40625 C 2 -1.90625 2.1875 -1.515625 2.5625 -1.234375 C 2.9375 -0.953125 3.457031 -0.8125 4.125 -0.8125 Z M 4.125 -0.8125 "/></g></g></g><g fill="#1e1e1e" fill-opacity="1"><g transform="translate(469.27705, 733.874983)"><g><path d="M 1.578125 -8.421875 L 2.71875 -8.421875 L 2.71875 0 L 1.578125 0 Z M 2.15625 -10.25 C 1.914062 -10.25 1.71875 -10.328125 1.5625 -10.484375 C 1.40625 -10.648438 1.328125 -10.847656 1.328125 -11.078125 C 1.328125 -11.285156 1.40625 -11.46875 1.5625 -11.625 C 1.71875 -11.789062 1.914062 -11.875 2.15625 -11.875 C 2.382812 -11.875 2.578125 -11.796875 2.734375 -11.640625 C 2.898438 -11.484375 2.984375 -11.300781 2.984375 -11.09375 C 2.984375 -10.851562 2.898438 -10.648438 2.734375 -10.484375 C 2.578125 -10.328125 2.382812 -10.25 2.15625 -10.25 Z M 2.15625 -10.25 "/></g></g></g><g fill="#1e1e1e" fill-opacity="1"><g transform="translate(473.260028, 733.874983)"><g><path d="M 1.578125 -11.875 L 2.71875 -11.875 L 2.71875 0 L 1.578125 0 Z M 1.578125 -11.875 "/></g></g></g><g fill="#1e1e1e" fill-opacity="1"><g transform="translate(477.243007, 733.874983)"><g><path d="M 1.703125 0.078125 C 1.460938 0.078125 1.257812 -0.00390625 1.09375 -0.171875 C 0.925781 -0.347656 0.84375 -0.554688 0.84375 -0.796875 C 0.84375 -1.046875 0.925781 -1.25 1.09375 -1.40625 C 1.257812 -1.570312 1.460938 -1.65625 1.703125 -1.65625 C 1.929688 -1.65625 2.128906 -1.570312 2.296875 -1.40625 C 2.472656 -1.25 2.5625 -1.046875 2.5625 -0.796875 C 2.5625 -0.554688 2.472656 -0.347656 2.296875 -0.171875 C 2.128906 -0.00390625 1.929688 0.078125 1.703125 0.078125 Z M 1.703125 0.078125 "/></g></g></g><g fill="#1e1e1e" fill-opacity="1"><g transform="translate(480.3142, 733.874983)"><g><path d="M 5.078125 0.078125 C 4.242188 0.078125 3.5 -0.101562 2.84375 -0.46875 C 2.1875 -0.832031 1.671875 -1.335938 1.296875 -1.984375 C 0.921875 -2.640625 0.734375 -3.378906 0.734375 -4.203125 C 0.734375 -5.023438 0.921875 -5.757812 1.296875 -6.40625 C 1.671875 -7.0625 2.1875 -7.570312 2.84375 -7.9375 C 3.5 -8.300781 4.242188 -8.484375 5.078125 -8.484375 C 5.796875 -8.484375 6.441406 -8.335938 7.015625 -8.046875 C 7.585938 -7.765625 8.039062 -7.351562 8.375 -6.8125 L 7.515625 -6.234375 C 7.242188 -6.648438 6.894531 -6.960938 6.46875 -7.171875 C 6.039062 -7.378906 5.578125 -7.484375 5.078125 -7.484375 C 4.460938 -7.484375 3.910156 -7.347656 3.421875 -7.078125 C 2.941406 -6.804688 2.566406 -6.421875 2.296875 -5.921875 C 2.023438 -5.421875 1.890625 -4.847656 1.890625 -4.203125 C 1.890625 -3.554688 2.023438 -2.984375 2.296875 -2.484375 C 2.566406 -1.992188 2.941406 -1.609375 3.421875 -1.328125 C 3.910156 -1.054688 4.460938 -0.921875 5.078125 -0.921875 C 5.578125 -0.921875 6.039062 -1.019531 6.46875 -1.21875 C 6.894531 -1.425781 7.242188 -1.738281 7.515625 -2.15625 L 8.375 -1.578125 C 8.039062 -1.035156 7.582031 -0.625 7 -0.34375 C 6.425781 -0.0625 5.785156 0.078125 5.078125 0.078125 Z M 5.078125 0.078125 "/></g></g></g><g fill="#1e1e1e" fill-opacity="1"><g transform="translate(489.000048, 733.874983)"><g><path d="M 5.03125 0.078125 C 4.21875 0.078125 3.484375 -0.101562 2.828125 -0.46875 C 2.179688 -0.84375 1.671875 -1.351562 1.296875 -2 C 0.921875 -2.644531 0.734375 -3.378906 0.734375 -4.203125 C 0.734375 -5.023438 0.921875 -5.757812 1.296875 -6.40625 C 1.671875 -7.0625 2.179688 -7.570312 2.828125 -7.9375 C 3.484375 -8.300781 4.21875 -8.484375 5.03125 -8.484375 C 5.832031 -8.484375 6.554688 -8.300781 7.203125 -7.9375 C 7.859375 -7.570312 8.367188 -7.0625 8.734375 -6.40625 C 9.109375 -5.757812 9.296875 -5.023438 9.296875 -4.203125 C 9.296875 -3.378906 9.109375 -2.644531 8.734375 -2 C 8.367188 -1.351562 7.859375 -0.84375 7.203125 -0.46875 C 6.554688 -0.101562 5.832031 0.078125 5.03125 0.078125 Z M 5.03125 -0.921875 C 5.625 -0.921875 6.15625 -1.054688 6.625 -1.328125 C 7.101562 -1.609375 7.472656 -2 7.734375 -2.5 C 8.003906 -3 8.140625 -3.566406 8.140625 -4.203125 C 8.140625 -4.847656 8.003906 -5.421875 7.734375 -5.921875 C 7.472656 -6.421875 7.101562 -6.804688 6.625 -7.078125 C 6.15625 -7.347656 5.625 -7.484375 5.03125 -7.484375 C 4.425781 -7.484375 3.882812 -7.347656 3.40625 -7.078125 C 2.9375 -6.804688 2.566406 -6.421875 2.296875 -5.921875 C 2.023438 -5.421875 1.890625 -4.847656 1.890625 -4.203125 C 1.890625 -3.566406 2.023438 -3 2.296875 -2.5 C 2.566406 -2 2.9375 -1.609375 3.40625 -1.328125 C 3.882812 -1.054688 4.425781 -0.921875 5.03125 -0.921875 Z M 5.03125 -0.921875 "/></g></g></g><g fill="#1e1e1e" fill-opacity="1"><g transform="translate(498.70965, 733.874983)"><g><path d="M 12.078125 -8.484375 C 13.128906 -8.484375 13.957031 -8.175781 14.5625 -7.5625 C 15.164062 -6.957031 15.46875 -6.0625 15.46875 -4.875 L 15.46875 0 L 14.34375 0 L 14.34375 -4.765625 C 14.34375 -5.640625 14.128906 -6.304688 13.703125 -6.765625 C 13.285156 -7.222656 12.691406 -7.453125 11.921875 -7.453125 C 11.046875 -7.453125 10.359375 -7.179688 9.859375 -6.640625 C 9.359375 -6.109375 9.109375 -5.367188 9.109375 -4.421875 L 9.109375 0 L 7.96875 0 L 7.96875 -4.765625 C 7.96875 -5.640625 7.753906 -6.304688 7.328125 -6.765625 C 6.910156 -7.222656 6.3125 -7.453125 5.53125 -7.453125 C 4.664062 -7.453125 3.976562 -7.179688 3.46875 -6.640625 C 2.96875 -6.109375 2.71875 -5.367188 2.71875 -4.421875 L 2.71875 0 L 1.578125 0 L 1.578125 -8.421875 L 2.671875 -8.421875 L 2.671875 -6.875 C 2.972656 -7.382812 3.390625 -7.78125 3.921875 -8.0625 C 4.453125 -8.34375 5.066406 -8.484375 5.765625 -8.484375 C 6.460938 -8.484375 7.070312 -8.332031 7.59375 -8.03125 C 8.113281 -7.726562 8.5 -7.285156 8.75 -6.703125 C 9.0625 -7.253906 9.503906 -7.6875 10.078125 -8 C 10.660156 -8.320312 11.328125 -8.484375 12.078125 -8.484375 Z M 12.078125 -8.484375 "/></g></g></g></svg>